<?xml version="1.0" encoding="utf-8"?>
<!-- Generator: Adobe Illustrator 25.2.3, SVG Export Plug-In . SVG Version: 6.00 Build 0)  -->
<svg version="1.1" id="Capa_1" xmlns="http://www.w3.org/2000/svg" xmlns:xlink="http://www.w3.org/1999/xlink" x="0px" y="0px"
	 viewBox="0 0 1191.6 1191.6" style="enable-background:new 0 0 1191.6 1191.6;" xml:space="preserve">
<style type="text/css">
	.st0{fill:#373F56;}
	.st1{fill:#F3899F;}
	.st2{fill:#ED5676;}
	.st3{fill:#D44C6A;}
	.st4{fill:#F4D2D9;}
	.st5{fill:#F26F8A;}
</style>
<g id="e338a785-ae16-4388-a883-f6e6ff98cdf9">
	<g id="bb48e155-b065-4960-890b-f266f13de912">
		<path class="st0" d="M595.8,1191.6C266.7,1191.4,0,924.4,0.2,595.3C0.3,356.1,143.5,140.1,363.9,46.8
			c303-128.2,652.6,13.5,780.9,316.5c94.6,223.6,44.1,482.2-127.7,653.8C905.5,1129,753.8,1191.8,595.8,1191.6L595.8,1191.6z
			 M595.8,23C279.4,23.2,23,279.9,23.2,596.3c0.2,230,137.8,437.6,349.6,527.2c291.6,122.8,627.6-14.1,750.4-305.8
			c122.5-291.1-13.6-626.5-304.4-749.8C748.2,38.2,672.4,22.8,595.8,23z"/>
		<path class="st0" d="M827.4,957.5H364.2c-18.7,0-33.9-15.2-33.9-33.9V731.5c0-18.7,15.2-33.9,33.9-33.9h463.3
			c18.7,0,33.9,15.2,33.9,33.9v192.1C861.3,942.3,846.1,957.4,827.4,957.5z M364.2,720.2c-6.2,0-11.3,5.1-11.3,11.3v192.1
			c0,6.2,5.1,11.3,11.3,11.3h463.3c6.2,0,11.3-5.1,11.3-11.3V731.5c0-6.2-5.1-11.3-11.3-11.3H364.2z"/>
		<path class="st0" d="M409.3,788h-33.9c-6.2,0-11.3-5.1-11.3-11.3v-34c0-6.2,5.1-11.3,11.3-11.3h33.9c6.2,0,11.3,5.1,11.3,11.3l0,0
			v33.9C420.7,782.9,415.6,788,409.3,788C409.4,788,409.4,788,409.3,788z M386.7,765.4H398V754h-11.3V765.4z"/>
		<path class="st0" d="M477.2,788h-33.9c-6.2,0-11.3-5.1-11.3-11.3l0,0v-33.9c0-6.2,5-11.3,11.3-11.3l0,0h33.9
			c6.2,0,11.3,5.1,11.3,11.3l0,0v33.9c0,6.2-5,11.3-11.2,11.4C477.2,788,477.2,788,477.2,788z M454.6,765.4h11.3V754h-11.3V765.4z"
			/>
		<path class="st0" d="M545,788h-33.9c-6.2,0-11.3-5.1-11.3-11.3v-34c0-6.2,5.1-11.3,11.3-11.3H545c6.2,0,11.3,5.1,11.3,11.3l0,0
			v33.9C556.3,782.9,551.3,788,545,788L545,788z M522.4,765.4h11.3V754h-11.3V765.4z"/>
		<path class="st0" d="M612.8,788h-33.9c-6.2,0-11.3-5.1-11.3-11.3l0,0v-34c0-6.2,5-11.3,11.3-11.3l0,0h33.9
			c6.2,0,11.3,5.1,11.3,11.3l0,0v33.9C624.1,782.9,619.1,788,612.8,788L612.8,788z M590.2,765.4h11.3V754h-11.3V765.4z"/>
		<path class="st0" d="M680.6,788h-33.9c-6.2,0-11.3-5-11.3-11.3l0,0v-34c0-6.2,5-11.3,11.3-11.3l0,0h33.9c6.2,0,11.3,5.1,11.3,11.3
			l0,0v33.9C691.9,782.9,686.9,788,680.6,788L680.6,788z M658,765.3h11.3V754H658V765.3z"/>
		<path class="st0" d="M748.4,788h-33.9c-6.2,0-11.3-5.1-11.3-11.3l0,0v-34c0-6.2,5-11.3,11.3-11.3l0,0h33.9c6.2,0,11.3,5,11.3,11.3
			l0,0v33.9C759.8,782.9,754.7,788,748.4,788C748.5,788,748.4,788,748.4,788z M725.8,765.4h11.3V754h-11.3V765.4z"/>
		<path class="st0" d="M477.2,855.8H375.4c-6.2,0-11.3-5-11.3-11.3l0,0v-33.9c0-6.2,5.1-11.3,11.3-11.3l0,0h101.7
			c6.2,0,11.3,5,11.3,11.3l0,0v33.9C488.5,850.7,483.4,855.8,477.2,855.8L477.2,855.8z M386.7,833.2h79.1v-11.3h-79.1V833.2z"/>
		<path class="st0" d="M545,855.8h-33.9c-6.2,0-11.3-5-11.3-11.3l0,0v-33.9c0-6.2,5.1-11.3,11.3-11.3l0,0H545
			c6.2,0,11.3,5,11.3,11.3l0,0v33.9C556.3,850.7,551.3,855.8,545,855.8L545,855.8z M522.4,833.2h11.3v-11.3h-11.3V833.2z"/>
		<path class="st0" d="M612.8,855.8h-33.9c-6.2,0-11.3-5-11.3-11.3l0,0v-33.9c0-6.2,5-11.3,11.3-11.3l0,0h33.9
			c6.2,0,11.3,5,11.3,11.3l0,0v33.9C624.1,850.7,619.1,855.8,612.8,855.8L612.8,855.8z M590.2,833.2h11.3v-11.3h-11.3V833.2z"/>
		<path class="st0" d="M680.6,855.8h-33.9c-6.2,0-11.3-5-11.3-11.3l0,0v-33.9c0-6.2,5-11.3,11.3-11.3l0,0h33.9
			c6.2,0,11.3,5,11.3,11.3l0,0v33.9C691.9,850.7,686.9,855.8,680.6,855.8L680.6,855.8z M658,833.2h11.3v-11.3H658V833.2z"/>
		<path class="st0" d="M748.4,855.8h-33.9c-6.2,0-11.3-5-11.3-11.3l0,0v-33.9c0-6.2,5-11.3,11.3-11.3l0,0h33.9
			c6.2,0,11.3,5,11.3,11.3l0,0v33.9C759.7,850.7,754.7,855.8,748.4,855.8L748.4,855.8z M725.8,833.2h11.3v-11.3h-11.3V833.2z"/>
		<path class="st0" d="M816.2,855.8h-33.9c-6.2,0-11.3-5-11.3-11.3l0,0V742.7c0-6.2,5.1-11.3,11.3-11.3h33.9
			c6.2,0,11.3,5.1,11.3,11.3l0,0v101.7C827.5,850.7,822.4,855.8,816.2,855.8L816.2,855.8z M793.5,833.2h11.3V754h-11.3V833.2z"/>
		<path class="st0" d="M409.3,923.6h-33.9c-6.2,0-11.3-5.1-11.3-11.3v-33.9c0-6.2,5.1-11.3,11.3-11.3h33.9c6.2,0,11.3,5.1,11.3,11.3
			l0,0v33.9C420.6,918.5,415.6,923.6,409.3,923.6L409.3,923.6z M386.7,901H398v-11.3h-11.3V901z"/>
		<path class="st0" d="M477.2,923.6h-33.9c-6.2,0-11.3-5.1-11.3-11.3v-33.9c0-6.2,5-11.3,11.3-11.3l0,0h33.9
			c6.2,0,11.3,5.1,11.3,11.3l0,0v33.9C488.5,918.5,483.5,923.6,477.2,923.6L477.2,923.6z M454.6,901h11.3v-11.3h-11.3V901z"/>
		<path class="st0" d="M748.4,923.6H511.1c-6.2,0-11.3-5.1-11.3-11.3v-33.9c0-6.2,5.1-11.3,11.3-11.3h237.4c6.2,0,11.3,5,11.3,11.3
			l0,0v33.9C759.7,918.5,754.7,923.6,748.4,923.6L748.4,923.6z M522.4,901h214.8v-11.3H522.4V901z"/>
		<path class="st0" d="M816.2,923.6h-33.9c-6.2,0-11.3-5.1-11.3-11.3v-33.9c0-6.2,5.1-11.3,11.3-11.3h33.9c6.2,0,11.3,5.1,11.3,11.3
			l0,0v33.9C827.5,918.5,822.4,923.6,816.2,923.6L816.2,923.6z M793.5,901h11.3v-11.3h-11.3V901z"/>
		<path class="st0" d="M595.8,720.1c-6.2,0-11.3-5-11.3-11.3l0,0c0-25,20.3-45.2,45.2-45.2c6.2,0.2,11.2,5.4,11,11.6
			c-0.2,6-5,10.8-11,11c-12.5,0-22.6,10.1-22.6,22.6C607.1,715,602.1,720.1,595.8,720.1L595.8,720.1z"/>
		<path class="st0" d="M816.1,686.2H629.7c-6.2,0.2-11.5-4.7-11.6-11c-0.2-6.2,4.7-11.5,11-11.6c0.2,0,0.4,0,0.7,0h186.4
			c6.2-0.2,11.5,4.7,11.6,11c0.2,6.2-4.7,11.5-11,11.6C816.5,686.2,816.3,686.2,816.1,686.2z"/>
		<path class="st0" d="M816.1,686.2c-6.2-0.2-11.2-5.4-11-11.6c0.2-6,5-10.8,11-11c6.3,0,11.3-5.1,11.3-11.3l0,0
			c0.2-6.2,5.4-11.2,11.6-11c6,0.2,10.8,5,11,11C850,671,834.8,686.2,816.1,686.2z"/>
		<path class="st0" d="M838.7,460.2c-6.2,0-11.3-5-11.3-11.3l0,0c0-6.3-5.1-11.3-11.3-11.3l0,0c-6.2-0.2-11.2-5.4-11-11.6
			c0.2-6,5-10.8,11-11c18.7,0.1,33.9,15.2,33.9,33.9C850,455.2,845,460.2,838.7,460.2z"/>
		<path class="st0" d="M838.7,663.6c-6.2,0-11.3-5-11.3-11.3l0,0V448.9c-0.2-6.2,4.7-11.5,11-11.6c6.2-0.2,11.5,4.7,11.6,11
			c0,0.2,0,0.4,0,0.7v203.3C850,658.5,845,663.6,838.7,663.6C838.8,663.6,838.7,663.6,838.7,663.6z"/>
		<path class="st0" d="M816.1,437.6h-67.8c-6.2-0.2-11.2-5.4-11-11.6c0.2-6,5-10.8,11-11h67.8c6.2-0.2,11.5,4.7,11.6,11
			c0.2,6.2-4.7,11.5-11,11.6C816.5,437.6,816.3,437.6,816.1,437.6z"/>
		<path class="st0" d="M477.1,640.9c-18.7-0.3-33.6-15.8-33.3-34.5c0.3-18.3,15.1-33,33.3-33.3c6.2,0.2,11.2,5.4,11,11.6
			c-0.2,6-5,10.8-11,11c-6.2,0.2-11.1,5.4-11,11.6c0.2,6,5,10.8,11,11c6.2,0.2,11.2,5.4,11,11.6
			C487.9,635.9,483.1,640.7,477.1,640.9z"/>
		<path class="st0" d="M748.5,595.7H477.1c-6.2,0.2-11.5-4.7-11.6-11c-0.2-6.2,4.7-11.5,11-11.6c0.2,0,0.4,0,0.7,0h271.4
			c6.2,0.2,11.2,5.4,11,11.6C759.3,590.7,754.5,595.5,748.5,595.7z"/>
		<path class="st0" d="M454.5,279.3c-6.2,0-11.3-5-11.3-11.3c0,0,0,0,0-0.1c0-18.7,15.2-33.9,33.9-33.9c6.2,0.2,11.2,5.4,11,11.6
			c-0.2,6-5,10.8-11,11c-6.2,0-11.3,5.1-11.3,11.3C465.8,274.2,460.8,279.3,454.5,279.3L454.5,279.3z"/>
		<path class="st0" d="M748.5,256.7H477.1c-6.2,0.2-11.5-4.7-11.6-11c-0.2-6.2,4.7-11.5,11-11.6c0.2,0,0.4,0,0.7,0h271.4
			c6.2,0.2,11.2,5.4,11,11.6C759.3,251.7,754.5,256.5,748.5,256.7z"/>
		<path class="st0" d="M748.5,640.9H477.1c-6.2,0.2-11.5-4.7-11.6-11c-0.2-6.2,4.7-11.5,11-11.6c0.2,0,0.4,0,0.7,0h271.4
			c6.2,0.2,11.2,5.4,11,11.6C759.3,635.9,754.5,640.7,748.5,640.9z"/>
		<path class="st0" d="M748.5,640.9c-6.2,0-11.3-5.1-11.3-11.3l0,0V245.4c0-6.2,5-11.3,11.3-11.3c6.2,0,11.3,5,11.3,11.3l0,0v384.2
			C759.8,635.8,754.7,640.9,748.5,640.9L748.5,640.9z"/>
		<path class="st0" d="M454.5,618.3c-6.2,0-11.3-5-11.3-11.3l0,0V268c0.2-6.2,5.4-11.2,11.6-11c6,0.2,10.8,5,11,11v339
			C465.8,613.2,460.7,618.3,454.5,618.3z"/>
		<path class="st0" d="M714.6,640.9c-6.2,0-11.3-5.1-11.3-11.3v-45.2c-0.2-6.2,4.7-11.5,11-11.6c6.2-0.2,11.5,4.7,11.6,11
			c0,0.2,0,0.4,0,0.7v45.2C725.9,635.8,720.8,640.9,714.6,640.9L714.6,640.9z"/>
		<path class="st0" d="M680.6,448.7H522.3c-6.2,0-11.3-5-11.3-11.3l0,0v-45.2c0-6.2,5.1-11.3,11.3-11.3h158.3
			c6.2,0,11.3,5.1,11.3,11.3v45.2C691.9,443.6,686.9,448.7,680.6,448.7z M533.6,426.1h135.7v-22.6H533.6V426.1z"/>
	</g>
</g>
</svg>
