<?xml version="1.0" encoding="utf-8"?>
<!-- Generator: Adobe Illustrator 25.3.1, SVG Export Plug-In . SVG Version: 6.00 Build 0)  -->
<svg version="1.1" id="Capa_1" xmlns="http://www.w3.org/2000/svg" xmlns:xlink="http://www.w3.org/1999/xlink" x="0px" y="0px"
	 viewBox="0 0 400 490" style="enable-background:new 0 0 400 490;" xml:space="preserve">
<style type="text/css">
	.st0{fill:#7287A5;}
	.st1{fill:#373F56;}
	.st2{opacity:0.32;fill:#7287A5;}
	.st3{fill:#F4D2D9;}
	.st4{fill:#ED5676;}
	.st5{fill:#505050;}
	.st6{fill:#D6DEE5;}
	.st7{fill:none;}
	.st8{fill:#962582;}
	.st9{opacity:0.32;fill:none;stroke:#7287A5;stroke-miterlimit:10;}
	.st10{opacity:0.2;fill:#A16AAC;}
	.st11{opacity:0.2;fill:#7287A5;}
	.st12{fill:#E2E5E8;}
	.st13{fill:#EAE2ED;}
	.st14{fill:#A16AAC;}
	.st15{fill:#782988;}
	.st16{fill:#B667A8;}
	.st17{fill:#CF61A7;}
	.st18{fill:#BB1D81;}
</style>
<g>
	<rect x="385.4" y="18.6" class="st10" width="6.8" height="82"/>
	<rect x="385.4" y="111.3" class="st11" width="6.8" height="82"/>
	<rect x="385.4" y="296.7" class="st11" width="6.8" height="82"/>
	<rect x="385.4" y="389.4" class="st10" width="6.8" height="82"/>
	<rect x="385.4" y="204" class="st10" width="6.8" height="82"/>
	<g>
		<rect x="7.8" y="18.6" class="st10" width="82" height="82"/>
		<g>
			<path class="st8" d="M67.6,30C65,30,63,32.1,63,34.7c0,0.6,0.4,1,1,1s1-0.4,1-1c0-1.5,1.2-2.6,2.6-2.6c1.5,0,2.6,1.2,2.6,2.6
				c0,1.5-1.2,2.6-2.6,2.6H67c-0.6,0-1,0.4-1,1v3.4c0,0.6,0.4,1,1,1s1-0.4,1-1v-2.4c2.4-0.2,4.3-2.2,4.3-4.6
				C72.2,32.1,70.1,30,67.6,30z"/>
			<path class="st8" d="M67,44.2c-0.6,0-1,0.4-1,1v0.3c0,0.6,0.4,1,1,1c0.6,0,1-0.4,1-1v-0.3C68,44.7,67.5,44.2,67,44.2z"/>
			<path class="st8" d="M53.3,78.8c-1-0.9-3.6-1.9-4.9-2.1c-2.6-0.4-2.8-0.4-3.2-0.5c-0.7-0.3-1.2-1-1.2-1.8c1.2-0.5,2-1.7,2-3
				c0-0.4-0.1-0.7-0.2-1.1c2.4-1.4,5.8-4.1,7.5-8.4h1.9c2.2,0,4-1.8,4-4v-0.9c0-1.2-0.6-2.3-1.4-3.1v-2.6c0.4,0.1,0.7,0.1,1.1,0.1
				H62c0.4,0,0.7,0.3,0.7,0.7v2.8c0,0.7,0.4,1.3,1.1,1.5c0.2,0.1,0.4,0.1,0.5,0.1c0.5,0,1-0.2,1.3-0.6l3.3-4.3
				c0.1-0.1,0.3-0.2,0.5-0.2h7c2.4,0,4.4-2,4.4-4.4V29.5c0-2.4-2-4.4-4.4-4.4l0,0H58.8c-2.4,0-4.4,2-4.4,4.4v7.9
				c-3.3-4.7-8.8-7.8-14.9-7.8H35c-5.2,0-10.1,2.8-12.8,7.2c-3.7,1.2-6.1,4.6-6,8.5l0.3,8.7c-0.8,0.7-1.3,1.8-1.3,2.9v0.9
				c0,2.2,1.8,4,4,4h2.7c0.7,1.7,1.7,3.3,3,4.7c-0.7,1-4.4,6-4.6,6.3c-0.1,0.1-0.1,0.2-0.2,0.3l-4.6,17.7c-0.2,0.6,0,1.2,0.3,1.7
				c0.4,0.5,0.9,0.8,1.5,0.8h37.2c0.7,0,1.3-0.3,1.8-0.8c0.5-0.5,0.7-1.1,0.6-1.8l-0.4-5.2c-0.1-1.3-0.3-2.6-1-3.7
				C54.9,80.8,54.2,79.6,53.3,78.8z M53.8,82.8c0.5,0.9,0.7,1.9,0.8,3l0.4,5.2c0,0.2-0.1,0.3-0.1,0.3c0,0-0.1,0.1-0.3,0.1H50v-4.1
				c0-0.6-0.4-1-1-1s-1,0.4-1,1v4.1H26.1l2.6-9.8c0,0,0-0.1,0.1-0.1h4.4c0.9,0,1.7-0.2,2.5-0.6c0.6,0.1,1.3,0.2,2,0.2
				c2.8,0,5.5-1.1,7.4-3l0,0c0.2,0,0,0,3,0.5c1.1,0.2,3.4,1.2,3.6,1.3C52.4,80.3,53.4,82,53.8,82.8z M17.2,57.8v-0.9
				c0-1.1,0.9-2,2-2h1.6c-0.1,1.7,0,3.2,0.4,4.9h-2C18.1,59.8,17.2,58.9,17.2,57.8z M37.6,79.1c0.5-0.8,0.9-1.8,0.9-2.9v-1.6h3.4
				c0.1,1,0.5,1.9,1.2,2.5C41.6,78.4,39.6,79.1,37.6,79.1z M42.6,72.6h-4.3c-1,0-1.8,0.8-1.8,1.8v1.8c0,1.8-1.5,3.3-3.3,3.3h-4.4
				c-0.9,0-1.8,0.6-2,1.6L24,91.4h-6.6L22,73.9c0.4-0.5,6.8-9.5,7.7-10.6c0.2-0.3,0.5-0.5,0.9-0.5c0.4-0.1,0.7,0,1,0.2l0,0
				c0.3,0.2,0.5,0.6,0.5,1c0,0.3-0.1,0.5-0.2,0.8L30,67.4c-0.3,0.5-0.4,1.1-0.1,1.7c0.3,0.5,0.8,0.9,1.4,0.9h11.3
				c0.3,0,0.7,0.1,0.9,0.4c0.2,0.2,0.4,0.6,0.4,0.9C43.9,72,43.3,72.6,42.6,72.6z M57.1,57.8c0,1.1-0.9,2-2,2h-1.2
				c0.3-1.2,0.4-2.4,0.4-3.6c0-0.4,0-0.9,0-1.3h0.8c1.1,0,2,0.9,2,2V57.8z M21.5,49.6c-0.3,1-0.4,2.2-0.6,3.3h-1.8
				c-0.3,0-0.5,0-0.8,0.1l-0.2-7.8c-0.1-3.1,1.9-5.8,4.9-6.6c0.3-0.1,0.5-0.2,0.6-0.5c2.3-4,6.6-6.6,11.3-6.6h4.5
				c8.9,0,16.2,7.3,16.2,16.2v5.2c-0.2,0-0.4,0-0.6,0l0,0h-1c-0.1-1.1-0.3-2.2-0.5-3.2c-0.5-2-2.2-3.5-4.3-3.6c0,0-8.3-0.3-11.1-0.7
				c-3.9-0.6-5.8-1.3-6.7-2.1c-0.6-0.6-1.3-1.2-2-2c-0.5-0.6-1.2-0.9-2-0.9h0c-0.7,0-1.4,0.3-1.9,0.9c-1,1.1-1.9,2.3-2.5,3.7
				C22.7,46.1,21.9,48.4,21.5,49.6z M24.9,45.9c0.5-1.2,1.3-2.3,2.2-3.3c0.2-0.2,0.3-0.2,0.4-0.2c0.1,0,0.3,0,0.5,0.2
				c0.7,0.8,1.5,1.6,2.2,2.2c0.8,0.7,3.8,1.6,5.3,1.9c3.7,0.8,13.7,1.3,13.7,1.3c1.2,0.1,2.2,0.9,2.5,2.1c0.3,1.2,0.5,2.5,0.6,3.9
				c0.1,0.7,0.1,1.5,0.1,2.2c0,1.5-0.2,2.9-0.7,4.3c-1.5,4.3-4.8,6.8-7.1,8.1c-0.6-0.4-1.2-0.6-2-0.6H32.1l1.4-2.1
				c0.4-0.6,0.6-1.3,0.6-2c0-1-0.5-1.9-1.3-2.5l0,0c-0.7-0.5-1.6-0.7-2.5-0.6c-0.9,0.1-1.6,0.6-2.2,1.3c-0.4,0.5-1.1,1.5-2,2.8
				c-1.1-1.3-2-2.8-2.5-4.4c-0.8-2.2-0.8-4.2-0.6-6.5c0.1-1.4,0.2-2.7,0.6-4C23.8,49,24.5,46.9,24.9,45.9z M78.7,47
				c0,1.3-1.1,2.4-2.4,2.4h-7c-0.8,0-1.6,0.4-2.1,1l-2.6,3.4v-1.7c0-1.5-1.2-2.7-2.7-2.7h-3.1c-0.4,0-0.8-0.1-1.1-0.3v-1.4
				c0-2.3-0.4-4.6-1.3-6.6V29.5c0-1.3,1.1-2.4,2.4-2.4h17.5c1.3,0,2.4,1.1,2.4,2.4V47z"/>
		</g>
	</g>
	<g>
		<rect x="7.8" y="111.3" class="st11" width="82" height="82"/>
		<g id="Layer_7_3_">
			<path class="st8" d="M22.6,142.9h37.7c0.6,0,1-0.5,1-1v-16.8c0-0.6-0.5-1-1-1H22.6c-0.6,0-1,0.5-1,1v16.8
				C21.6,142.5,22,142.9,22.6,142.9z M23.7,126.1h35.6v14.7H23.7V126.1z"/>
			<path class="st8" d="M21.6,155.5h6.3c0.6,0,1-0.5,1-1v-5.9l2.8-2.8l-1.5-1.5l-2.8,2.8h-5.9c-0.6,0-1,0.5-1,1v6.3
				C20.5,155,21,155.5,21.6,155.5z M26.8,153.4h-2.7l2.7-2.7V153.4z M25.3,149.2l-2.7,2.7v-2.7H25.3z"/>
			<path class="st8" d="M27.8,168.1h-6.3c-0.6,0-1,0.5-1,1v6.3c0,0.6,0.5,1,1,1h6.3c0.6,0,1-0.5,1-1v-6.3
				C28.9,168.6,28.4,168.1,27.8,168.1z M26.8,174.4h-4.2v-4.2h4.2V174.4z"/>
			<path class="st8" d="M29.2,155.8l-1.8,1.8h-5.9c-0.6,0-1,0.5-1,1v6.3c0,0.6,0.5,1,1,1h6.3c0.6,0,1-0.5,1-1v-5.9l1.8-1.8
				L29.2,155.8z M25.3,159.7l-2.7,2.7v-2.7H25.3z M26.8,163.9h-2.7l2.7-2.7V163.9z"/>
			<path class="st8" d="M31,148.2h30.4v2.1H31V148.2z"/>
			<path class="st8" d="M31,169.1h13.6v2.1H31V169.1z"/>
			<path class="st8" d="M31,173.3h30.4v2.1H31V173.3z"/>
			<path class="st8" d="M81,142.2l-4.2-4.2c-0.4-0.4-1.1-0.4-1.5,0c0,0,0,0,0,0l-8.7,8.7v-25.8c0-0.6-0.5-1-1-1H17.4
				c-0.6,0-1,0.5-1,1v62.9c0,0.6,0.5,1,1,1h48.2c0.6,0,1-0.5,1-1V158L81,143.7C81.4,143.3,81.4,142.6,81,142.2
				C81,142.2,81,142.2,81,142.2L81,142.2z M51.3,165.7l2,2l-3.5,1.5L51.3,165.7z M52.4,163.9l19.5-19.5l2.7,2.7l-19.5,19.5
				L52.4,163.9z M64.5,182.8H18.4V122h46.1v26.8l-3.6,3.6H31v2.1h27.9l-4.2,4.2H31v2.1h21.6l-2.1,2.1H31v2.1h18.3l-2.5,5.9
				c-0.2,0.5,0,1.1,0.6,1.4c0.1,0.1,0.3,0.1,0.4,0.1c0.1,0,0.3,0,0.4-0.1l7.3-3.1c0.1-0.1,0.2-0.1,0.3-0.2l8.7-8.7V182.8z
				 M76.1,145.6l-2.7-2.7l2.7-2.7l2.7,2.7L76.1,145.6z"/>
		</g>
	</g>
	<g>
		<rect x="7.8" y="204" class="st10" width="82" height="82"/>
		<g>
			<g>
				<path class="st8" d="M54.4,244.7c0.3-0.4,1-1,1.5-1.4h-32c-0.9,0-1.7,0.6-1.7,1.2s0.8,1.2,1.7,1.2l29.5-0.1
					C53.8,245.3,54.4,244.7,54.4,244.7z"/>
				<path class="st8" d="M70.1,228.7H23.9c-0.9,0-1.7,0.6-1.7,1.2s0.8,1.2,1.7,1.2h46.1c0.9,0,1.7-0.6,1.7-1.2
					C71.8,229.3,71,228.7,70.1,228.7z"/>
				<path class="st8" d="M71.8,237.2c0-0.7-0.8-1.2-1.7-1.2H23.9c-0.9,0-1.7,0.6-1.7,1.2c0,0.7,0.8,1.2,1.7,1.2h46.1
					C71,238.4,71.8,237.9,71.8,237.2z"/>
				<path class="st8" d="M22.2,252.2c0,0.7,0.8,1.2,1.7,1.2h25.7c0-0.4,0.1-0.8,0.2-1.2c0.1-0.4,0.2-0.8,0.4-1.2H23.9
					C23,251,22.2,251.5,22.2,252.2z"/>
				<path class="st8" d="M57.1,268.8h-1h-0.8h-0.8H39.9h-0.8h-0.8h-1c-0.7,0-1.3,0.6-1.3,1.3V270c0,0.7,0.6,1.3,1.3,1.3h19.8
					c0.7,0,1.3-0.6,1.3-1.3v0.1C58.4,269.4,57.9,268.8,57.1,268.8z"/>
				<path class="st8" d="M38.7,260.3h0.8h0.8l-0.3,6.8h14.4l-0.1-1.6c-1.3-1.2-2.3-2.6-3.1-4.2c-0.5-1.1-0.9-2.2-1.2-3.4
					c0,0,0,0,0,0H39.7h-0.8H19.8c-0.3,0-0.6-0.3-0.6-0.6v-32.7c0-0.3,0.3-0.6,0.6-0.6h54.7c0.3,0,0.6,0.3,0.6,0.6v19.5
					c1.4,1.3,1.5,1.8,2.4,3.4v-23c0-2.2-0.8-3-3-3H19.8c-2.2,0-3,0.8-3,3v32.7c0,2.2,0.8,3,3,3H38.7L38.7,260.3z"/>
				<path class="st8" d="M80.1,268.1c-1.7-1.4-3.7-3.8-3.7-3.8l-0.6-0.6l-0.4-0.4c-0.1-0.1-0.1-0.1-0.2-0.2c0.4-0.6,1.7-2.2,2.1-2.8
					c0.8-1.8,1.3-3.7,1.3-5.8c0-3.4-1.3-6.5-3.4-8.9c-2.5-2.9-6.2-4.7-10.3-4.7c-2.6,0-5,0.7-7.1,2c-0.8,0.5-1.5,1.1-2.2,1.7
					c-0.6,0.5-1.1,1.1-1.5,1.7c-1,1.3-1.7,2.7-2.2,4.2c-0.2,0.6-0.3,1.1-0.4,1.7c-0.1,0.6-0.2,1.1-0.2,1.7c0,0.2,0,0.4,0,0.6
					c0,0.6,0,1.3,0.1,1.9c0,0.3,0.1,0.5,0.1,0.8c0.1,0.3,0.1,0.5,0.2,0.8c0,0,0,0,0,0c0.3,1.2,0.8,2.3,1.4,3.4c0.3,0.5,0.6,1,1,1.5
					c0.3,0.3,0.6,0.7,0.9,1c0.3,0.3,0.6,0.6,0.8,0.8c2.4,2.1,5.6,3.5,9.1,3.5c2.8,0,6.5-1.9,8.7-3.4c0,0.1,0.1,0.1,0.1,0.2l0.4,0.5
					l0.6,0.6l3.7,3.7c0.1,0.1,0.1,0.1,0.2,0.2c0.9,0.5,1.9-0.4,1.6-1.4C80.2,268.3,80.2,268.2,80.1,268.1z M74.7,258.3
					c-0.6,1.4-1.4,2.7-2.5,3.7c-1.9,1.8-4.5,3-7.3,3c-2.8,0-5.4-1.1-7.3-3c-1.1-1-1.9-2.3-2.5-3.7c-0.5-1.2-0.7-2.5-0.7-3.8
					c0-0.2,0-0.4,0-0.6c0-0.6,0.1-1.3,0.3-1.9c0.2-0.7,0.4-1.3,0.7-1.9c0.9-1.9,2.4-3.6,4.2-4.7c1.6-0.9,3.4-1.5,5.4-1.5
					s3.8,0.5,5.4,1.5c3.1,1.8,5.1,5.2,5.1,9C75.4,255.8,75.2,257.1,74.7,258.3z"/>
			</g>
		</g>
	</g>
	<g>
		<rect x="7.8" y="296.7" class="st11" width="82" height="82"/>
		<g>
			<g>
				<path class="st8" d="M65.4,363.7c0.5,0.9,0.7,1.9,0.8,3l0.4,5.2c0,0.2-0.1,0.3-0.1,0.3c0,0-0.1,0.1-0.3,0.1h-4.6v-4.1
					c0-0.6-0.4-1-1-1c-0.6,0-1,0.4-1,1v4.1H37.8l2.5-9.8c0,0,0-0.1,0.1-0.1h4.4c0.9,0,1.7-0.2,2.5-0.6c0.6,0.1,1.3,0.2,2,0.2
					c2.8,0,5.5-1.1,7.4-2.9l0,0c0.2,0,0,0,3,0.5c1.1,0.2,3.4,1.2,3.6,1.3C64,361.2,65,362.9,65.4,363.7z M28.9,338.8v-0.9
					c0-1.1,0.9-2,2-2h1.6c-0.1,1.7,0,3.2,0.4,4.9h-2C29.8,340.8,28.9,339.9,28.9,338.8z M49.2,360c0.5-0.8,0.9-1.8,0.9-2.9v-1.6h3.4
					c0.1,1,0.5,1.9,1.2,2.5C53.2,359.3,51.3,360,49.2,360z M54.2,353.5h-4.3c-1,0-1.8,0.8-1.8,1.8v1.8c0,1.8-1.5,3.3-3.3,3.3h-4.4
					c-0.9,0-1.8,0.6-2,1.5l-2.7,10.3h-6.5l4.5-17.4c0.4-0.5,6.8-9.4,7.6-10.6c0.2-0.3,0.5-0.5,0.9-0.5c0.4-0.1,0.7,0,1,0.2l0,0
					c0.3,0.2,0.5,0.6,0.5,1c0,0.3-0.1,0.5-0.2,0.8l-1.9,2.7c-0.3,0.5-0.4,1.1-0.1,1.7c0.3,0.5,0.8,0.9,1.4,0.9h11.2
					c0.3,0,0.7,0.1,0.9,0.4c0.2,0.2,0.4,0.6,0.4,0.9C55.5,352.9,54.9,353.5,54.2,353.5z M68.7,338.8c0,1.1-0.9,2-2,2h-1.2
					c0.3-1.2,0.4-2.4,0.4-3.6c0-0.4,0-0.9,0-1.3h0.8c1.1,0,2,0.9,2,2V338.8z M33.2,330.6c-0.3,1-0.4,2.2-0.6,3.3h-1.8
					c-0.3,0-0.5,0-0.8,0.1l-0.2-7.7c-0.1-3.1,1.9-5.8,4.9-6.6c0.3-0.1,0.5-0.2,0.6-0.5c2.3-4,6.6-6.5,11.2-6.5h4.5
					c8.9,0,16.1,7.2,16.1,16.1v5.1c-0.2,0-0.4,0-0.6,0h0h-1c-0.1-1.1-0.3-2.2-0.5-3.2c-0.5-2-2.2-3.5-4.3-3.6c0,0-8.3-0.3-11-0.7
					c-3.9-0.6-5.8-1.3-6.7-2.1c-0.6-0.6-1.3-1.2-2-2c-0.5-0.6-1.2-0.9-1.9-0.9h0c-0.7,0-1.4,0.3-1.9,0.9c-1,1.1-1.9,2.3-2.5,3.7
					C34.4,327.1,33.6,329.4,33.2,330.6z M36.6,326.9c0.5-1.2,1.3-2.3,2.2-3.3c0.2-0.2,0.3-0.2,0.4-0.2c0.1,0,0.3,0,0.5,0.2
					c0.7,0.8,1.5,1.5,2.2,2.2c0.8,0.7,3.7,1.6,5.3,1.9c3.7,0.8,13.7,1.3,13.7,1.3c1.2,0.1,2.2,0.9,2.5,2.1c0.3,1.2,0.5,2.5,0.6,3.9
					c0.1,0.7,0.1,1.5,0.1,2.2c0,1.5-0.2,2.9-0.7,4.3c-1.5,4.3-4.8,6.8-7,8.1c-0.6-0.4-1.2-0.6-2-0.6H43.7l1.4-2
					c0.4-0.6,0.6-1.3,0.6-2c0-1-0.5-1.9-1.3-2.5l0,0c-0.7-0.5-1.6-0.7-2.5-0.6c-0.9,0.1-1.6,0.6-2.2,1.3c-0.4,0.5-1.1,1.5-2,2.7
					c-1.1-1.3-2-2.8-2.5-4.3c-0.8-2.2-0.8-4.2-0.6-6.5c0.1-1.4,0.2-2.7,0.6-3.9C35.5,330,36.2,327.9,36.6,326.9z M69.3,330.2
					c-0.1-2-0.3-6-1.2-8c-0.4-1-1.4-2.8-2-3.7c-3-4.9-8.7-7.8-14.9-7.8h-4.5c-5.2,0-10.1,2.7-12.8,7.2c-3.7,1.1-6.1,4.6-6,8.4
					l0.3,8.7c-0.8,0.7-1.3,1.8-1.3,2.9v0.9c0,2.2,1.8,4,4,4h2.7c0.7,1.7,1.7,3.2,3,4.7c-0.7,1-4.3,6-4.6,6.3
					c-0.1,0.1-0.1,0.2-0.2,0.3l-4.6,17.7c-0.2,0.6,0,1.2,0.3,1.7c0.4,0.5,0.9,0.8,1.5,0.8h37.1c0.7,0,1.3-0.3,1.8-0.8
					c0.5-0.5,0.7-1.1,0.6-1.8l-0.4-5.2c-0.1-1.3-0.3-2.6-1-3.7c-0.7-1.1-1.3-2.3-2.3-3.1c-1-0.9-3.6-1.9-4.9-2.1
					c-2.6-0.4-2.8-0.4-3.2-0.5c-0.7-0.3-1.2-1-1.2-1.8c1.2-0.5,2-1.7,2-3c0-0.4-0.1-0.7-0.2-1.1c2.4-1.4,5.7-4,7.5-8.4h1.9
					c2.2,0,4-1.8,4-4v-0.9c0-1.2-0.6-2.3-1.4-3v-2.6C69.3,332.3,69.3,330.7,69.3,330.2z"/>
			</g>
			<g>
				<path class="st12" d="M38.1,310.1c0.3-0.2,1.5-0.1,1.5-0.1c0.2,0,0.4-0.1,0.4-0.4c0.4-1.8,1.3-3.5,2.8-4.7
					c0.2-0.1,0.2-0.4,0.1-0.6l-0.6-1c-0.2-0.3,0.2-0.9,0.9-1.4c0.6-0.4,1.5-0.4,1.6-0.1l0.6,1c0.1,0.2,0.3,0.3,0.5,0.2
					c1.8-0.6,3.8-0.6,5.5,0c0.2,0.1,0.4,0,0.5-0.2l0.6-1c0.2-0.3,1-0.3,1.6,0.1c0.7,0.4,1.1,1.1,0.9,1.4l-0.6,1
					c-0.1,0.2-0.1,0.4,0.1,0.6c1.4,1.3,2.4,2.9,2.8,4.7c0,0.2,0.2,0.4,0.4,0.4h1.2c0.2,0,0.3,0.1,0.5,0.3c0.2,0.3,0.3,0.7,0.3,1.1
					c0,0.8-0.4,1.4-0.8,1.4h-1.2c-0.2,0-0.4,0.1-0.4,0.4c-0.4,1.8-1.3,3.5-2.8,4.7c-0.2,0.1-0.2,0.4-0.1,0.6l0.6,1
					c0.2,0.3-0.2,0.9-0.9,1.4c-0.6,0.4-1.4,0.4-1.6,0.1l-0.6-1c-0.1-0.1-0.2-0.2-0.4-0.2c0,0-0.1,0-0.1,0c-1.8,0.6-3.7,0.6-5.5,0
					c-0.2-0.1-0.4,0-0.5,0.2l-0.6,1c-0.2,0.3-1,0.3-1.6-0.1c-0.7-0.4-1.1-1.1-0.9-1.4l0.6-1c0.1-0.2,0.1-0.4-0.1-0.6
					c-1.4-1.3-2.4-2.9-2.8-4.7c0-0.2-0.2-0.4-0.4-0.4h-1.2c-0.4,0-0.8-0.6-0.8-1.4C37.7,311.4,37.9,310.3,38.1,310.1z"/>
				<g>
					<g>
						<path class="st8" d="M48.8,306.1c-2.9,0-5.2,2.4-5.2,5.2c0,2.9,2.4,5.2,5.2,5.2s5.2-2.4,5.2-5.2
							C54,308.5,51.7,306.1,48.8,306.1z M48.8,315.8c-2.4,0-4.4-2-4.4-4.4c0-2.4,2-4.4,4.4-4.4c2.4,0,4.4,2,4.4,4.4
							C53.2,313.8,51.2,315.8,48.8,315.8z"/>
						<path class="st8" d="M58.4,309.2h-0.8c-0.4-1.7-1.3-3.2-2.5-4.4l0.4-0.7c0.4-0.8-0.1-1.8-1.1-2.5c-0.4-0.3-0.9-0.4-1.4-0.4
							c-0.6,0-1.1,0.2-1.3,0.6l-0.4,0.7c-1.6-0.5-3.4-0.5-5,0l-0.4-0.7c-0.2-0.4-0.7-0.6-1.3-0.6c-0.5,0-0.9,0.1-1.4,0.4
							c-1.1,0.6-1.6,1.7-1.1,2.5l0.4,0.7c-1.2,1.2-2.1,2.7-2.5,4.4h-0.8c-0.9,0-1.6,1-1.6,2.2c0,1.2,0.7,2.2,1.6,2.2h0.8
							c0.4,1.7,1.3,3.2,2.5,4.4l-0.4,0.7c-0.4,0.8,0.1,1.8,1.1,2.5c0.4,0.3,0.9,0.4,1.4,0.4c0.6,0,1.1-0.2,1.3-0.6l0.4-0.7
							c1.6,0.5,3.4,0.5,5,0l0.4,0.7c0.2,0.4,0.7,0.6,1.3,0.6c0.5,0,0.9-0.1,1.4-0.4c1.1-0.6,1.6-1.7,1.1-2.5l-0.4-0.7
							c1.2-1.2,2.1-2.7,2.5-4.4h0.8c0.9,0,1.6-1,1.6-2.2c0-0.6-0.1-1.1-0.4-1.5C59.3,309.4,58.9,309.2,58.4,309.2z M58.4,312.7h-1.1
							c-0.2,0-0.4,0.1-0.4,0.3c-0.4,1.7-1.3,3.3-2.6,4.5c-0.1,0.1-0.2,0.4-0.1,0.5l0.6,1c0.2,0.3-0.1,0.9-0.8,1.3
							c-0.6,0.4-1.4,0.4-1.5,0.1l-0.6-1c-0.1-0.1-0.2-0.2-0.4-0.2c0,0-0.1,0-0.1,0c-1.7,0.6-3.5,0.6-5.2,0c-0.2-0.1-0.4,0-0.5,0.2
							l-0.6,1c-0.2,0.3-0.9,0.3-1.5-0.1c-0.7-0.4-1-1-0.8-1.3l0.6-1c0.1-0.2,0.1-0.4-0.1-0.5c-1.3-1.2-2.2-2.7-2.6-4.5
							c0-0.2-0.2-0.3-0.4-0.3h-1.1c-0.3,0-0.7-0.6-0.7-1.4c0-0.8,0.4-1.4,0.7-1.4h1.1c0.2,0,0.4-0.1,0.4-0.3
							c0.4-1.7,1.3-3.3,2.6-4.5c0.1-0.1,0.2-0.4,0.1-0.5l-0.6-1c-0.2-0.3,0.1-0.9,0.8-1.3c0.6-0.4,1.4-0.4,1.5-0.1l0.6,1
							c0.1,0.2,0.3,0.3,0.5,0.2c1.7-0.6,3.5-0.6,5.2,0c0.2,0.1,0.4,0,0.5-0.2l0.6-1c0.2-0.3,0.9-0.3,1.5,0.1c0.7,0.4,1,1,0.8,1.3
							l-0.6,1c-0.1,0.2-0.1,0.4,0.1,0.5c1.3,1.2,2.2,2.7,2.6,4.5c0,0.2,0.2,0.3,0.4,0.3h1.1c0.2,0,0.3,0.1,0.4,0.3
							c0.2,0.3,0.3,0.6,0.3,1C59.1,312.2,58.8,312.7,58.4,312.7z"/>
					</g>
				</g>
			</g>
			<g>
				<path class="st12" d="M58,322.3c0-0.2,0.7-0.7,0.7-0.7c0.1-0.1,0.1-0.2,0.1-0.4c-0.6-1-0.8-2.2-0.7-3.4c0-0.1-0.1-0.3-0.2-0.3
					l-0.7-0.2c-0.2-0.1-0.3-0.5-0.2-1c0.2-0.4,0.5-0.8,0.7-0.7l0.7,0.2c0.1,0,0.3,0,0.3-0.1c0.6-1,1.5-1.8,2.6-2.3
					c0.1-0.1,0.2-0.2,0.2-0.3l-0.1-0.7c0-0.2,0.3-0.6,0.8-0.7c0.5-0.1,0.9,0.1,1,0.3l0.1,0.7c0,0.1,0.1,0.2,0.3,0.2
					c1.2,0,2.3,0.4,3.3,1.1c0.1,0.1,0.3,0.1,0.4,0l0.6-0.5c0.1-0.1,0.2-0.1,0.4,0c0.2,0.1,0.4,0.2,0.6,0.4c0.3,0.4,0.4,0.8,0.2,1
					l-0.6,0.5c-0.1,0.1-0.1,0.2-0.1,0.4c0.6,1,0.8,2.2,0.7,3.4c0,0.1,0.1,0.3,0.2,0.3l0.7,0.2c0.2,0.1,0.3,0.5,0.2,1
					c-0.2,0.4-0.5,0.8-0.7,0.7l-0.7-0.2c-0.1,0-0.2,0-0.3,0.1c0,0,0,0-0.1,0.1c-0.6,1-1.5,1.8-2.6,2.3c-0.1,0.1-0.2,0.2-0.2,0.3
					l0.1,0.7c0,0.2-0.3,0.6-0.8,0.7c-0.5,0.1-0.9-0.1-1-0.3l-0.1-0.7c0-0.1-0.1-0.2-0.3-0.2c-1.2,0-2.3-0.4-3.3-1.1
					c-0.1-0.1-0.3-0.1-0.4,0l-0.6,0.5c-0.2,0.2-0.6,0-1-0.4C58.3,323.1,57.9,322.5,58,322.3z"/>
				<g>
					<g>
						<path class="st8" d="M61.3,315.9c-1.4,1.2-1.5,3.3-0.3,4.7c1.2,1.4,3.3,1.5,4.7,0.3c1.4-1.2,1.5-3.3,0.3-4.7
							C64.8,314.8,62.7,314.7,61.3,315.9z M65.4,320.5c-1.1,1-2.9,0.9-3.9-0.2c-1-1.1-0.9-2.9,0.2-3.9c1.1-1,2.9-0.9,3.9,0.2
							C66.6,317.7,66.5,319.5,65.4,320.5z"/>
						<path class="st8" d="M67.2,313.3l-0.4,0.3c-0.9-0.6-1.9-1-3-1l-0.1-0.5c-0.1-0.5-0.8-0.8-1.6-0.7c-0.3,0.1-0.6,0.2-0.8,0.4
							c-0.3,0.2-0.4,0.6-0.3,0.8l0.1,0.5c-1,0.5-1.8,1.2-2.4,2.1l-0.5-0.2c-0.3-0.1-0.6,0-0.9,0.2c-0.2,0.2-0.4,0.5-0.5,0.8
							c-0.2,0.7,0,1.5,0.5,1.6l0.5,0.2c-0.1,1.1,0.1,2.2,0.6,3.1l-0.4,0.3c-0.4,0.4-0.3,1.1,0.2,1.7c0.5,0.6,1.3,0.8,1.7,0.4
							l0.4-0.3c0.9,0.6,1.9,1,3,1l0.1,0.5c0.1,0.5,0.8,0.8,1.6,0.7c0.3-0.1,0.6-0.2,0.8-0.4c0.3-0.2,0.4-0.6,0.3-0.8l-0.1-0.5
							c1-0.5,1.8-1.2,2.4-2.1l0.5,0.2c0.3,0.1,0.6,0,0.9-0.2c0.2-0.2,0.4-0.5,0.5-0.8c0.2-0.7,0-1.5-0.5-1.6l-0.5-0.2
							c0.1-1.1-0.1-2.2-0.6-3.1l0.4-0.3c0.4-0.4,0.3-1.1-0.2-1.7c-0.2-0.3-0.5-0.5-0.8-0.5C67.7,313.1,67.4,313.1,67.2,313.3z
							 M68.7,315l-0.5,0.5c-0.1,0.1-0.1,0.2-0.1,0.3c0.6,1,0.8,2.1,0.7,3.2c0,0.1,0.1,0.2,0.2,0.3l0.7,0.2c0.2,0.1,0.3,0.5,0.2,1
							c-0.1,0.4-0.5,0.7-0.7,0.7l-0.7-0.2c-0.1,0-0.2,0-0.3,0.1c0,0,0,0-0.1,0.1c-0.6,1-1.4,1.7-2.5,2.2c-0.1,0.1-0.2,0.2-0.2,0.3
							l0.1,0.7c0,0.2-0.3,0.5-0.8,0.6c-0.5,0.1-0.9-0.1-0.9-0.3l-0.1-0.7c0-0.1-0.1-0.2-0.3-0.2c-1.1,0-2.2-0.4-3.1-1
							c-0.1-0.1-0.2-0.1-0.3,0l-0.5,0.5c-0.2,0.1-0.6,0-0.9-0.3c-0.3-0.4-0.4-0.8-0.2-0.9l0.5-0.5c0.1-0.1,0.1-0.2,0.1-0.3
							c-0.6-1-0.8-2.1-0.7-3.2c0-0.1-0.1-0.2-0.2-0.3l-0.7-0.2c-0.2-0.1-0.3-0.5-0.2-1c0.1-0.4,0.5-0.7,0.7-0.7l0.7,0.2
							c0.1,0,0.3,0,0.3-0.1c0.6-1,1.4-1.7,2.5-2.2c0.1-0.1,0.2-0.2,0.2-0.3l-0.1-0.7c0-0.2,0.3-0.5,0.8-0.6c0.5-0.1,0.9,0.1,0.9,0.3
							l0.1,0.7c0,0.1,0.1,0.2,0.3,0.2c1.1,0,2.2,0.4,3.1,1c0.1,0.1,0.2,0.1,0.3,0l0.5-0.5c0.1-0.1,0.2-0.1,0.3,0
							c0.2,0.1,0.4,0.2,0.6,0.4C68.8,314.4,68.8,314.9,68.7,315z"/>
					</g>
				</g>
			</g>
		</g>
	</g>
	<g>
		<rect x="7.8" y="389.4" class="st10" width="82" height="82"/>
		<g>
			<g>
				<path class="st8" d="M28.7,430.1v-0.9c0-1.1,0.9-2,2-2h1.6c-0.1,1.8,0,3.2,0.4,5h-2C29.6,432.1,28.7,431.2,28.7,430.1z
					 M68.9,430.1c0,1.1-0.9,2-2,2h-1.2c0.3-1.2,0.4-2.4,0.4-3.6c0-0.4,0-0.9,0-1.3h0.8c1.1,0,2,0.9,2,2V430.1z M33.1,421.8
					c-0.3,1.1-0.4,2.2-0.6,3.4h-1.8c-0.3,0-0.5,0-0.8,0.1l-0.2-7.8c-0.1-3.1,2-5.9,5-6.6c0.3-0.1,0.5-0.2,0.6-0.5
					c2.3-4.1,6.7-6.6,11.4-6.6h4.5c9,0,16.3,7.3,16.3,16.3v5.2c-0.2,0-0.4,0-0.6,0h0h-1c-0.1-1.1-0.3-2.2-0.5-3.3
					c-0.5-2-2.3-3.5-4.3-3.6c0,0-8.4-0.3-11.2-0.7c-3.9-0.6-5.8-1.3-6.8-2.1c-0.6-0.6-1.3-1.2-2-2c-0.5-0.6-1.2-0.9-2-0.9h0
					c-0.7,0-1.5,0.3-2,0.9c-1,1.1-1.9,2.3-2.5,3.7C34.2,418.3,33.4,420.6,33.1,421.8z M47.5,442.2c-3.6-0.4-6.5-2.4-6.5-2.4
					l-3.3-2.6c-1.1-1.3-2-2.8-2.5-4.4c-0.8-2.2-0.8-4.2-0.6-6.6c0.1-1.4,0.2-2.7,0.6-4c0.3-1.1,1.1-3.2,1.5-4.2
					c0.5-1.3,1.4-2.3,2.2-3.3c0.2-0.2,0.3-0.2,0.4-0.2c0.1,0,0.3,0,0.5,0.2c0.8,0.9,1.5,1.6,2.2,2.2c0.8,0.7,3.8,1.6,5.3,2
					c3.7,0.8,13.8,1.3,13.8,1.3c1.2,0.1,2.2,0.9,2.5,2.1c0.3,1.2,0.5,2.5,0.6,3.9c0.1,0.7,0.1,1.5,0.1,2.3c0,1.5-0.2,2.9-0.7,4.3
					c-1.5,4.3-4.9,6.9-7.1,8.2C56.3,441,51.5,442.6,47.5,442.2z M41.6,450.1c-0.4,0.2-0.7,0.1-3.2,0.6c-1.4,0.2-3.9,1.2-5,2.1
					c-1,0.8-1.6,2.1-2.3,3.2c-0.7,1.1-0.9,2.4-1,3.8l-0.4,3.3c0,0.7,0.2,1.3,0.6,1.8c0.5,0.5,1.1,0.8,1.8,0.8l34.3,0.3
					c0.7,0,1.3-0.3,1.8-0.8c0.5-0.5,0.7-1.2,0.6-1.8l-0.4-5.2c-0.1-1.3-0.3-2.7-1-3.8c-0.7-1.1-1.3-2.3-2.3-3.2
					c-1.1-0.9-3.6-1.9-5-2.1c-2.6-0.4-2.8-0.4-3.2-0.6c-0.7-0.3-1.2-1-1.2-1.8l-0.2-2.8c0,0,2-1.2,2.1-1.3c2.4-1.4,5.8-4.1,7.6-8.5
					h1.9c2.2,0,4-1.8,4-4v-0.9c0-1.2-0.6-2.3-1.4-3.1v-2.6c0,0,0-1.6,0-2.1c-0.1-2-0.3-6-1.3-8c-0.4-1-1.5-2.8-2-3.8
					c-3-4.9-8.8-7.9-15.1-7.9h-4.5c-5.3,0-10.2,2.8-12.9,7.3c-3.7,1.2-6.2,4.6-6.1,8.5l0.3,8.8c-0.8,0.7-1.3,1.8-1.3,2.9v0.9
					c0,2.2,1.8,4,4,4h2.7c0.7,1.7,1.7,3.3,3,4.7l4.3,3.7l1.8,0.9l1.7,0.5c0,0-0.2,3.4-0.5,4.1c-0.2,0.6-1,1.4-1,1.4L41.6,450.1z
					 M41.6,452.2l0.3-0.1l2.9,0.9l2.4,0.4c0.6,0.1,1.3,0.2,2,0.2c2.8,0,5.5-1.1,7.5-3l0,0c0.2,0,0,0,3,0.5c1.1,0.2,3.4,1.2,3.6,1.3
					c0.8,0.4,1.8,2.1,2.2,2.9c0.5,0.9,0.8,1.9,0.8,3l0.4,5.2c0,0.2-0.1,0.3-0.1,0.3c0,0-0.1,0.1-0.3,0.1h-4.6v-4.1c0-0.6-0.5-1-1-1
					s-1,0.5-1,1v4.1l-18.5-0.3l-0.7-0.1v-4.1c0-0.6-0.5-1-1-1s-1,0.5-1,1v4.1l-1.8,0.1H32c-0.2,0-0.3-0.1-0.3-0.1
					c0,0-0.1-0.2-0.1-0.3l0.4-3.3c0.1-1.1,0.3-2.1,0.8-3c0.4-0.8,1.4-2.5,2.2-2.9c0.2-0.1,2.5-1.1,3.6-1.3
					C41.6,452.2,41.5,452.2,41.6,452.2 M44.5,449.9c0.9-0.3,1-3.5,1.1-4.5c0,0,2.1,0.4,2.4,0.5c1,0.2,2.4,0.2,3.4,0
					c0.8-0.2,2.2-0.5,2.2-0.5c0.1,1,0.5,3.8,1.3,4.2c-1.5,1.3-3.3,2-5.5,2c0,0-1.8-0.2-2.5-0.4C46.2,450.9,44.5,449.9,44.5,449.9z"
					/>
				<path class="st8" d="M33.1,433.8c1.8,4.4,5.2,7.1,7.6,8.5"/>
				<path class="st8" d="M41.9,450.6c2,1.9,4.7,3,7.5,3"/>
			</g>
			<g>
				<g>
					<path class="st13" d="M64.9,402.2c0,1.7-0.6,3.3-1.7,4.6c-1,1.1-1.6,2.5-1.7,3.8h-7.1c-0.2-1.4-0.8-2.7-1.7-3.8
						c-1.5-1.7-2.1-3.9-1.6-6.2c0.6-2.6,2.7-4.8,5.3-5.3"/>
					<path class="st13" d="M56.4,395.4c4.5-0.9,8.5,2.4,8.5,6.8"/>
				</g>
				<g>
					<g>
						<path class="st8" d="M57.9,396.6c-0.4,0-0.7,0.3-0.7,0.7c0,0.4,0.3,0.7,0.7,0.7c2.3,0,4.2,1.9,4.2,4.2c0,0.4,0.3,0.7,0.7,0.7
							c0.4,0,0.7-0.3,0.7-0.7C63.5,399.1,61,396.6,57.9,396.6z"/>
					</g>
				</g>
				<g>
					<g>
						<path class="st8" d="M56.1,394c-3.2,0.7-5.7,3.2-6.4,6.4c-0.6,2.7,0.1,5.4,1.9,7.4c0.9,1,1.4,2.3,1.4,3.6v1.4
							c0,0.9,0.6,1.7,1.5,2c0.3,1.6,1.7,3,3.5,3c1.8,0,3.2-1.3,3.5-3c0.8-0.3,1.5-1.1,1.5-2v-1.4c0-1.3,0.5-2.6,1.4-3.6
							c1.3-1.5,2.1-3.5,2.1-5.5C66.3,396.9,61.4,392.9,56.1,394z M57.9,416.3c-0.9,0-1.7-0.6-2-1.5h4
							C59.6,415.7,58.8,416.3,57.9,416.3z M61.4,412.8c0,0.4-0.3,0.7-0.7,0.7h-5.6c-0.4,0-0.7-0.3-0.7-0.7v-0.7h7V412.8z
							 M63.2,406.8c-1,1.1-1.6,2.5-1.7,3.8h-7.1c-0.2-1.4-0.8-2.7-1.7-3.8c-1.5-1.7-2.1-3.9-1.6-6.2c0.6-2.6,2.7-4.8,5.3-5.3
							c4.5-0.9,8.5,2.4,8.5,6.8C64.9,403.9,64.3,405.6,63.2,406.8z"/>
					</g>
				</g>
				<g>
					<g>
						<path class="st8" d="M48,402.2h-1.4c-0.4,0-0.7,0.3-0.7,0.7s0.3,0.7,0.7,0.7H48c0.4,0,0.7-0.3,0.7-0.7S48.4,402.2,48,402.2z"
							/>
					</g>
				</g>
				<g>
					<g>
						<path class="st8" d="M48.3,398.7l-1-1c-0.3-0.3-0.7-0.3-1,0c-0.3,0.3-0.3,0.7,0,1l1,1c0.3,0.3,0.7,0.3,1,0
							C48.6,399.4,48.6,399,48.3,398.7z"/>
					</g>
				</g>
				<g>
					<g>
						<path class="st8" d="M48.3,406.1c-0.3-0.3-0.7-0.3-1,0l-1,1c-0.3,0.3-0.3,0.7,0,1c0.3,0.3,0.7,0.3,1,0l1-1
							C48.6,406.9,48.6,406.4,48.3,406.1z"/>
					</g>
				</g>
				<g>
					<g>
						<path class="st8" d="M69.1,402.2h-1.4c-0.4,0-0.7,0.3-0.7,0.7s0.3,0.7,0.7,0.7h1.4c0.4,0,0.7-0.3,0.7-0.7
							S69.5,402.2,69.1,402.2z"/>
					</g>
				</g>
				<g>
					<g>
						<path class="st8" d="M69.4,397.7c-0.3-0.3-0.7-0.3-1,0l-1,1c-0.3,0.3-0.3,0.7,0,1c0.3,0.3,0.7,0.3,1,0l1-1
							C69.7,398.4,69.7,398,69.4,397.7z"/>
					</g>
				</g>
				<g>
					<g>
						<path class="st8" d="M69.4,407.1l-1-1c-0.3-0.3-0.7-0.3-1,0s-0.3,0.7,0,1l1,1c0.3,0.3,0.7,0.3,1,0S69.7,407.4,69.4,407.1z"/>
					</g>
				</g>
			</g>
		</g>
	</g>
	<g>
		<g>
			<path class="st1" d="M113.5,60.5V47h3.5c1,0,2.4,0.1,3.2,0.9c0.8,0.8,1.1,1.8,1.1,2.9c0,1.5-0.5,3-1.9,3.6
				c-0.9,0.4-2.5,0.4-3.5,0.4H115v5.7H113.5z M115,53.4h1.5c2.1,0,3.3-0.3,3.3-2.6c0-2.2-1.4-2.5-3.2-2.4H115V53.4z"/>
			<path class="st1" d="M123.3,60.5V47h1.4v13.5H123.3z"/>
			<path class="st1" d="M133.5,60.5c-0.1,0-0.2,0-0.3,0.1c-1.2,0.1-1.7-0.1-1.8-1.4h0c-0.3,0.9-1.3,1.6-2.2,1.6
				c-2,0-2.6-1.1-2.6-2.9c0-0.4,0.1-1.8,1.4-2.4c0.8-0.4,2.8-1.1,3-1.3c0.3-0.2,0.3-0.6,0.3-1.2c0-1.1-0.4-1.6-1.6-1.6
				c-1.3,0-1.5,0.6-1.5,1.8h-1.3c-0.1-2.1,1-3,3-3c3,0,2.7,2.5,2.7,2.7v5.7c0,0.3,0,0.6,0.3,0.8c0.2,0.1,0.4,0,0.6,0V60.5z
				 M131.1,55.1c-0.7,0.4-1.5,0.7-2.3,1.1c-0.7,0.3-0.9,1-0.9,1.7c0,1,0.3,1.7,1.4,1.7c0.5,0,1.7-0.4,1.7-2V55.1z"/>
			<path class="st1" d="M136.7,51.6L136.7,51.6c0.7-0.9,1.5-1.4,2.5-1.4c1.5,0,2.5,0.8,2.5,2.6v7.7h-1.4v-7.3c0-1-0.3-1.7-1.5-1.7
				c-0.5,0-1,0.2-1.4,0.6c-0.6,0.5-0.6,1.1-0.6,1.8v6.7h-1.4v-10h1.4V51.6z"/>
			<path class="st1" d="M146,50.5h1.7v1.2H146v6.8c0,0.3-0.1,0.8,0.7,0.8h1v1.2H146c-0.8,0-1.5-0.1-1.5-1.6v-7.2h-1.4v-1.2h1.4v-2.7
				h1.4V50.5z"/>
			<path class="st1" d="M155.1,57.2c0.1,2-0.9,3.6-3,3.6c-1.9,0-3.2-1.3-3.2-5.3c0-2.1,0.6-5.3,3.2-5.3c3.2,0,3.1,3.1,3.1,5.4h-4.9
				c0,1.4-0.2,3.9,1.8,3.9c1.4,0,1.7-1.3,1.7-2.4H155.1z M153.7,54.4c-0.1-1.2,0-3-1.6-3c-1.7,0-1.7,1.8-1.7,3H153.7z"/>
			<path class="st1" d="M163.5,60.5c-0.1,0-0.2,0-0.3,0.1c-1.2,0.1-1.7-0.1-1.8-1.4h0c-0.3,0.9-1.3,1.6-2.2,1.6
				c-2,0-2.6-1.1-2.6-2.9c0-0.4,0.1-1.8,1.4-2.4c0.8-0.4,2.8-1.1,3-1.3c0.3-0.2,0.3-0.6,0.3-1.2c0-1.1-0.4-1.6-1.6-1.6
				c-1.3,0-1.5,0.6-1.5,1.8H157c-0.1-2.1,1-3,3-3c3,0,2.7,2.5,2.7,2.7v5.7c0,0.3,0,0.6,0.3,0.8c0.2,0.1,0.4,0,0.6,0V60.5z
				 M161.2,55.1c-0.7,0.4-1.5,0.7-2.3,1.1c-0.7,0.3-0.9,1-0.9,1.7c0,1,0.3,1.7,1.4,1.7c0.5,0,1.7-0.4,1.7-2V55.1z"/>
			<path class="st1" d="M166.8,60.5h-1.4v-10h1.4v1.3h0c0.5-0.8,1.3-1.5,2.4-1.5c1.1,0,1.9,0.6,2.4,1.6c0.7-1,1.4-1.6,2.7-1.6
				c0.7,0,1.3,0.2,1.8,0.7c0.6,0.6,0.6,1.7,0.6,2.3v7.2h-1.4v-7.3c0-1.1-0.3-1.7-1.5-1.7c-0.5,0-1,0.2-1.3,0.6
				c-0.6,0.5-0.6,1.1-0.6,1.8v6.7h-1.4v-7.3c0-1-0.3-1.7-1.5-1.7c-0.5,0-1,0.2-1.4,0.6c-0.6,0.5-0.6,1.1-0.6,1.8V60.5z"/>
			<path class="st1" d="M179.4,48.8V47h1.4v1.8H179.4z M179.4,60.5v-10h1.4v10H179.4z"/>
			<path class="st1" d="M189.1,57.2c0.1,2-0.9,3.6-3,3.6c-1.9,0-3.2-1.3-3.2-5.3c0-2.1,0.6-5.3,3.2-5.3c3.2,0,3.1,3.1,3.1,5.4h-4.9
				c0,1.4-0.2,3.9,1.8,3.9c1.4,0,1.7-1.3,1.7-2.4H189.1z M187.7,54.4c-0.1-1.2,0-3-1.6-3s-1.7,1.8-1.7,3H187.7z"/>
			<path class="st1" d="M192.8,51.6L192.8,51.6c0.7-0.9,1.5-1.4,2.5-1.4c1.5,0,2.5,0.8,2.5,2.6v7.7h-1.4v-7.3c0-1-0.3-1.7-1.5-1.7
				c-0.5,0-1,0.2-1.4,0.6c-0.6,0.5-0.6,1.1-0.6,1.8v6.7h-1.4v-10h1.4V51.6z"/>
			<path class="st1" d="M202.1,50.5h1.7v1.2h-1.7v6.8c0,0.3-0.1,0.8,0.7,0.8h1v1.2h-1.6c-0.8,0-1.5-0.1-1.5-1.6v-7.2h-1.4v-1.2h1.4
				v-2.7h1.4V50.5z"/>
			<path class="st1" d="M208.6,60.8c-2.2,0-3.6-1.3-3.6-5.6c0-3,1.1-4.9,3.6-4.9s3.6,1.9,3.6,4.9C212.2,59.5,210.8,60.8,208.6,60.8z
				 M208.6,51.4c-1.5,0-2.1,1.2-2.1,4.2c0,2.4,0.5,4,2.1,4c1.7,0,2.1-1.6,2.1-4C210.7,52.6,210.1,51.4,208.6,51.4z"/>
			<path class="st1" d="M223.9,47h1.4v13.5h-1.4v-1.3h0c-0.6,1.2-1.2,1.6-2.4,1.6c-3.2,0-2.9-4.4-2.9-5.3c-0.1-2.9,0.9-5.3,3-5.3
				c1,0,1.6,0.4,2.3,1.3h0V47z M223.9,55.3c0-1.4,0-3.9-1.9-3.9c-1.2,0-2,0.9-2,4c0,2.2,0.1,4.1,2,4.1c1.5,0,1.9-1.9,1.9-3V55.3z"/>
			<path class="st1" d="M233.7,57.2c0.1,2-0.9,3.6-3,3.6c-1.9,0-3.2-1.3-3.2-5.3c0-2.1,0.6-5.3,3.2-5.3c3.2,0,3.1,3.1,3.1,5.4h-4.9
				c0,1.4-0.2,3.9,1.8,3.9c1.4,0,1.7-1.3,1.7-2.4H233.7z M232.3,54.4c-0.1-1.2,0-3-1.6-3c-1.7,0-1.7,1.8-1.7,3H232.3z"/>
			<path class="st1" d="M236,60.5V47h1.4v13.5H236z"/>
			<path class="st1" d="M245.9,63.9h-1.4V50.5h1.4v1.1h0c0.5-0.9,1.3-1.3,2.1-1.4c2.5,0,3.3,2.6,3.3,4.6c0,2.8-0.5,5.9-3.2,5.9
				c-1,0-1.6-0.5-2.1-1.3h0V63.9z M247.8,51.4c-1.9,0-1.9,2.6-1.9,4.1c0,1.4-0.1,4.1,1.9,4.1c1.5,0,1.9-1.5,1.9-4.2
				C249.8,54,249.7,51.4,247.8,51.4z"/>
			<path class="st1" d="M255.1,52.1L255.1,52.1c0.6-1.3,1.5-1.9,3-1.7v1.4c-1.8-0.3-2.9,0.8-2.9,2.6v6.1h-1.4v-10h1.4V52.1z"/>
			<path class="st1" d="M262.8,60.8c-2.2,0-3.6-1.3-3.6-5.6c0-3,1.1-4.9,3.6-4.9s3.6,1.9,3.6,4.9C266.3,59.5,265,60.8,262.8,60.8z
				 M262.8,51.4c-1.5,0-2.1,1.2-2.1,4.2c0,2.4,0.5,4,2.1,4c1.7,0,2.1-1.6,2.1-4C264.9,52.6,264.3,51.4,262.8,51.4z"/>
			<path class="st1" d="M269.9,60.5h-1.3V47h1.4v4.5h0c0.6-0.9,1.2-1.3,2.1-1.3c2.5,0,3.2,2.6,3.2,4.6c0,2.8-0.4,5.9-3.1,5.9
				c-0.9,0-1.7-0.3-2.3-1.5h0V60.5z M272,59.6c1.5,0,1.9-1.5,1.9-4.2c0-1.3-0.1-3.9-1.9-3.9c-2.1,0-2,2.9-2,4.3S269.9,59.6,272,59.6
				z"/>
			<path class="st1" d="M277.6,60.5V47h1.4v13.5H277.6z"/>
			<path class="st1" d="M287.3,57.2c0.1,2-0.9,3.6-3,3.6c-1.9,0-3.2-1.3-3.2-5.3c0-2.1,0.6-5.3,3.2-5.3c3.2,0,3.1,3.1,3.1,5.4h-4.9
				c0,1.4-0.2,3.9,1.8,3.9c1.4,0,1.7-1.3,1.7-2.4H287.3z M285.9,54.4c-0.1-1.2,0-3-1.6-3s-1.7,1.8-1.7,3H285.9z"/>
			<path class="st1" d="M291.1,60.5h-1.4v-10h1.4v1.3h0c0.5-0.8,1.3-1.5,2.4-1.5c1.1,0,1.9,0.6,2.4,1.6c0.7-1,1.4-1.6,2.7-1.6
				c0.7,0,1.3,0.2,1.8,0.7c0.6,0.6,0.6,1.7,0.6,2.3v7.2h-1.4v-7.3c0-1.1-0.3-1.7-1.5-1.7c-0.5,0-1,0.2-1.3,0.6
				c-0.6,0.5-0.6,1.1-0.6,1.8v6.7h-1.4v-7.3c0-1-0.3-1.7-1.5-1.7c-0.5,0-1,0.2-1.4,0.6c-0.6,0.5-0.6,1.1-0.6,1.8V60.5z"/>
			<path class="st1" d="M309.8,60.5c-0.1,0-0.2,0-0.3,0.1c-1.2,0.1-1.7-0.1-1.8-1.4h0c-0.3,0.9-1.3,1.6-2.2,1.6
				c-2,0-2.6-1.1-2.6-2.9c0-0.4,0.1-1.8,1.4-2.4c0.8-0.4,2.8-1.1,3-1.3c0.3-0.2,0.3-0.6,0.3-1.2c0-1.1-0.4-1.6-1.6-1.6
				c-1.3,0-1.5,0.6-1.5,1.8h-1.3c-0.1-2.1,1-3,3-3c3,0,2.7,2.5,2.7,2.7v5.7c0,0.3,0,0.6,0.3,0.8c0.2,0.1,0.4,0,0.6,0V60.5z
				 M307.5,55.1c-0.7,0.4-1.5,0.7-2.3,1.1c-0.7,0.3-0.9,1-0.9,1.7c0,1,0.3,1.7,1.4,1.7c0.5,0,1.7-0.4,1.7-2V55.1z"/>
		</g>
	</g>
	<g>
		<g>
			<path class="st1" d="M113.5,144.8v-13.5h3.5c1,0,2.4,0.1,3.2,0.9c0.8,0.8,1.1,1.8,1.1,2.9c0,1.5-0.5,3-1.9,3.6
				c-0.9,0.4-2.5,0.4-3.5,0.4H115v5.7H113.5z M115,137.7h1.5c2.1,0,3.3-0.3,3.3-2.6c0-2.2-1.4-2.5-3.2-2.4H115V137.7z"/>
			<path class="st1" d="M124.8,136.4L124.8,136.4c0.6-1.3,1.5-1.9,3-1.7v1.4c-1.8-0.3-2.9,0.8-2.9,2.6v6.1h-1.4v-10h1.4V136.4z"/>
			<path class="st1" d="M132.5,145.1c-2.2,0-3.6-1.3-3.6-5.6c0-3,1.1-4.9,3.6-4.9s3.6,1.9,3.6,4.9
				C136.1,143.8,134.7,145.1,132.5,145.1z M132.5,135.7c-1.5,0-2.1,1.2-2.1,4.2c0,2.4,0.5,4,2.1,4c1.7,0,2.1-1.6,2.1-4
				C134.6,136.9,134,135.7,132.5,135.7z"/>
			<path class="st1" d="M139.8,144.8h-1.4v-10h1.4v1.3h0c0.5-0.8,1.3-1.5,2.4-1.5c1.1,0,1.9,0.6,2.4,1.6c0.7-1,1.4-1.6,2.7-1.6
				c0.7,0,1.3,0.2,1.8,0.7c0.6,0.6,0.6,1.7,0.6,2.3v7.2h-1.4v-7.3c0-1.1-0.3-1.7-1.5-1.7c-0.5,0-1,0.2-1.3,0.6
				c-0.6,0.5-0.6,1.1-0.6,1.8v6.7h-1.4v-7.3c0-1-0.3-1.7-1.5-1.7c-0.5,0-1,0.2-1.4,0.6c-0.6,0.5-0.6,1.1-0.6,1.8V144.8z"/>
			<path class="st1" d="M155.5,145.1c-2.2,0-3.6-1.3-3.6-5.6c0-3,1.1-4.9,3.6-4.9s3.6,1.9,3.6,4.9
				C159.1,143.8,157.7,145.1,155.5,145.1z M155.5,135.7c-1.5,0-2.1,1.2-2.1,4.2c0,2.4,0.5,4,2.1,4c1.7,0,2.1-1.6,2.1-4
				C157.6,136.9,157,135.7,155.5,135.7z"/>
			<path class="st1" d="M160.3,134.8h1.5l2.3,8.8h0l2.3-8.8h1.5l-3,10h-1.5L160.3,134.8z"/>
			<path class="st1" d="M175.1,141.5c0.1,2-0.9,3.6-3,3.6c-1.9,0-3.2-1.3-3.2-5.3c0-2.1,0.6-5.3,3.2-5.3c3.2,0,3.1,3.1,3.1,5.4h-4.9
				c0,1.4-0.2,3.9,1.8,3.9c1.4,0,1.7-1.3,1.7-2.4H175.1z M173.7,138.7c-0.1-1.2,0-3-1.6-3c-1.7,0-1.7,1.8-1.7,3H173.7z"/>
			<path class="st1" d="M178.9,136.4L178.9,136.4c0.6-1.3,1.5-1.9,3-1.7v1.4c-1.8-0.3-2.9,0.8-2.9,2.6v6.1h-1.4v-10h1.4V136.4z"/>
			<path class="st1" d="M187.9,144.8v-13.5h1.4v13.5H187.9z"/>
			<path class="st1" d="M198.1,144.8c-0.1,0-0.2,0-0.3,0.1c-1.2,0.1-1.7-0.1-1.8-1.4h0c-0.3,0.9-1.3,1.6-2.2,1.6
				c-2,0-2.6-1.1-2.6-2.9c0-0.4,0.1-1.8,1.4-2.4c0.8-0.4,2.8-1.1,3-1.3c0.3-0.2,0.3-0.6,0.3-1.2c0-1.1-0.4-1.6-1.6-1.6
				c-1.3,0-1.5,0.6-1.5,1.8h-1.3c-0.1-2.1,1-3,3-3c3,0,2.7,2.5,2.7,2.7v5.7c0,0.3,0,0.6,0.3,0.8c0.2,0.1,0.4,0,0.6,0V144.8z
				 M195.8,139.4c-0.7,0.4-1.5,0.7-2.3,1.1c-0.7,0.3-0.9,1-0.9,1.7c0,1,0.3,1.7,1.4,1.7c0.5,0,1.7-0.4,1.7-2V139.4z"/>
			<path class="st1" d="M205.9,136.4L205.9,136.4c0.6-1.3,1.5-1.9,3-1.7v1.4c-1.8-0.3-2.9,0.8-2.9,2.6v6.1h-1.4v-10h1.4V136.4z"/>
			<path class="st1" d="M216.2,141.5c0.1,2-0.9,3.6-3,3.6c-1.9,0-3.2-1.3-3.2-5.3c0-2.1,0.6-5.3,3.2-5.3c3.2,0,3.1,3.1,3.1,5.4h-4.9
				c0,1.4-0.2,3.9,1.8,3.9c1.4,0,1.7-1.3,1.7-2.4H216.2z M214.8,138.7c-0.1-1.2,0-3-1.6-3c-1.7,0-1.7,1.8-1.7,3H214.8z"/>
			<path class="st1" d="M219.4,140.2c0,1.3,0.1,3.6,1.9,3.6c1.5,0,1.7-1.3,1.8-2.6h1.4c-0.1,1.9-0.8,3.8-3,3.8
				c-3.1,0-3.5-2.6-3.5-5.1c0-2.4,0.4-5.4,3.5-5.4c2,0,3,1.6,3,3.4H223c0-1.1-0.3-2.2-1.7-2.2C219.3,135.7,219.4,138.8,219.4,140.2z
				"/>
			<path class="st1" d="M231.4,143.5L231.4,143.5c-0.5,1-1.4,1.6-2.4,1.6c-1.5,0-2.4-0.8-2.4-2.6v-7.7h1.4v7.8
				c0,0.8,0.3,1.3,1.3,1.3c0.7,0,1.3-0.3,1.7-0.9c0.3-0.5,0.4-1.2,0.4-1.8v-6.4h1.4v10h-1.4V143.5z"/>
			<path class="st1" d="M236.9,148.2h-1.4v-13.4h1.4v1.1h0c0.5-0.9,1.3-1.3,2.1-1.4c2.5,0,3.3,2.6,3.3,4.6c0,2.8-0.5,5.9-3.2,5.9
				c-1,0-1.6-0.5-2.1-1.3h0V148.2z M238.8,135.7c-1.9,0-1.9,2.6-1.9,4.1c0,1.4-0.1,4.1,1.9,4.1c1.5,0,1.9-1.5,1.9-4.2
				C240.7,138.3,240.6,135.7,238.8,135.7z"/>
			<path class="st1" d="M250.2,141.5c0.1,2-0.9,3.6-3,3.6c-1.9,0-3.2-1.3-3.2-5.3c0-2.1,0.6-5.3,3.2-5.3c3.2,0,3.1,3.1,3.1,5.4h-4.9
				c0,1.4-0.2,3.9,1.8,3.9c1.4,0,1.7-1.3,1.7-2.4H250.2z M248.8,138.7c-0.1-1.2,0-3-1.6-3c-1.7,0-1.7,1.8-1.7,3H248.8z"/>
			<path class="st1" d="M254,136.4L254,136.4c0.6-1.3,1.5-1.9,3-1.7v1.4c-1.8-0.3-2.9,0.8-2.9,2.6v6.1h-1.4v-10h1.4V136.4z"/>
			<path class="st1" d="M264.7,144.8c-0.1,0-0.2,0-0.3,0.1c-1.2,0.1-1.7-0.1-1.8-1.4h0c-0.3,0.9-1.3,1.6-2.2,1.6
				c-2,0-2.6-1.1-2.6-2.9c0-0.4,0.1-1.8,1.4-2.4c0.8-0.4,2.8-1.1,3-1.3c0.3-0.2,0.3-0.6,0.3-1.2c0-1.1-0.4-1.6-1.6-1.6
				c-1.3,0-1.5,0.6-1.5,1.8h-1.3c-0.1-2.1,1-3,3-3c3,0,2.7,2.5,2.7,2.7v5.7c0,0.3,0,0.6,0.3,0.8c0.2,0.1,0.4,0,0.6,0V144.8z
				 M262.4,139.4c-0.7,0.4-1.5,0.7-2.3,1.1c-0.7,0.3-0.9,1-0.9,1.7c0,1,0.3,1.7,1.4,1.7c0.5,0,1.7-0.4,1.7-2V139.4z"/>
			<path class="st1" d="M267.5,140.2c0,1.3,0.1,3.6,1.9,3.6c1.5,0,1.7-1.3,1.8-2.6h1.4c-0.1,1.9-0.8,3.8-3,3.8
				c-3.1,0-3.5-2.6-3.5-5.1c0-2.4,0.4-5.4,3.5-5.4c2,0,3,1.6,3,3.4h-1.3c0-1.1-0.3-2.2-1.7-2.2C267.4,135.7,267.5,138.8,267.5,140.2
				z"/>
			<path class="st1" d="M274.5,133.1v-1.8h1.4v1.8H274.5z M274.5,144.8v-10h1.4v10H274.5z"/>
			<path class="st1" d="M281.7,145.1c-2.2,0-3.6-1.3-3.6-5.6c0-3,1.1-4.9,3.6-4.9s3.6,1.9,3.6,4.9
				C285.3,143.8,283.9,145.1,281.7,145.1z M281.7,135.7c-1.5,0-2.1,1.2-2.1,4.2c0,2.4,0.5,4,2.1,4c1.7,0,2.1-1.6,2.1-4
				C283.9,136.9,283.2,135.7,281.7,135.7z M282.2,131h2l-2.4,2.5h-1.2L282.2,131z"/>
			<path class="st1" d="M289,135.9L289,135.9c0.7-0.9,1.5-1.4,2.5-1.4c1.5,0,2.5,0.8,2.5,2.6v7.7h-1.4v-7.3c0-1-0.3-1.7-1.5-1.7
				c-0.5,0-1,0.2-1.4,0.6c-0.6,0.5-0.6,1.1-0.6,1.8v6.7h-1.4v-10h1.4V135.9z"/>
			<path class="st1" d="M306,131.3h1.4v13.5h-1.4v-1.3h0c-0.6,1.2-1.2,1.6-2.4,1.6c-3.2,0-2.9-4.4-2.9-5.3c-0.1-2.9,0.9-5.3,3-5.3
				c1,0,1.6,0.4,2.3,1.3h0V131.3z M306,139.6c0-1.4,0-3.9-1.9-3.9c-1.2,0-2,0.9-2,4c0,2.2,0.1,4.1,2,4.1c1.5,0,1.9-1.9,1.9-3V139.6z
				"/>
			<path class="st1" d="M315.9,141.5c0.1,2-0.9,3.6-3,3.6c-1.9,0-3.2-1.3-3.2-5.3c0-2.1,0.6-5.3,3.2-5.3c3.2,0,3.1,3.1,3.1,5.4h-4.9
				c0,1.4-0.2,3.9,1.8,3.9c1.4,0,1.7-1.3,1.7-2.4H315.9z M314.5,138.7c-0.1-1.2,0-3-1.6-3c-1.7,0-1.7,1.8-1.7,3H314.5z"/>
			<path class="st1" d="M322.6,144.8v-13.5h1.4v13.5H322.6z"/>
			<path class="st1" d="M329.9,145.1c-2.2,0-3.6-1.3-3.6-5.6c0-3,1.1-4.9,3.6-4.9s3.6,1.9,3.6,4.9
				C333.4,143.8,332.1,145.1,329.9,145.1z M329.9,135.7c-1.5,0-2.1,1.2-2.1,4.2c0,2.4,0.5,4,2.1,4c1.7,0,2.1-1.6,2.1-4
				C332,136.9,331.4,135.7,329.9,135.7z"/>
			<path class="st1" d="M339.8,137.5c0.1-1.2-0.4-1.7-1.6-1.7c-1,0-1.6,0.5-1.6,1.5c0,1.3,1.1,1.5,2,1.9c1.4,0.6,2.9,1,2.9,2.9
				c0,1.9-1.3,3.1-3.4,3.1c-0.9,0-2-0.3-2.5-1c-0.6-0.8-0.6-1.5-0.6-2.1h1.4c-0.1,1.2,0.4,2,1.7,2c1.2,0,1.9-0.5,1.9-1.7
				c0-1.4-1.4-1.5-2.5-2c-1.5-0.6-2.4-1.1-2.4-2.8c0-1.7,1.2-2.8,2.9-2.8c2,0,3.1,0.9,3.1,3H339.8z"/>
			<path class="st1" d="M114.2,158.2c0,1.3,0.1,3.6,1.9,3.6c1.5,0,1.7-1.3,1.8-2.6h1.4c-0.1,1.9-0.8,3.8-3,3.8
				c-3.1,0-3.5-2.6-3.5-5.1c0-2.4,0.4-5.4,3.5-5.4c2,0,3,1.6,3,3.4h-1.3c0-1.1-0.3-2.2-1.7-2.2C114.1,153.7,114.2,156.8,114.2,158.2
				z"/>
			<path class="st1" d="M124.4,163.1c-2.2,0-3.6-1.3-3.6-5.6c0-3,1.1-4.9,3.6-4.9s3.6,1.9,3.6,4.9
				C128,161.8,126.6,163.1,124.4,163.1z M124.4,153.7c-1.5,0-2.1,1.2-2.1,4.2c0,2.4,0.5,4,2.1,4c1.7,0,2.1-1.6,2.1-4
				C126.6,154.9,125.9,153.7,124.4,153.7z"/>
			<path class="st1" d="M131.7,153.9L131.7,153.9c0.7-0.9,1.5-1.4,2.5-1.4c1.5,0,2.5,0.8,2.5,2.6v7.7h-1.4v-7.3c0-1-0.3-1.7-1.5-1.7
				c-0.5,0-1,0.2-1.4,0.6c-0.6,0.5-0.6,1.1-0.6,1.8v6.7h-1.4v-10h1.4V153.9z"/>
			<path class="st1" d="M142.5,163.1c-2.2,0-3.6-1.3-3.6-5.6c0-3,1.1-4.9,3.6-4.9s3.6,1.9,3.6,4.9
				C146.1,161.8,144.7,163.1,142.5,163.1z M142.5,153.7c-1.5,0-2.1,1.2-2.1,4.2c0,2.4,0.5,4,2.1,4c1.7,0,2.1-1.6,2.1-4
				C144.6,154.9,144,153.7,142.5,153.7z"/>
			<path class="st1" d="M149.3,158.2c0,1.3,0.1,3.6,1.9,3.6c1.5,0,1.7-1.3,1.8-2.6h1.4c-0.1,1.9-0.8,3.8-3,3.8
				c-3.1,0-3.5-2.6-3.5-5.1c0-2.4,0.4-5.4,3.5-5.4c2,0,3,1.6,3,3.4h-1.3c0-1.1-0.3-2.2-1.7-2.2C149.2,153.7,149.3,156.8,149.3,158.2
				z"/>
			<path class="st1" d="M156.3,151.1v-1.8h1.4v1.8H156.3z M156.3,162.8v-10h1.4v10H156.3z"/>
			<path class="st1" d="M161.8,162.8h-1.4v-10h1.4v1.3h0c0.5-0.8,1.3-1.5,2.4-1.5c1.1,0,1.9,0.6,2.4,1.6c0.7-1,1.4-1.6,2.7-1.6
				c0.7,0,1.3,0.2,1.8,0.7c0.6,0.6,0.6,1.7,0.6,2.3v7.2h-1.4v-7.3c0-1.1-0.3-1.7-1.5-1.7c-0.5,0-1,0.2-1.3,0.6
				c-0.6,0.5-0.6,1.1-0.6,1.8v6.7h-1.4v-7.3c0-1-0.3-1.7-1.5-1.7c-0.5,0-1,0.2-1.4,0.6c-0.6,0.5-0.6,1.1-0.6,1.8V162.8z"/>
			<path class="st1" d="M174.3,151.1v-1.8h1.4v1.8H174.3z M174.3,162.8v-10h1.4v10H174.3z"/>
			<path class="st1" d="M184.1,159.5c0.1,2-0.9,3.6-3,3.6c-1.9,0-3.2-1.3-3.2-5.3c0-2.1,0.6-5.3,3.2-5.3c3.2,0,3.1,3.1,3.1,5.4h-4.9
				c0,1.4-0.2,3.9,1.8,3.9c1.4,0,1.7-1.3,1.7-2.4H184.1z M182.7,156.7c-0.1-1.2,0-3-1.6-3c-1.7,0-1.7,1.8-1.7,3H182.7z"/>
			<path class="st1" d="M187.8,153.9L187.8,153.9c0.7-0.9,1.5-1.4,2.5-1.4c1.5,0,2.5,0.8,2.5,2.6v7.7h-1.4v-7.3c0-1-0.3-1.7-1.5-1.7
				c-0.5,0-1,0.2-1.4,0.6c-0.6,0.5-0.6,1.1-0.6,1.8v6.7h-1.4v-10h1.4V153.9z"/>
			<path class="st1" d="M197,152.8h1.7v1.2h-1.7v6.8c0,0.3-0.1,0.8,0.7,0.8h1v1.2h-1.6c-0.8,0-1.5-0.1-1.5-1.6V154h-1.4v-1.2h1.4
				v-2.7h1.4V152.8z"/>
			<path class="st1" d="M203.6,163.1c-2.2,0-3.6-1.3-3.6-5.6c0-3,1.1-4.9,3.6-4.9s3.6,1.9,3.6,4.9
				C207.2,161.8,205.8,163.1,203.6,163.1z M203.6,153.7c-1.5,0-2.1,1.2-2.1,4.2c0,2.4,0.5,4,2.1,4c1.7,0,2.1-1.6,2.1-4
				C205.7,154.9,205.1,153.7,203.6,153.7z"/>
			<path class="st1" d="M213.6,155.5c0.1-1.2-0.4-1.7-1.6-1.7c-1,0-1.6,0.5-1.6,1.5c0,1.3,1.1,1.5,2,1.9c1.4,0.6,2.9,1,2.9,2.9
				c0,1.9-1.3,3.1-3.4,3.1c-0.9,0-2-0.3-2.5-1c-0.6-0.8-0.6-1.5-0.6-2.1h1.4c-0.1,1.2,0.4,2,1.7,2c1.2,0,1.9-0.5,1.9-1.7
				c0-1.4-1.4-1.5-2.5-2c-1.5-0.6-2.4-1.1-2.4-2.8c0-1.7,1.2-2.8,2.9-2.8c2,0,3.1,0.9,3.1,3H213.6z"/>
			<path class="st1" d="M220.7,152.8h1.5l2.3,8.7h0l2.3-8.7h1.5l-3,9.6c-0.2,0.6-0.6,2.1-0.9,2.6c-0.5,0.9-1.2,1.3-2.3,1.3
				c-0.3,0-0.7-0.1-1-0.2v-1.3c0.3,0.1,0.7,0.2,1.1,0.2c1.3,0,1.4-1,1.8-2L220.7,152.8z"/>
			<path class="st1" d="M238.6,155.5c0.1-1.2-0.4-1.7-1.6-1.7c-1,0-1.6,0.5-1.6,1.5c0,1.3,1.1,1.5,2,1.9c1.4,0.6,2.9,1,2.9,2.9
				c0,1.9-1.3,3.1-3.4,3.1c-0.9,0-2-0.3-2.5-1c-0.6-0.8-0.6-1.5-0.6-2.1h1.4c-0.1,1.2,0.4,2,1.7,2c1.2,0,1.9-0.5,1.9-1.7
				c0-1.4-1.4-1.5-2.5-2c-1.5-0.6-2.4-1.1-2.4-2.8c0-1.7,1.2-2.8,2.9-2.8c2,0,3.1,0.9,3.1,3H238.6z"/>
			<path class="st1" d="M248.7,162.8c-0.1,0-0.2,0-0.3,0.1c-1.2,0.1-1.7-0.1-1.8-1.4h0c-0.3,0.9-1.3,1.6-2.2,1.6
				c-2,0-2.6-1.1-2.6-2.9c0-0.4,0.1-1.8,1.4-2.4c0.8-0.4,2.8-1.1,3-1.3c0.3-0.2,0.3-0.6,0.3-1.2c0-1.1-0.4-1.6-1.6-1.6
				c-1.3,0-1.5,0.6-1.5,1.8h-1.3c-0.1-2.1,1-3,3-3c3,0,2.7,2.5,2.7,2.7v5.7c0,0.3,0,0.6,0.3,0.8c0.2,0.1,0.4,0,0.6,0V162.8z
				 M246.4,157.4c-0.7,0.4-1.5,0.7-2.3,1.1c-0.7,0.3-0.9,1-0.9,1.7c0,1,0.3,1.7,1.4,1.7c0.5,0,1.7-0.4,1.7-2V157.4z"/>
			<path class="st1" d="M251.8,162.8h-1.3v-13.5h1.4v4.5h0c0.6-0.9,1.2-1.3,2.1-1.3c2.5,0,3.2,2.6,3.2,4.6c0,2.8-0.4,5.9-3.1,5.9
				c-0.9,0-1.7-0.3-2.3-1.5h0V162.8z M253.9,161.8c1.5,0,1.9-1.5,1.9-4.2c0-1.3-0.1-3.9-1.9-3.9c-2.1,0-2,2.9-2,4.3
				C251.9,159.5,251.9,161.8,253.9,161.8z"/>
			<path class="st1" d="M265.3,159.5c0.1,2-0.9,3.6-3,3.6c-1.9,0-3.2-1.3-3.2-5.3c0-2.1,0.6-5.3,3.2-5.3c3.2,0,3.1,3.1,3.1,5.4h-4.9
				c0,1.4-0.2,3.9,1.8,3.9c1.4,0,1.7-1.3,1.7-2.4H265.3z M263.9,156.7c-0.1-1.2,0-3-1.6-3c-1.7,0-1.7,1.8-1.7,3H263.9z"/>
			<path class="st1" d="M269.1,154.4L269.1,154.4c0.6-1.3,1.5-1.9,3-1.7v1.4c-1.8-0.3-2.9,0.8-2.9,2.6v6.1h-1.4v-10h1.4V154.4z"/>
			<path class="st1" d="M279.3,159.5c0.1,2-0.9,3.6-3,3.6c-1.9,0-3.2-1.3-3.2-5.3c0-2.1,0.6-5.3,3.2-5.3c3.2,0,3.1,3.1,3.1,5.4h-4.9
				c0,1.4-0.2,3.9,1.8,3.9c1.4,0,1.7-1.3,1.7-2.4H279.3z M277.9,156.7c-0.1-1.2,0-3-1.6-3c-1.7,0-1.7,1.8-1.7,3H277.9z"/>
			<path class="st1" d="M285.7,155.5c0.1-1.2-0.4-1.7-1.6-1.7c-1,0-1.6,0.5-1.6,1.5c0,1.3,1.1,1.5,2,1.9c1.4,0.6,2.9,1,2.9,2.9
				c0,1.9-1.3,3.1-3.4,3.1c-0.9,0-2-0.3-2.5-1c-0.6-0.8-0.6-1.5-0.6-2.1h1.4c-0.1,1.2,0.4,2,1.7,2c1.2,0,1.9-0.5,1.9-1.7
				c0-1.4-1.4-1.5-2.5-2c-1.5-0.6-2.4-1.1-2.4-2.8c0-1.7,1.2-2.8,2.9-2.8c2,0,3.1,0.9,3.1,3H285.7z"/>
			<path class="st1" d="M295.5,166.2h-1.4v-13.4h1.4v1.1h0c0.5-0.9,1.3-1.3,2.1-1.4c2.5,0,3.3,2.6,3.3,4.6c0,2.8-0.5,5.9-3.2,5.9
				c-1,0-1.6-0.5-2.1-1.3h0V166.2z M297.4,153.7c-1.9,0-1.9,2.6-1.9,4.1c0,1.4-0.1,4.1,1.9,4.1c1.5,0,1.9-1.5,1.9-4.2
				C299.3,156.3,299.2,153.7,297.4,153.7z"/>
			<path class="st1" d="M304.6,154.4L304.6,154.4c0.6-1.3,1.5-1.9,3-1.7v1.4c-1.8-0.3-2.9,0.8-2.9,2.6v6.1h-1.4v-10h1.4V154.4z"/>
			<path class="st1" d="M314.8,159.5c0.1,2-0.9,3.6-3,3.6c-1.9,0-3.2-1.3-3.2-5.3c0-2.1,0.6-5.3,3.2-5.3c3.2,0,3.1,3.1,3.1,5.4h-4.9
				c0,1.4-0.2,3.9,1.8,3.9c1.4,0,1.7-1.3,1.7-2.4H314.8z M313.4,156.7c-0.1-1.2,0-3-1.6-3c-1.7,0-1.7,1.8-1.7,3H313.4z"/>
			<path class="st1" d="M316.1,152.8h1.5l2.3,8.8h0l2.3-8.8h1.5l-3,10H319L316.1,152.8z"/>
			<path class="st1" d="M325.1,151.1v-1.8h1.4v1.8H325.1z M325.1,162.8v-10h1.4v10H325.1z"/>
			<path class="st1" d="M332.3,163.1c-2.2,0-3.6-1.3-3.6-5.6c0-3,1.1-4.9,3.6-4.9s3.6,1.9,3.6,4.9
				C335.9,161.8,334.5,163.1,332.3,163.1z M332.3,153.7c-1.5,0-2.1,1.2-2.1,4.2c0,2.4,0.5,4,2.1,4c1.7,0,2.1-1.6,2.1-4
				C334.4,154.9,333.8,153.7,332.3,153.7z"/>
			<path class="st1" d="M342.3,155.5c0.1-1.2-0.4-1.7-1.6-1.7c-1,0-1.6,0.5-1.6,1.5c0,1.3,1.1,1.5,2,1.9c1.4,0.6,2.9,1,2.9,2.9
				c0,1.9-1.3,3.1-3.4,3.1c-0.9,0-2-0.3-2.5-1c-0.6-0.8-0.6-1.5-0.6-2.1h1.4c-0.1,1.2,0.4,2,1.7,2c1.2,0,1.9-0.5,1.9-1.7
				c0-1.4-1.4-1.5-2.5-2c-1.5-0.6-2.4-1.1-2.4-2.8c0-1.7,1.2-2.8,2.9-2.8c2,0,3.1,0.9,3.1,3H342.3z"/>
		</g>
	</g>
	<g>
		<g>
			<path class="st1" d="M113.5,237.1v-13.5h3.5c1,0,2.4,0.1,3.2,0.9c0.8,0.8,1.1,1.8,1.1,2.9c0,1.5-0.5,3-1.9,3.6
				c-0.9,0.4-2.5,0.4-3.5,0.4H115v5.7H113.5z M115,230h1.5c2.1,0,3.3-0.3,3.3-2.6c0-2.2-1.4-2.5-3.2-2.4H115V230z"/>
			<path class="st1" d="M124.8,228.7L124.8,228.7c0.6-1.3,1.5-1.9,3-1.7v1.4c-1.8-0.3-2.9,0.8-2.9,2.6v6.1h-1.4v-10h1.4V228.7z"/>
			<path class="st1" d="M132.5,237.3c-2.2,0-3.6-1.3-3.6-5.6c0-3,1.1-4.9,3.6-4.9s3.6,1.9,3.6,4.9
				C136.1,236.1,134.7,237.3,132.5,237.3z M132.5,228c-1.5,0-2.1,1.2-2.1,4.2c0,2.4,0.5,4,2.1,4c1.7,0,2.1-1.6,2.1-4
				C134.6,229.1,134,228,132.5,228z"/>
			<path class="st1" d="M139.7,240.5h-1.4v-13.4h1.4v1.1h0c0.5-0.9,1.3-1.3,2.1-1.4c2.5,0,3.3,2.6,3.3,4.6c0,2.8-0.5,5.9-3.2,5.9
				c-1,0-1.6-0.5-2.1-1.3h0V240.5z M141.6,228c-1.9,0-1.9,2.6-1.9,4.1c0,1.4-0.1,4.1,1.9,4.1c1.5,0,1.9-1.5,1.9-4.2
				C143.6,230.6,143.4,228,141.6,228z"/>
			<path class="st1" d="M147.3,225.4v-1.8h1.4v1.8H147.3z M147.3,237.1v-10h1.4v10H147.3z"/>
			<path class="st1" d="M152.3,232.5c0,1.3,0.1,3.6,1.9,3.6c1.5,0,1.7-1.3,1.8-2.6h1.3c-0.1,1.9-0.8,3.8-3,3.8
				c-3.1,0-3.5-2.6-3.5-5.2c0-2.4,0.4-5.4,3.5-5.4c2,0,3,1.6,3,3.4h-1.3c0-1.1-0.3-2.2-1.7-2.2C152.2,228,152.3,231.1,152.3,232.5z"
				/>
			<path class="st1" d="M159.3,225.4v-1.8h1.4v1.8H159.3z M159.3,237.1v-10h1.4v10H159.3z"/>
			<path class="st1" d="M169.6,237.1c-0.1,0-0.2,0-0.3,0.1c-1.2,0.1-1.7-0.1-1.8-1.4h0c-0.3,0.9-1.3,1.6-2.2,1.6
				c-2,0-2.6-1.1-2.6-2.9c0-0.4,0.1-1.8,1.4-2.4c0.8-0.4,2.8-1.1,3-1.3c0.3-0.2,0.3-0.6,0.3-1.2c0-1.1-0.4-1.6-1.6-1.6
				c-1.3,0-1.5,0.6-1.5,1.8H163c-0.1-2.1,1-3,3-3c3,0,2.7,2.5,2.7,2.7v5.7c0,0.3,0,0.6,0.3,0.8c0.2,0.1,0.4,0,0.6,0V237.1z
				 M167.2,231.7c-0.7,0.4-1.5,0.7-2.3,1.1c-0.7,0.3-0.9,1-0.9,1.7c0,1,0.3,1.7,1.4,1.7c0.5,0,1.7-0.4,1.7-2V231.7z"/>
			<path class="st1" d="M172.9,228.7L172.9,228.7c0.6-1.3,1.5-1.9,3-1.7v1.4c-1.8-0.3-2.9,0.8-2.9,2.6v6.1h-1.4v-10h1.4V228.7z"/>
			<path class="st1" d="M181.9,237.1v-13.5h1.4v13.5H181.9z"/>
			<path class="st1" d="M192.1,237.1c-0.1,0-0.2,0-0.3,0.1c-1.2,0.1-1.7-0.1-1.8-1.4h0c-0.3,0.9-1.3,1.6-2.2,1.6
				c-2,0-2.6-1.1-2.6-2.9c0-0.4,0.1-1.8,1.4-2.4c0.8-0.4,2.8-1.1,3-1.3c0.3-0.2,0.3-0.6,0.3-1.2c0-1.1-0.4-1.6-1.6-1.6
				c-1.3,0-1.5,0.6-1.5,1.8h-1.3c-0.1-2.1,1-3,3-3c3,0,2.7,2.5,2.7,2.7v5.7c0,0.3,0,0.6,0.3,0.8c0.2,0.1,0.4,0,0.6,0V237.1z
				 M189.8,231.7c-0.7,0.4-1.5,0.7-2.3,1.1c-0.7,0.3-0.9,1-0.9,1.7c0,1,0.3,1.7,1.4,1.7c0.5,0,1.7-0.4,1.7-2V231.7z"/>
			<path class="st1" d="M199.8,237.1h-1.3v-13.5h1.4v4.5h0c0.6-0.9,1.2-1.3,2.1-1.3c2.5,0,3.2,2.6,3.2,4.6c0,2.8-0.4,5.9-3.1,5.9
				c-0.9,0-1.7-0.3-2.3-1.5h0V237.1z M201.8,236.1c1.5,0,1.9-1.5,1.9-4.2c0-1.3-0.1-3.9-1.9-3.9c-2.1,0-2,2.9-2,4.3
				C199.8,233.8,199.8,236.1,201.8,236.1z"/>
			<path class="st1" d="M212.4,235.8L212.4,235.8c-0.5,1-1.4,1.6-2.4,1.6c-1.5,0-2.4-0.8-2.4-2.6v-7.7h1.4v7.8
				c0,0.8,0.3,1.3,1.3,1.3c0.7,0,1.3-0.3,1.7-0.9c0.3-0.5,0.4-1.2,0.4-1.8v-6.4h1.4v10h-1.4V235.8z M211.1,223.3h2l-2.4,2.5h-1.2
				L211.1,223.3z"/>
			<path class="st1" d="M220.6,229.7c0.1-1.2-0.4-1.7-1.6-1.7c-1,0-1.6,0.5-1.6,1.5c0,1.3,1.1,1.5,2,1.9c1.4,0.6,2.9,1,2.9,2.9
				c0,1.9-1.3,3.1-3.4,3.1c-0.9,0-2-0.3-2.5-1c-0.6-0.8-0.6-1.5-0.6-2.1h1.4c-0.1,1.2,0.4,2,1.7,2c1.2,0,1.9-0.5,1.9-1.7
				c0-1.4-1.4-1.5-2.5-2c-1.5-0.6-2.4-1.1-2.4-2.8c0-1.7,1.2-2.8,2.9-2.8c2,0,3.1,0.9,3.1,3H220.6z"/>
			<path class="st1" d="M229.5,227.1h1.4v13.3h-1.4V236h0c-0.6,0.9-1.2,1.4-2.1,1.4c-2.1,0-2.9-1.6-3.1-5.1c-0.1-2.3,0.6-5.4,3-5.4
				c0.9,0,1.7,0.4,2.3,1.3h0V227.1z M227.5,236.1c1.9,0,1.9-2.7,1.9-4.1c0-1.4,0.1-4-1.9-4c-1.9,0-2,2.6-1.9,4.5
				C225.7,234.4,226,236.1,227.5,236.1z"/>
			<path class="st1" d="M238.4,235.8L238.4,235.8c-0.5,1-1.4,1.6-2.4,1.6c-1.5,0-2.4-0.8-2.4-2.6v-7.7h1.4v7.8
				c0,0.8,0.3,1.3,1.3,1.3c0.7,0,1.3-0.3,1.7-0.9c0.3-0.5,0.4-1.2,0.4-1.8v-6.4h1.4v10h-1.4V235.8z"/>
			<path class="st1" d="M248.2,233.7c0.1,2-0.9,3.6-3,3.6c-1.9,0-3.2-1.3-3.2-5.3c0-2.1,0.6-5.3,3.2-5.3c3.2,0,3.1,3.1,3.1,5.4h-4.9
				c0,1.4-0.2,3.9,1.8,3.9c1.4,0,1.7-1.3,1.7-2.4H248.2z M246.8,231c-0.1-1.2,0-3-1.6-3c-1.7,0-1.7,1.8-1.7,3H246.8z"/>
			<path class="st1" d="M255.4,223.6h1.4v13.5h-1.4v-1.3h0c-0.6,1.2-1.2,1.6-2.4,1.6c-3.2,0-2.9-4.4-2.9-5.3c-0.1-2.9,0.9-5.3,3-5.3
				c1,0,1.6,0.4,2.3,1.3h0V223.6z M255.4,231.9c0-1.4,0-3.9-1.9-3.9c-1.2,0-2,0.9-2,4c0,2.2,0.1,4.1,2,4.1c1.5,0,1.9-1.9,1.9-3
				V231.9z"/>
			<path class="st1" d="M265.7,237.1c-0.1,0-0.2,0-0.3,0.1c-1.2,0.1-1.7-0.1-1.8-1.4h0c-0.3,0.9-1.3,1.6-2.2,1.6
				c-2,0-2.6-1.1-2.6-2.9c0-0.4,0.1-1.8,1.4-2.4c0.8-0.4,2.8-1.1,3-1.3c0.3-0.2,0.3-0.6,0.3-1.2c0-1.1-0.4-1.6-1.6-1.6
				c-1.3,0-1.5,0.6-1.5,1.8h-1.3c-0.1-2.1,1-3,3-3c3,0,2.7,2.5,2.7,2.7v5.7c0,0.3,0,0.6,0.3,0.8c0.2,0.1,0.4,0,0.6,0V237.1z
				 M263.4,231.7c-0.7,0.4-1.5,0.7-2.2,1.1c-0.7,0.3-0.9,1-0.9,1.7c0,1,0.3,1.7,1.4,1.7c0.5,0,1.7-0.4,1.7-2V231.7z"/>
			<path class="st1" d="M270.9,227.1h1.5l2.2,8.7h0l2.3-8.7h1.5l-3,9.6c-0.2,0.6-0.6,2.1-0.9,2.6c-0.5,0.9-1.2,1.3-2.3,1.3
				c-0.3,0-0.7-0.1-1-0.2v-1.3c0.3,0.1,0.7,0.2,1.1,0.2c1.3,0,1.4-1,1.8-2L270.9,227.1z"/>
			<path class="st1" d="M286.1,228.7L286.1,228.7c0.6-1.3,1.5-1.9,3-1.7v1.4c-1.8-0.3-2.9,0.8-2.9,2.6v6.1h-1.4v-10h1.4V228.7z"/>
			<path class="st1" d="M296.3,233.7c0.1,2-0.9,3.6-3,3.6c-1.9,0-3.2-1.3-3.2-5.3c0-2.1,0.6-5.3,3.2-5.3c3.2,0,3.1,3.1,3.1,5.4h-4.9
				c0,1.4-0.2,3.9,1.8,3.9c1.4,0,1.7-1.3,1.7-2.4H296.3z M294.9,231c-0.1-1.2,0-3-1.6-3c-1.7,0-1.7,1.8-1.7,3H294.9z"/>
			<path class="st1" d="M299.6,232.5c0,1.3,0.1,3.6,1.9,3.6c1.5,0,1.7-1.3,1.8-2.6h1.4c-0.1,1.9-0.8,3.8-3,3.8
				c-3.1,0-3.5-2.6-3.5-5.2c0-2.4,0.4-5.4,3.5-5.4c2,0,3,1.6,3,3.4h-1.3c0-1.1-0.3-2.2-1.7-2.2C299.5,228,299.6,231.1,299.6,232.5z"
				/>
			<path class="st1" d="M312.4,233.7c0.1,2-0.9,3.6-3,3.6c-1.9,0-3.2-1.3-3.2-5.3c0-2.1,0.6-5.3,3.2-5.3c3.2,0,3.1,3.1,3.1,5.4h-4.9
				c0,1.4-0.2,3.9,1.8,3.9c1.4,0,1.7-1.3,1.7-2.4H312.4z M311,231c-0.1-1.2,0-3-1.6-3s-1.7,1.8-1.7,3H311z"/>
			<path class="st1" d="M316.1,240.5h-1.4v-13.4h1.4v1.1h0c0.5-0.9,1.3-1.3,2.1-1.4c2.5,0,3.3,2.6,3.3,4.6c0,2.8-0.5,5.9-3.2,5.9
				c-1,0-1.6-0.5-2.1-1.3h0V240.5z M317.9,228c-1.9,0-1.9,2.6-1.9,4.1c0,1.4-0.1,4.1,1.9,4.1c1.5,0,1.9-1.5,1.9-4.2
				C319.9,230.6,319.8,228,317.9,228z"/>
			<path class="st1" d="M324.6,232.5c0,1.3,0.1,3.6,1.9,3.6c1.5,0,1.7-1.3,1.8-2.6h1.4c-0.1,1.9-0.8,3.8-3,3.8
				c-3.1,0-3.5-2.6-3.5-5.2c0-2.4,0.4-5.4,3.5-5.4c2,0,3,1.6,3,3.4h-1.3c0-1.1-0.3-2.2-1.7-2.2C324.5,228,324.6,231.1,324.6,232.5z"
				/>
			<path class="st1" d="M331.7,225.4v-1.8h1.4v1.8H331.7z M331.7,237.1v-10h1.4v10H331.7z"/>
			<path class="st1" d="M338.9,237.3c-2.2,0-3.6-1.3-3.6-5.6c0-3,1.1-4.9,3.6-4.9s3.6,1.9,3.6,4.9
				C342.5,236.1,341.1,237.3,338.9,237.3z M338.9,228c-1.5,0-2.1,1.2-2.1,4.2c0,2.4,0.5,4,2.1,4c1.7,0,2.1-1.6,2.1-4
				C341,229.1,340.4,228,338.9,228z M339.3,223.3h2l-2.4,2.5h-1.2L339.3,223.3z"/>
			<path class="st1" d="M346.1,228.2L346.1,228.2c0.7-0.9,1.5-1.4,2.5-1.4c1.5,0,2.5,0.8,2.5,2.6v7.7h-1.4v-7.3c0-1-0.3-1.7-1.5-1.7
				c-0.5,0-1,0.2-1.4,0.6c-0.6,0.5-0.6,1.1-0.6,1.8v6.7h-1.4v-10h1.4V228.2z"/>
			<path class="st1" d="M118.1,241.6h1.4v13.5h-1.4v-1.3h0c-0.6,1.2-1.2,1.6-2.4,1.6c-3.2,0-2.9-4.4-2.9-5.3c-0.1-2.9,0.9-5.3,3-5.3
				c1,0,1.6,0.4,2.3,1.3h0V241.6z M118.1,249.9c0-1.4,0-3.9-1.9-3.9c-1.2,0-2,0.9-2,4c0,2.2,0.1,4.1,2,4.1c1.5,0,1.9-1.9,1.9-3
				V249.9z"/>
			<path class="st1" d="M128,251.7c0.1,2-0.9,3.6-3,3.6c-1.9,0-3.2-1.3-3.2-5.3c0-2.1,0.6-5.3,3.2-5.3c3.2,0,3.1,3.1,3.1,5.4h-4.9
				c0,1.4-0.2,3.9,1.8,3.9c1.4,0,1.7-1.3,1.7-2.4H128z M126.6,249c-0.1-1.2,0-3-1.6-3c-1.7,0-1.7,1.8-1.7,3H126.6z"/>
			<path class="st1" d="M134.8,255.1v-13.5h1.4v13.5H134.8z"/>
			<path class="st1" d="M145,255.1c-0.1,0-0.2,0-0.3,0.1c-1.2,0.1-1.7-0.1-1.8-1.4h0c-0.3,0.9-1.3,1.6-2.2,1.6c-2,0-2.6-1.1-2.6-2.9
				c0-0.4,0.1-1.8,1.4-2.4c0.8-0.4,2.8-1.1,3-1.3c0.3-0.2,0.3-0.6,0.3-1.2c0-1.1-0.4-1.6-1.6-1.6c-1.3,0-1.5,0.6-1.5,1.8h-1.3
				c-0.1-2.1,1-3,3-3c3,0,2.7,2.5,2.7,2.7v5.7c0,0.3,0,0.6,0.3,0.8c0.2,0.1,0.4,0,0.6,0V255.1z M142.7,249.7
				c-0.7,0.4-1.5,0.7-2.2,1.1c-0.7,0.3-0.9,1-0.9,1.7c0,1,0.3,1.7,1.4,1.7c0.5,0,1.7-0.4,1.7-2V249.7z"/>
			<path class="st1" d="M151.3,243.4v-1.8h1.4v1.8H151.3z M151.3,255.1v-10h1.4v10H151.3z"/>
			<path class="st1" d="M156.7,246.2L156.7,246.2c0.7-0.9,1.5-1.4,2.5-1.4c1.5,0,2.5,0.8,2.5,2.6v7.7h-1.4v-7.3c0-1-0.3-1.7-1.5-1.7
				c-0.5,0-1,0.2-1.4,0.6c-0.6,0.5-0.6,1.1-0.6,1.8v6.7h-1.4v-10h1.4V246.2z"/>
			<path class="st1" d="M164.7,246.3h-1.5v-1.2h1.4v-0.8c0-0.6,0-1.4,0.4-1.9c0.5-0.7,1.3-0.8,2.6-0.7v1.2c-1.2-0.1-1.6,0-1.6,1.2
				v1.1h1.6v1.2h-1.6v8.8h-1.4V246.3z"/>
			<path class="st1" d="M172.6,255.3c-2.2,0-3.6-1.3-3.6-5.6c0-3,1.1-4.9,3.6-4.9s3.6,1.9,3.6,4.9
				C176.2,254.1,174.8,255.3,172.6,255.3z M172.6,246c-1.5,0-2.1,1.2-2.1,4.2c0,2.4,0.5,4,2.1,4c1.7,0,2.1-1.6,2.1-4
				C174.7,247.1,174.1,246,172.6,246z"/>
			<path class="st1" d="M179.9,246.7L179.9,246.7c0.6-1.3,1.5-1.9,3-1.7v1.4c-1.8-0.3-2.9,0.8-2.9,2.6v6.1h-1.4v-10h1.4V246.7z"/>
			<path class="st1" d="M185.9,255.1h-1.4v-10h1.4v1.3h0c0.5-0.8,1.3-1.5,2.4-1.5c1.1,0,1.9,0.6,2.4,1.6c0.7-1,1.4-1.6,2.7-1.6
				c0.7,0,1.3,0.2,1.8,0.7c0.6,0.6,0.6,1.7,0.6,2.3v7.2h-1.4v-7.3c0-1.1-0.3-1.7-1.5-1.7c-0.5,0-1,0.2-1.3,0.6
				c-0.6,0.5-0.6,1.1-0.6,1.8v6.7h-1.4v-7.3c0-1-0.3-1.7-1.5-1.7c-0.5,0-1,0.2-1.4,0.6c-0.6,0.5-0.6,1.1-0.6,1.8V255.1z"/>
			<path class="st1" d="M204.6,255.1c-0.1,0-0.2,0-0.3,0.1c-1.2,0.1-1.7-0.1-1.8-1.4h0c-0.3,0.9-1.3,1.6-2.2,1.6
				c-2,0-2.6-1.1-2.6-2.9c0-0.4,0.1-1.8,1.4-2.4c0.8-0.4,2.8-1.1,3-1.3c0.3-0.2,0.3-0.6,0.3-1.2c0-1.1-0.4-1.6-1.6-1.6
				c-1.3,0-1.5,0.6-1.5,1.8h-1.3c-0.1-2.1,1-3,3-3c3,0,2.7,2.5,2.7,2.7v5.7c0,0.3,0,0.6,0.3,0.8c0.2,0.1,0.4,0,0.6,0V255.1z
				 M202.3,249.7c-0.7,0.4-1.5,0.7-2.3,1.1c-0.7,0.3-0.9,1-0.9,1.7c0,1,0.3,1.7,1.4,1.7c0.5,0,1.7-0.4,1.7-2V249.7z"/>
			<path class="st1" d="M207.4,250.5c0,1.3,0.1,3.6,1.9,3.6c1.5,0,1.7-1.3,1.8-2.6h1.3c-0.1,1.9-0.8,3.8-3,3.8
				c-3.1,0-3.5-2.6-3.5-5.2c0-2.4,0.4-5.4,3.5-5.4c2,0,3,1.6,3,3.4H211c0-1.1-0.3-2.2-1.7-2.2C207.3,246,207.4,249.1,207.4,250.5z"
				/>
			<path class="st1" d="M214.4,243.4v-1.8h1.4v1.8H214.4z M214.4,255.1v-10h1.4v10H214.4z"/>
			<path class="st1" d="M221.7,255.3c-2.2,0-3.6-1.3-3.6-5.6c0-3,1.1-4.9,3.6-4.9s3.6,1.9,3.6,4.9
				C225.2,254.1,223.9,255.3,221.7,255.3z M221.7,246c-1.5,0-2.1,1.2-2.1,4.2c0,2.4,0.5,4,2.1,4c1.7,0,2.1-1.6,2.1-4
				C223.8,247.1,223.2,246,221.7,246z M222.1,241.3h2l-2.4,2.5h-1.2L222.1,241.3z"/>
			<path class="st1" d="M228.9,246.2L228.9,246.2c0.7-0.9,1.5-1.4,2.5-1.4c1.5,0,2.5,0.8,2.5,2.6v7.7h-1.4v-7.3c0-1-0.3-1.7-1.5-1.7
				c-0.5,0-1,0.2-1.4,0.6c-0.6,0.5-0.6,1.1-0.6,1.8v6.7h-1.4v-10h1.4V246.2z"/>
		</g>
	</g>
	<g>
		<g>
			<path class="st1" d="M113.5,414.6v-13.5h3.5c1,0,2.4,0.1,3.2,0.9c0.8,0.8,1.1,1.8,1.1,2.9c0,1.5-0.5,3-1.9,3.6
				c-0.9,0.4-2.5,0.4-3.5,0.4H115v5.7H113.5z M115,407.6h1.5c2.1,0,3.3-0.3,3.3-2.6c0-2.2-1.4-2.5-3.2-2.4H115V407.6z"/>
			<path class="st1" d="M124.8,406.3L124.8,406.3c0.6-1.3,1.5-1.9,3-1.7v1.4c-1.8-0.3-2.9,0.8-2.9,2.6v6.1h-1.4v-10h1.4V406.3z"/>
			<path class="st1" d="M132.5,414.9c-2.2,0-3.6-1.3-3.6-5.6c0-3,1.1-4.9,3.6-4.9s3.6,1.9,3.6,4.9
				C136.1,413.6,134.7,414.9,132.5,414.9z M132.5,405.6c-1.5,0-2.1,1.2-2.1,4.2c0,2.4,0.5,4,2.1,4c1.7,0,2.1-1.6,2.1-4
				C134.6,406.7,134,405.6,132.5,405.6z"/>
			<path class="st1" d="M137.2,404.6h1.5l2.3,8.8h0l2.3-8.8h1.5l-3,10h-1.5L137.2,404.6z"/>
			<path class="st1" d="M149.5,414.9c-2.2,0-3.6-1.3-3.6-5.6c0-3,1.1-4.9,3.6-4.9s3.6,1.9,3.6,4.9
				C153.1,413.6,151.7,414.9,149.5,414.9z M149.5,405.6c-1.5,0-2.1,1.2-2.1,4.2c0,2.4,0.5,4,2.1,4c1.7,0,2.1-1.6,2.1-4
				C151.6,406.7,151,405.6,149.5,405.6z"/>
			<path class="st1" d="M156.3,410.1c0,1.3,0.1,3.6,1.9,3.6c1.5,0,1.7-1.3,1.8-2.6h1.3c-0.1,1.9-0.8,3.8-3,3.8
				c-3.1,0-3.5-2.6-3.5-5.2c0-2.4,0.4-5.4,3.5-5.4c2,0,3,1.6,3,3.4h-1.3c0-1.1-0.3-2.2-1.7-2.2C156.2,405.6,156.3,408.6,156.3,410.1
				z"/>
			<path class="st1" d="M169.5,414.6c-0.1,0-0.2,0-0.3,0.1c-1.2,0.1-1.7-0.1-1.8-1.4h0c-0.3,0.9-1.3,1.6-2.2,1.6
				c-2,0-2.6-1.1-2.6-2.9c0-0.4,0.1-1.8,1.4-2.4c0.8-0.4,2.8-1.1,3-1.3c0.3-0.2,0.3-0.6,0.3-1.2c0-1.1-0.4-1.6-1.6-1.6
				c-1.3,0-1.5,0.6-1.5,1.8H163c-0.1-2.1,1-3,3-3c3,0,2.7,2.5,2.7,2.7v5.7c0,0.3,0,0.6,0.3,0.8c0.2,0.1,0.4,0,0.6,0V414.6z
				 M167.2,409.2c-0.7,0.4-1.5,0.7-2.3,1.1c-0.7,0.3-0.9,1-0.9,1.7c0,1,0.3,1.7,1.4,1.7c0.5,0,1.7-0.4,1.7-2V409.2z"/>
			<path class="st1" d="M172.9,406.3L172.9,406.3c0.6-1.3,1.5-1.9,3-1.7v1.4c-1.8-0.3-2.9,0.8-2.9,2.6v6.1h-1.4v-10h1.4V406.3z"/>
			<path class="st1" d="M181.9,414.6v-13.5h1.4v13.5H181.9z"/>
			<path class="st1" d="M192.1,414.6c-0.1,0-0.2,0-0.3,0.1c-1.2,0.1-1.7-0.1-1.8-1.4h0c-0.3,0.9-1.3,1.6-2.2,1.6
				c-2,0-2.6-1.1-2.6-2.9c0-0.4,0.1-1.8,1.4-2.4c0.8-0.4,2.8-1.1,3-1.3c0.3-0.2,0.3-0.6,0.3-1.2c0-1.1-0.4-1.6-1.6-1.6
				c-1.3,0-1.5,0.6-1.5,1.8h-1.3c-0.1-2.1,1-3,3-3c3,0,2.7,2.5,2.7,2.7v5.7c0,0.3,0,0.6,0.3,0.8c0.2,0.1,0.4,0,0.6,0V414.6z
				 M189.7,409.2c-0.7,0.4-1.5,0.7-2.2,1.1c-0.7,0.3-0.9,1-0.9,1.7c0,1,0.3,1.7,1.4,1.7c0.5,0,1.7-0.4,1.7-2V409.2z"/>
			<path class="st1" d="M204.6,414.6c-0.1,0-0.2,0-0.3,0.1c-1.2,0.1-1.7-0.1-1.8-1.4h0c-0.3,0.9-1.3,1.6-2.2,1.6
				c-2,0-2.6-1.1-2.6-2.9c0-0.4,0.1-1.8,1.4-2.4c0.8-0.4,2.8-1.1,3-1.3c0.3-0.2,0.3-0.6,0.3-1.2c0-1.1-0.4-1.6-1.6-1.6
				c-1.3,0-1.5,0.6-1.5,1.8h-1.3c-0.1-2.1,1-3,3-3c3,0,2.7,2.5,2.7,2.7v5.7c0,0.3,0,0.6,0.3,0.8c0.2,0.1,0.4,0,0.6,0V414.6z
				 M202.3,409.2c-0.7,0.4-1.5,0.7-2.3,1.1c-0.7,0.3-0.9,1-0.9,1.7c0,1,0.3,1.7,1.4,1.7c0.5,0,1.7-0.4,1.7-2V409.2z"/>
			<path class="st1" d="M207.8,418h-1.4v-13.4h1.4v1.1h0c0.5-0.9,1.3-1.3,2.1-1.4c2.5,0,3.3,2.6,3.3,4.6c0,2.8-0.5,5.9-3.2,5.9
				c-1,0-1.6-0.5-2.1-1.3h0V418z M209.7,405.6c-1.9,0-1.9,2.6-1.9,4.1c0,1.4-0.1,4.1,1.9,4.1c1.5,0,1.9-1.5,1.9-4.2
				C211.7,408.1,211.5,405.6,209.7,405.6z"/>
			<path class="st1" d="M215.4,414.6v-13.5h1.4v13.5H215.4z"/>
			<path class="st1" d="M219.4,402.9v-1.8h1.4v1.8H219.4z M219.4,414.6v-10h1.4v10H219.4z"/>
			<path class="st1" d="M224.4,410.1c0,1.3,0.1,3.6,1.9,3.6c1.5,0,1.7-1.3,1.8-2.6h1.4c-0.1,1.9-0.8,3.8-3,3.8
				c-3.1,0-3.5-2.6-3.5-5.2c0-2.4,0.4-5.4,3.5-5.4c2,0,3,1.6,3,3.4h-1.3c0-1.1-0.3-2.2-1.7-2.2C224.3,405.6,224.4,408.6,224.4,410.1
				z"/>
			<path class="st1" d="M237.7,414.6c-0.1,0-0.2,0-0.3,0.1c-1.2,0.1-1.7-0.1-1.8-1.4h0c-0.3,0.9-1.3,1.6-2.2,1.6
				c-2,0-2.6-1.1-2.6-2.9c0-0.4,0.1-1.8,1.4-2.4c0.8-0.4,2.8-1.1,3-1.3c0.3-0.2,0.3-0.6,0.3-1.2c0-1.1-0.4-1.6-1.6-1.6
				c-1.3,0-1.5,0.6-1.5,1.8h-1.3c-0.1-2.1,1-3,3-3c3,0,2.7,2.5,2.7,2.7v5.7c0,0.3,0,0.6,0.3,0.8c0.2,0.1,0.4,0,0.6,0V414.6z
				 M235.3,409.2c-0.7,0.4-1.5,0.7-2.3,1.1c-0.7,0.3-0.9,1-0.9,1.7c0,1,0.3,1.7,1.4,1.7c0.5,0,1.7-0.4,1.7-2V409.2z"/>
			<path class="st1" d="M240.5,410.1c0,1.3,0.1,3.6,1.9,3.6c1.5,0,1.7-1.3,1.8-2.6h1.4c-0.1,1.9-0.8,3.8-3,3.8
				c-3.1,0-3.5-2.6-3.5-5.2c0-2.4,0.4-5.4,3.5-5.4c2,0,3,1.6,3,3.4h-1.3c0-1.1-0.3-2.2-1.7-2.2C240.3,405.6,240.5,408.6,240.5,410.1
				z"/>
			<path class="st1" d="M247.5,402.9v-1.8h1.4v1.8H247.5z M247.5,414.6v-10h1.4v10H247.5z"/>
			<path class="st1" d="M254.7,414.9c-2.2,0-3.6-1.3-3.6-5.6c0-3,1.1-4.9,3.6-4.9s3.6,1.9,3.6,4.9
				C258.3,413.6,256.9,414.9,254.7,414.9z M254.7,405.6c-1.5,0-2.1,1.2-2.1,4.2c0,2.4,0.5,4,2.1,4c1.7,0,2.1-1.6,2.1-4
				C256.8,406.7,256.2,405.6,254.7,405.6z M255.1,400.9h2l-2.4,2.5h-1.2L255.1,400.9z"/>
			<path class="st1" d="M261.9,405.7L261.9,405.7c0.7-0.9,1.5-1.4,2.5-1.4c1.5,0,2.5,0.8,2.5,2.6v7.7h-1.4v-7.3c0-1-0.3-1.7-1.5-1.7
				c-0.5,0-1,0.2-1.4,0.6c-0.6,0.5-0.6,1.1-0.6,1.8v6.7h-1.4v-10h1.4V405.7z"/>
			<path class="st1" d="M279,401.1h1.4v13.5H279v-1.3h0c-0.6,1.2-1.2,1.6-2.4,1.6c-3.2,0-2.9-4.4-2.9-5.3c-0.1-2.9,0.9-5.3,3-5.3
				c1,0,1.6,0.4,2.3,1.3h0V401.1z M279,409.5c0-1.4,0-3.9-1.9-3.9c-1.2,0-2,0.9-2,4c0,2.2,0.1,4.1,2,4.1c1.5,0,1.9-1.9,1.9-3V409.5z
				"/>
			<path class="st1" d="M288.8,411.3c0.1,2-0.9,3.6-3,3.6c-1.9,0-3.2-1.3-3.2-5.3c0-2.1,0.6-5.3,3.2-5.3c3.2,0,3.1,3.1,3.1,5.4H284
				c0,1.4-0.2,3.9,1.8,3.9c1.4,0,1.7-1.3,1.7-2.4H288.8z M287.4,408.6c-0.1-1.2,0-3-1.6-3s-1.7,1.8-1.7,3H287.4z"/>
			<path class="st1" d="M291.1,414.6v-13.5h1.4v13.5H291.1z"/>
			<path class="st1" d="M114.2,428.1c0,1.3,0.1,3.6,1.9,3.6c1.5,0,1.7-1.3,1.8-2.6h1.4c-0.1,1.9-0.8,3.8-3,3.8
				c-3.1,0-3.5-2.6-3.5-5.2c0-2.4,0.4-5.4,3.5-5.4c2,0,3,1.6,3,3.4h-1.3c0-1.1-0.3-2.2-1.7-2.2C114.1,423.6,114.2,426.6,114.2,428.1
				z"/>
			<path class="st1" d="M124.4,432.9c-2.2,0-3.6-1.3-3.6-5.6c0-3,1.1-4.9,3.6-4.9s3.6,1.9,3.6,4.9
				C128,431.6,126.6,432.9,124.4,432.9z M124.4,423.6c-1.5,0-2.1,1.2-2.1,4.2c0,2.4,0.5,4,2.1,4c1.7,0,2.1-1.6,2.1-4
				C126.6,424.7,125.9,423.6,124.4,423.6z"/>
			<path class="st1" d="M131.7,423.7L131.7,423.7c0.7-0.9,1.5-1.4,2.5-1.4c1.5,0,2.5,0.8,2.5,2.6v7.7h-1.4v-7.3c0-1-0.3-1.7-1.5-1.7
				c-0.5,0-1,0.2-1.4,0.6c-0.6,0.5-0.6,1.1-0.6,1.8v6.7h-1.4v-10h1.4V423.7z"/>
			<path class="st1" d="M142.5,432.9c-2.2,0-3.6-1.3-3.6-5.6c0-3,1.1-4.9,3.6-4.9s3.6,1.9,3.6,4.9
				C146.1,431.6,144.7,432.9,142.5,432.9z M142.5,423.6c-1.5,0-2.1,1.2-2.1,4.2c0,2.4,0.5,4,2.1,4c1.7,0,2.1-1.6,2.1-4
				C144.6,424.7,144,423.6,142.5,423.6z"/>
			<path class="st1" d="M149.3,428.1c0,1.3,0.1,3.6,1.9,3.6c1.5,0,1.7-1.3,1.8-2.6h1.3c-0.1,1.9-0.8,3.8-3,3.8
				c-3.1,0-3.5-2.6-3.5-5.2c0-2.4,0.4-5.4,3.5-5.4c2,0,3,1.6,3,3.4h-1.3c0-1.1-0.3-2.2-1.7-2.2C149.2,423.6,149.3,426.6,149.3,428.1
				z"/>
			<path class="st1" d="M156.3,420.9v-1.8h1.4v1.8H156.3z M156.3,432.6v-10h1.4v10H156.3z"/>
			<path class="st1" d="M161.8,432.6h-1.4v-10h1.4v1.3h0c0.5-0.8,1.3-1.5,2.4-1.5c1.1,0,1.9,0.6,2.4,1.6c0.7-1,1.4-1.6,2.7-1.6
				c0.7,0,1.3,0.2,1.8,0.7c0.6,0.6,0.6,1.7,0.6,2.3v7.2h-1.4v-7.3c0-1.1-0.3-1.7-1.5-1.7c-0.5,0-1,0.2-1.3,0.6
				c-0.6,0.5-0.6,1.1-0.6,1.8v6.7h-1.4v-7.3c0-1-0.3-1.7-1.5-1.7c-0.5,0-1,0.2-1.4,0.6c-0.6,0.5-0.6,1.1-0.6,1.8V432.6z"/>
			<path class="st1" d="M174.3,420.9v-1.8h1.4v1.8H174.3z M174.3,432.6v-10h1.4v10H174.3z"/>
			<path class="st1" d="M184.1,429.3c0.1,2-0.9,3.6-3,3.6c-1.9,0-3.2-1.3-3.2-5.3c0-2.1,0.6-5.3,3.2-5.3c3.2,0,3.1,3.1,3.1,5.4h-4.9
				c0,1.4-0.2,3.9,1.8,3.9c1.4,0,1.7-1.3,1.7-2.4H184.1z M182.7,426.6c-0.1-1.2,0-3-1.6-3s-1.7,1.8-1.7,3H182.7z"/>
			<path class="st1" d="M187.8,423.7L187.8,423.7c0.7-0.9,1.5-1.4,2.5-1.4c1.5,0,2.5,0.8,2.5,2.6v7.7h-1.4v-7.3c0-1-0.3-1.7-1.5-1.7
				c-0.5,0-1,0.2-1.4,0.6c-0.6,0.5-0.6,1.1-0.6,1.8v6.7h-1.4v-10h1.4V423.7z"/>
			<path class="st1" d="M197,422.6h1.7v1.2h-1.7v6.8c0,0.3-0.1,0.8,0.7,0.8h1v1.2h-1.6c-0.8,0-1.5-0.1-1.5-1.6v-7.2h-1.4v-1.2h1.4
				v-2.7h1.4V422.6z"/>
			<path class="st1" d="M203.6,432.9c-2.2,0-3.6-1.3-3.6-5.6c0-3,1.1-4.9,3.6-4.9s3.6,1.9,3.6,4.9
				C207.2,431.6,205.8,432.9,203.6,432.9z M203.6,423.6c-1.5,0-2.1,1.2-2.1,4.2c0,2.4,0.5,4,2.1,4c1.7,0,2.1-1.6,2.1-4
				C205.7,424.7,205.1,423.6,203.6,423.6z"/>
			<path class="st1" d="M215.3,423.7L215.3,423.7c0.7-0.9,1.5-1.4,2.5-1.4c1.5,0,2.5,0.8,2.5,2.6v7.7h-1.4v-7.3c0-1-0.3-1.7-1.5-1.7
				c-0.5,0-1,0.2-1.4,0.6c-0.6,0.5-0.6,1.1-0.6,1.8v6.7H214v-10h1.4V423.7z"/>
			<path class="st1" d="M227.9,431.3L227.9,431.3c-0.5,1-1.4,1.6-2.4,1.6c-1.5,0-2.4-0.8-2.4-2.6v-7.7h1.4v7.8
				c0,0.8,0.3,1.3,1.3,1.3c0.7,0,1.3-0.3,1.7-0.9c0.3-0.5,0.4-1.2,0.4-1.8v-6.4h1.4v10h-1.4V431.3z"/>
			<path class="st1" d="M237.7,429.3c0.1,2-0.9,3.6-3,3.6c-1.9,0-3.2-1.3-3.2-5.3c0-2.1,0.6-5.3,3.2-5.3c3.2,0,3.1,3.1,3.1,5.4h-4.9
				c0,1.4-0.2,3.9,1.8,3.9c1.4,0,1.7-1.3,1.7-2.4H237.7z M236.3,426.6c-0.1-1.2,0-3-1.6-3s-1.7,1.8-1.7,3H236.3z"/>
			<path class="st1" d="M238.9,422.6h1.5l2.3,8.8h0l2.3-8.8h1.5l-3,10h-1.5L238.9,422.6z"/>
			<path class="st1" d="M251.2,432.9c-2.2,0-3.6-1.3-3.6-5.6c0-3,1.1-4.9,3.6-4.9s3.6,1.9,3.6,4.9
				C254.8,431.6,253.4,432.9,251.2,432.9z M251.2,423.6c-1.5,0-2.1,1.2-2.1,4.2c0,2.4,0.5,4,2.1,4c1.7,0,2.1-1.6,2.1-4
				C253.3,424.7,252.7,423.6,251.2,423.6z"/>
			<path class="st1" d="M267.3,429.3c0.1,2-0.9,3.6-3,3.6c-1.9,0-3.2-1.3-3.2-5.3c0-2.1,0.6-5.3,3.2-5.3c3.2,0,3.1,3.1,3.1,5.4h-4.9
				c0,1.4-0.2,3.9,1.8,3.9c1.4,0,1.7-1.3,1.7-2.4H267.3z M265.9,426.6c-0.1-1.2,0-3-1.6-3s-1.7,1.8-1.7,3H265.9z"/>
			<path class="st1" d="M270.9,423.7L270.9,423.7c0.7-0.9,1.5-1.4,2.5-1.4c1.5,0,2.5,0.8,2.5,2.6v7.7h-1.4v-7.3c0-1-0.3-1.7-1.5-1.7
				c-0.5,0-1,0.2-1.4,0.6c-0.6,0.5-0.6,1.1-0.6,1.8v6.7h-1.4v-10h1.4V423.7z"/>
			<path class="st1" d="M117.4,443.3c0.1-1.2-0.4-1.7-1.6-1.7c-1,0-1.6,0.5-1.6,1.5c0,1.3,1.1,1.5,2,1.9c1.4,0.6,2.9,1,2.9,2.9
				c0,1.9-1.3,3.1-3.4,3.1c-0.9,0-2-0.3-2.5-1c-0.6-0.8-0.6-1.5-0.6-2.1h1.3c-0.1,1.2,0.4,2,1.7,2c1.2,0,1.9-0.5,1.9-1.7
				c0-1.4-1.4-1.5-2.5-2c-1.5-0.6-2.4-1.1-2.4-2.8c0-1.7,1.2-2.8,2.9-2.8c2,0,3.1,0.9,3.1,3H117.4z"/>
			<path class="st1" d="M121.2,438.9v-1.8h1.4v1.8H121.2z M121.2,450.6v-10h1.4v10H121.2z"/>
			<path class="st1" d="M126.9,440.6h1.7v1.2h-1.7v6.8c0,0.3-0.1,0.8,0.7,0.8h1v1.2H127c-0.8,0-1.5-0.1-1.5-1.6v-7.2h-1.4v-1.2h1.4
				v-2.7h1.4V440.6z"/>
			<path class="st1" d="M135.2,449.3L135.2,449.3c-0.5,1-1.4,1.6-2.4,1.6c-1.5,0-2.4-0.8-2.4-2.6v-7.7h1.4v7.8
				c0,0.8,0.3,1.3,1.3,1.3c0.7,0,1.3-0.3,1.7-0.9c0.3-0.5,0.4-1.2,0.4-1.8v-6.4h1.4v10h-1.4V449.3z"/>
			<path class="st1" d="M145.5,450.6c-0.1,0-0.2,0-0.3,0.1c-1.2,0.1-1.7-0.1-1.8-1.4h0c-0.3,0.9-1.3,1.6-2.2,1.6
				c-2,0-2.6-1.1-2.6-2.9c0-0.4,0.1-1.8,1.4-2.4c0.8-0.4,2.8-1.1,3-1.3c0.3-0.2,0.3-0.6,0.3-1.2c0-1.1-0.4-1.6-1.6-1.6
				c-1.3,0-1.5,0.6-1.5,1.8H139c-0.1-2.1,1-3,3-3c3,0,2.7,2.5,2.7,2.7v5.7c0,0.3,0,0.6,0.3,0.8c0.2,0.1,0.4,0,0.6,0V450.6z
				 M143.2,445.2c-0.7,0.4-1.5,0.7-2.2,1.1c-0.7,0.3-0.9,1-0.9,1.7c0,1,0.3,1.7,1.4,1.7c0.5,0,1.7-0.4,1.7-2V445.2z"/>
			<path class="st1" d="M148.3,446.1c0,1.3,0.1,3.6,1.9,3.6c1.5,0,1.7-1.3,1.8-2.6h1.4c-0.1,1.9-0.8,3.8-3,3.8
				c-3.1,0-3.5-2.6-3.5-5.2c0-2.4,0.4-5.4,3.5-5.4c2,0,3,1.6,3,3.4h-1.3c0-1.1-0.3-2.2-1.7-2.2C148.2,441.6,148.3,444.6,148.3,446.1
				z"/>
			<path class="st1" d="M155.3,438.9v-1.8h1.4v1.8H155.3z M155.3,450.6v-10h1.4v10H155.3z"/>
			<path class="st1" d="M162.5,450.9c-2.2,0-3.6-1.3-3.6-5.6c0-3,1.1-4.9,3.6-4.9s3.6,1.9,3.6,4.9
				C166.1,449.6,164.7,450.9,162.5,450.9z M162.5,441.6c-1.5,0-2.1,1.2-2.1,4.2c0,2.4,0.5,4,2.1,4c1.7,0,2.1-1.6,2.1-4
				C164.6,442.7,164,441.6,162.5,441.6z"/>
			<path class="st1" d="M169.8,441.7L169.8,441.7c0.7-0.9,1.5-1.4,2.5-1.4c1.5,0,2.5,0.8,2.5,2.6v7.7h-1.4v-7.3c0-1-0.3-1.7-1.5-1.7
				c-0.5,0-1,0.2-1.4,0.6c-0.6,0.5-0.6,1.1-0.6,1.8v6.7h-1.4v-10h1.4V441.7z"/>
			<path class="st1" d="M183.1,447.3c0.1,2-0.9,3.6-3,3.6c-1.9,0-3.2-1.3-3.2-5.3c0-2.1,0.6-5.3,3.2-5.3c3.2,0,3.1,3.1,3.1,5.4h-4.9
				c0,1.4-0.2,3.9,1.8,3.9c1.4,0,1.7-1.3,1.7-2.4H183.1z M181.7,444.6c-0.1-1.2,0-3-1.6-3s-1.7,1.8-1.7,3H181.7z"/>
			<path class="st1" d="M189.5,443.3c0.1-1.2-0.4-1.7-1.6-1.7c-1,0-1.6,0.5-1.6,1.5c0,1.3,1.1,1.5,2,1.9c1.4,0.6,2.9,1,2.9,2.9
				c0,1.9-1.3,3.1-3.4,3.1c-0.9,0-2-0.3-2.5-1c-0.6-0.8-0.6-1.5-0.6-2.1h1.3c-0.1,1.2,0.4,2,1.7,2c1.2,0,1.9-0.5,1.9-1.7
				c0-1.4-1.4-1.5-2.5-2c-1.5-0.6-2.4-1.1-2.4-2.8c0-1.7,1.2-2.8,2.9-2.8c2,0,3.1,0.9,3.1,3H189.5z"/>
			<path class="st1" d="M199.3,454h-1.4v-13.4h1.4v1.1h0c0.5-0.9,1.3-1.3,2.1-1.4c2.5,0,3.3,2.6,3.3,4.6c0,2.8-0.5,5.9-3.2,5.9
				c-1,0-1.6-0.5-2.1-1.3h0V454z M201.2,441.6c-1.9,0-1.9,2.6-1.9,4.1c0,1.4-0.1,4.1,1.9,4.1c1.5,0,1.9-1.5,1.9-4.2
				C203.2,444.1,203,441.6,201.2,441.6z"/>
			<path class="st1" d="M208.5,442.3L208.5,442.3c0.6-1.3,1.5-1.9,3-1.7v1.4c-1.8-0.3-2.9,0.8-2.9,2.6v6.1h-1.4v-10h1.4V442.3z"/>
			<path class="st1" d="M216.1,450.9c-2.2,0-3.6-1.3-3.6-5.6c0-3,1.1-4.9,3.6-4.9s3.6,1.9,3.6,4.9
				C219.7,449.6,218.3,450.9,216.1,450.9z M216.1,441.6c-1.5,0-2.1,1.2-2.1,4.2c0,2.4,0.5,4,2.1,4c1.7,0,2.1-1.6,2.1-4
				C218.2,442.7,217.6,441.6,216.1,441.6z"/>
			<path class="st1" d="M222.3,441.8h-1.5v-1.2h1.4v-0.8c0-0.6,0-1.4,0.4-1.9c0.5-0.7,1.3-0.8,2.6-0.7v1.2c-1.2-0.1-1.6,0-1.6,1.2
				v1.1h1.6v1.2h-1.6v8.8h-1.4V441.8z"/>
			<path class="st1" d="M232.7,447.3c0.1,2-0.9,3.6-3,3.6c-1.9,0-3.2-1.3-3.2-5.3c0-2.1,0.6-5.3,3.2-5.3c3.2,0,3.1,3.1,3.1,5.4h-4.9
				c0,1.4-0.2,3.9,1.8,3.9c1.4,0,1.7-1.3,1.7-2.4H232.7z M231.3,444.6c-0.1-1.2,0-3-1.6-3s-1.7,1.8-1.7,3H231.3z"/>
			<path class="st1" d="M239.1,443.3c0.1-1.2-0.4-1.7-1.6-1.7c-1,0-1.6,0.5-1.6,1.5c0,1.3,1.1,1.5,2,1.9c1.4,0.6,2.9,1,2.9,2.9
				c0,1.9-1.3,3.1-3.4,3.1c-0.9,0-2-0.3-2.5-1c-0.6-0.8-0.6-1.5-0.6-2.1h1.4c-0.1,1.2,0.4,2,1.7,2c1.2,0,1.9-0.5,1.9-1.7
				c0-1.4-1.4-1.5-2.5-2c-1.5-0.6-2.4-1.1-2.4-2.8c0-1.7,1.2-2.8,2.9-2.8c2,0,3.1,0.9,3.1,3H239.1z"/>
			<path class="st1" d="M243,438.9v-1.8h1.4v1.8H243z M243,450.6v-10h1.4v10H243z"/>
			<path class="st1" d="M250.2,450.9c-2.2,0-3.6-1.3-3.6-5.6c0-3,1.1-4.9,3.6-4.9s3.6,1.9,3.6,4.9
				C253.8,449.6,252.4,450.9,250.2,450.9z M250.2,441.6c-1.5,0-2.1,1.2-2.1,4.2c0,2.4,0.5,4,2.1,4c1.7,0,2.1-1.6,2.1-4
				C252.3,442.7,251.7,441.6,250.2,441.6z"/>
			<path class="st1" d="M257.4,441.7L257.4,441.7c0.7-0.9,1.5-1.4,2.5-1.4c1.5,0,2.5,0.8,2.5,2.6v7.7H261v-7.3c0-1-0.3-1.7-1.5-1.7
				c-0.5,0-1,0.2-1.4,0.6c-0.6,0.5-0.6,1.1-0.6,1.8v6.7H256v-10h1.4V441.7z"/>
			<path class="st1" d="M271.3,450.6c-0.1,0-0.2,0-0.3,0.1c-1.2,0.1-1.7-0.1-1.8-1.4h0c-0.3,0.9-1.3,1.6-2.2,1.6
				c-2,0-2.6-1.1-2.6-2.9c0-0.4,0.1-1.8,1.4-2.4c0.8-0.4,2.8-1.1,3-1.3c0.3-0.2,0.3-0.6,0.3-1.2c0-1.1-0.4-1.6-1.6-1.6
				c-1.3,0-1.5,0.6-1.5,1.8h-1.3c-0.1-2.1,1-3,3-3c3,0,2.7,2.5,2.7,2.7v5.7c0,0.3,0,0.6,0.3,0.8c0.2,0.1,0.4,0,0.6,0V450.6z
				 M268.9,445.2c-0.7,0.4-1.5,0.7-2.3,1.1c-0.7,0.3-0.9,1-0.9,1.7c0,1,0.3,1.7,1.4,1.7c0.5,0,1.7-0.4,1.7-2V445.2z"/>
			<path class="st1" d="M273,450.6v-13.5h1.4v13.5H273z"/>
			<path class="st1" d="M282.8,447.3c0.1,2-0.9,3.6-3,3.6c-1.9,0-3.2-1.3-3.2-5.3c0-2.1,0.6-5.3,3.2-5.3c3.2,0,3.1,3.1,3.1,5.4H278
				c0,1.4-0.2,3.9,1.8,3.9c1.4,0,1.7-1.3,1.7-2.4H282.8z M281.4,444.6c-0.1-1.2,0-3-1.6-3s-1.7,1.8-1.7,3H281.4z"/>
			<path class="st1" d="M289.2,443.3c0.1-1.2-0.4-1.7-1.6-1.7c-1,0-1.6,0.5-1.6,1.5c0,1.3,1.1,1.5,2,1.9c1.4,0.6,2.9,1,2.9,2.9
				c0,1.9-1.3,3.1-3.4,3.1c-0.9,0-2-0.3-2.5-1c-0.6-0.8-0.6-1.5-0.6-2.1h1.4c-0.1,1.2,0.4,2,1.7,2c1.2,0,1.9-0.5,1.9-1.7
				c0-1.4-1.4-1.5-2.5-2c-1.5-0.6-2.4-1.1-2.4-2.8c0-1.7,1.2-2.8,2.9-2.8c2,0,3.1,0.9,3.1,3H289.2z"/>
			<path class="st1" d="M298.6,446.1c0,1.3,0.1,3.6,1.9,3.6c1.5,0,1.7-1.3,1.8-2.6h1.4c-0.1,1.9-0.8,3.8-3,3.8
				c-3.1,0-3.5-2.6-3.5-5.2c0-2.4,0.4-5.4,3.5-5.4c2,0,3,1.6,3,3.4h-1.3c0-1.1-0.3-2.2-1.7-2.2C298.5,441.6,298.6,444.6,298.6,446.1
				z"/>
			<path class="st1" d="M308.8,450.9c-2.2,0-3.6-1.3-3.6-5.6c0-3,1.1-4.9,3.6-4.9s3.6,1.9,3.6,4.9
				C312.4,449.6,311,450.9,308.8,450.9z M308.8,441.6c-1.5,0-2.1,1.2-2.1,4.2c0,2.4,0.5,4,2.1,4c1.7,0,2.1-1.6,2.1-4
				C310.9,442.7,310.3,441.6,308.8,441.6z"/>
			<path class="st1" d="M316.3,440.6h1.7v1.2h-1.7v6.8c0,0.3-0.1,0.8,0.7,0.8h1v1.2h-1.6c-0.8,0-1.5-0.1-1.5-1.6v-7.2h-1.4v-1.2h1.4
				v-2.7h1.4V440.6z"/>
			<path class="st1" d="M319.7,438.9v-1.8h1.4v1.8H319.7z M319.7,450.6v-10h1.4v10H319.7z"/>
			<path class="st1" d="M328.6,437.1h1.4v13.5h-1.4v-1.3h0c-0.6,1.2-1.2,1.6-2.4,1.6c-3.2,0-2.9-4.4-2.9-5.3c-0.1-2.9,0.9-5.3,3-5.3
				c1,0,1.6,0.4,2.3,1.3h0V437.1z M328.6,445.5c0-1.4,0-3.9-1.9-3.9c-1.2,0-2,0.9-2,4c0,2.2,0.1,4.1,2,4.1c1.5,0,1.9-1.9,1.9-3
				V445.5z"/>
			<path class="st1" d="M332.7,438.9v-1.8h1.4v1.8H332.7z M332.7,450.6v-10h1.4v10H332.7z"/>
			<path class="st1" d="M342.9,450.6c-0.1,0-0.2,0-0.3,0.1c-1.2,0.1-1.7-0.1-1.8-1.4h0c-0.3,0.9-1.3,1.6-2.2,1.6
				c-2,0-2.6-1.1-2.6-2.9c0-0.4,0.1-1.8,1.4-2.4c0.8-0.4,2.8-1.1,3-1.3c0.3-0.2,0.3-0.6,0.3-1.2c0-1.1-0.4-1.6-1.6-1.6
				c-1.3,0-1.5,0.6-1.5,1.8h-1.3c-0.1-2.1,1-3,3-3c3,0,2.7,2.5,2.7,2.7v5.7c0,0.3,0,0.6,0.3,0.8c0.2,0.1,0.4,0,0.6,0V450.6z
				 M340.6,445.2c-0.7,0.4-1.5,0.7-2.3,1.1c-0.7,0.3-0.9,1-0.9,1.7c0,1,0.3,1.7,1.4,1.7c0.5,0,1.7-0.4,1.7-2V445.2z"/>
			<path class="st1" d="M346.1,441.7L346.1,441.7c0.7-0.9,1.5-1.4,2.5-1.4c1.5,0,2.5,0.8,2.5,2.6v7.7h-1.4v-7.3c0-1-0.3-1.7-1.5-1.7
				c-0.5,0-1,0.2-1.4,0.6c-0.6,0.5-0.6,1.1-0.6,1.8v6.7h-1.4v-10h1.4V441.7z"/>
			<path class="st1" d="M359.9,450.6c-0.1,0-0.2,0-0.3,0.1c-1.2,0.1-1.7-0.1-1.8-1.4h0c-0.3,0.9-1.3,1.6-2.2,1.6
				c-2,0-2.6-1.1-2.6-2.9c0-0.4,0.1-1.8,1.4-2.4c0.8-0.4,2.8-1.1,3-1.3c0.3-0.2,0.3-0.6,0.3-1.2c0-1.1-0.4-1.6-1.6-1.6
				c-1.3,0-1.5,0.6-1.5,1.8h-1.3c-0.1-2.1,1-3,3-3c3,0,2.7,2.5,2.7,2.7v5.7c0,0.3,0,0.6,0.3,0.8c0.2,0.1,0.4,0,0.6,0V450.6z
				 M357.6,445.2c-0.7,0.4-1.5,0.7-2.3,1.1c-0.7,0.3-0.9,1-0.9,1.7c0,1,0.3,1.7,1.4,1.7c0.5,0,1.7-0.4,1.7-2V445.2z"/>
			<path class="st1" d="M365.9,443.3c0.1-1.2-0.4-1.7-1.6-1.7c-1,0-1.6,0.5-1.6,1.5c0,1.3,1.1,1.5,2,1.9c1.4,0.6,2.9,1,2.9,2.9
				c0,1.9-1.3,3.1-3.4,3.1c-0.9,0-2-0.3-2.5-1c-0.6-0.8-0.6-1.5-0.6-2.1h1.4c-0.1,1.2,0.4,2,1.7,2c1.2,0,1.9-0.5,1.9-1.7
				c0-1.4-1.4-1.5-2.5-2c-1.5-0.6-2.4-1.1-2.4-2.8c0-1.7,1.2-2.8,2.9-2.8c2,0,3.1,0.9,3.1,3H365.9z"/>
		</g>
	</g>
	<g>
		<g>
			<path class="st1" d="M113.7,329.5v-13.5h1.5v13.5H113.7z"/>
			<path class="st1" d="M119.7,329.5h-1.4v-10h1.4v1.3h0c0.5-0.8,1.3-1.5,2.4-1.5c1.1,0,1.9,0.6,2.4,1.6c0.7-1,1.4-1.6,2.7-1.6
				c0.7,0,1.3,0.2,1.8,0.7c0.6,0.6,0.6,1.7,0.6,2.3v7.2h-1.4v-7.3c0-1.1-0.3-1.7-1.5-1.7c-0.5,0-1,0.2-1.3,0.6
				c-0.6,0.5-0.6,1.1-0.6,1.8v6.7h-1.4v-7.3c0-1-0.3-1.7-1.5-1.7c-0.5,0-1,0.2-1.4,0.6c-0.6,0.5-0.6,1.1-0.6,1.8V329.5z"/>
			<path class="st1" d="M133.7,332.8h-1.4v-13.4h1.4v1.1h0c0.5-0.9,1.3-1.3,2.1-1.4c2.5,0,3.3,2.6,3.3,4.6c0,2.8-0.5,5.9-3.2,5.9
				c-1,0-1.6-0.5-2.1-1.3h0V332.8z M135.6,320.4c-1.9,0-1.9,2.6-1.9,4.1c0,1.4-0.1,4.1,1.9,4.1c1.5,0,1.9-1.5,1.9-4.2
				C137.6,323,137.4,320.4,135.6,320.4z"/>
			<path class="st1" d="M146.2,328.1L146.2,328.1c-0.5,1-1.4,1.6-2.4,1.6c-1.5,0-2.4-0.8-2.4-2.6v-7.7h1.4v7.8
				c0,0.8,0.3,1.3,1.3,1.3c0.7,0,1.3-0.3,1.7-0.9c0.3-0.5,0.4-1.2,0.4-1.8v-6.4h1.4v10h-1.4V328.1z"/>
			<path class="st1" d="M150.3,329.5v-13.5h1.4v13.5H150.3z"/>
			<path class="st1" d="M158.5,322.1c0.1-1.2-0.4-1.7-1.6-1.7c-1,0-1.6,0.5-1.6,1.5c0,1.3,1.1,1.5,2,1.9c1.4,0.6,2.9,1,2.9,2.9
				c0,1.9-1.3,3.1-3.4,3.1c-0.9,0-2-0.3-2.5-1c-0.6-0.8-0.6-1.5-0.6-2.1h1.4c-0.1,1.2,0.4,2,1.7,2c1.2,0,1.9-0.5,1.9-1.7
				c0-1.4-1.4-1.5-2.5-2c-1.5-0.6-2.4-1.1-2.4-2.8c0-1.7,1.2-2.8,2.9-2.8c2,0,3.1,0.9,3.1,3H158.5z"/>
			<path class="st1" d="M168.5,329.5c-0.1,0-0.2,0-0.3,0.1c-1.2,0.1-1.7-0.1-1.8-1.4h0c-0.3,0.9-1.3,1.6-2.2,1.6
				c-2,0-2.6-1.1-2.6-2.9c0-0.4,0.1-1.8,1.4-2.4c0.8-0.4,2.8-1.1,3-1.3c0.3-0.2,0.3-0.6,0.3-1.2c0-1.1-0.4-1.6-1.6-1.6
				c-1.3,0-1.5,0.6-1.5,1.8H162c-0.1-2.1,1-3,3-3c3,0,2.7,2.5,2.7,2.7v5.7c0,0.3,0,0.6,0.3,0.8c0.2,0.1,0.4,0,0.6,0V329.5z
				 M166.2,324.1c-0.7,0.4-1.5,0.7-2.3,1.1c-0.7,0.3-0.9,1-0.9,1.7c0,1,0.3,1.7,1.4,1.7c0.5,0,1.7-0.4,1.7-2V324.1z"/>
			<path class="st1" d="M171.9,321.1L171.9,321.1c0.6-1.3,1.5-1.9,3-1.7v1.4c-1.8-0.3-2.9,0.8-2.9,2.6v6.1h-1.4v-10h1.4V321.1z"/>
			<path class="st1" d="M180.9,329.5v-13.5h1.4v13.5H180.9z"/>
			<path class="st1" d="M191.1,329.5c-0.1,0-0.2,0-0.3,0.1c-1.2,0.1-1.7-0.1-1.8-1.4h0c-0.3,0.9-1.3,1.6-2.2,1.6
				c-2,0-2.6-1.1-2.6-2.9c0-0.4,0.1-1.8,1.4-2.4c0.8-0.4,2.8-1.1,3-1.3c0.3-0.2,0.3-0.6,0.3-1.2c0-1.1-0.4-1.6-1.6-1.6
				c-1.3,0-1.5,0.6-1.5,1.8h-1.3c-0.1-2.1,1-3,3-3c3,0,2.7,2.5,2.7,2.7v5.7c0,0.3,0,0.6,0.3,0.8c0.2,0.1,0.4,0,0.6,0V329.5z
				 M188.8,324.1c-0.7,0.4-1.5,0.7-2.3,1.1c-0.7,0.3-0.9,1-0.9,1.7c0,1,0.3,1.7,1.4,1.7c0.5,0,1.7-0.4,1.7-2V324.1z"/>
			<path class="st1" d="M198.9,321.1L198.9,321.1c0.6-1.3,1.5-1.9,3-1.7v1.4c-1.8-0.3-2.9,0.8-2.9,2.6v6.1h-1.4v-10h1.4V321.1z"/>
			<path class="st1" d="M209.2,326.1c0.1,2-0.9,3.6-3,3.6c-1.9,0-3.2-1.3-3.2-5.3c0-2.1,0.6-5.3,3.2-5.3c3.2,0,3.1,3.1,3.1,5.4h-4.9
				c0,1.4-0.2,3.9,1.8,3.9c1.4,0,1.7-1.3,1.7-2.4H209.2z M207.8,323.4c-0.1-1.2,0-3-1.6-3s-1.7,1.8-1.7,3H207.8z"/>
			<path class="st1" d="M211.8,320.6h-1.5v-1.2h1.4v-0.8c0-0.6,0-1.4,0.4-1.9c0.5-0.7,1.3-0.8,2.6-0.7v1.2c-1.2-0.1-1.6,0-1.6,1.2
				v1.1h1.6v1.2h-1.6v8.8h-1.4V320.6z M216.4,329.5v-13.5h1.4v13.5H216.4z"/>
			<path class="st1" d="M226.2,326.1c0.1,2-0.9,3.6-3,3.6c-1.9,0-3.2-1.3-3.2-5.3c0-2.1,0.6-5.3,3.2-5.3c3.2,0,3.1,3.1,3.1,5.4h-4.9
				c0,1.4-0.2,3.9,1.8,3.9c1.4,0,1.7-1.3,1.7-2.4H226.2z M224.8,323.4c-0.1-1.2,0-3-1.6-3s-1.7,1.8-1.7,3H224.8z"/>
			<path class="st1" d="M227.5,319.4h1.5l2.2,3.6l2.2-3.6h1.5l-2.9,4.9l3,5.1h-1.5l-2.3-4l-2.4,4h-1.5l3.1-5.1L227.5,319.4z"/>
			<path class="st1" d="M236.5,317.7v-1.8h1.4v1.8H236.5z M236.5,329.5v-10h1.4v10H236.5z"/>
			<path class="st1" d="M243.7,329.7c-2.2,0-3.6-1.3-3.6-5.6c0-3,1.1-4.9,3.6-4.9s3.6,1.9,3.6,4.9
				C247.3,328.4,245.9,329.7,243.7,329.7z M243.7,320.4c-1.5,0-2.1,1.2-2.1,4.2c0,2.4,0.5,4,2.1,4c1.7,0,2.1-1.6,2.1-4
				C245.8,321.5,245.2,320.4,243.7,320.4z M244.1,315.7h2l-2.4,2.5h-1.2L244.1,315.7z"/>
			<path class="st1" d="M250.9,320.5L250.9,320.5c0.7-0.9,1.5-1.4,2.5-1.4c1.5,0,2.5,0.8,2.5,2.6v7.7h-1.4v-7.3c0-1-0.3-1.7-1.5-1.7
				c-0.5,0-1,0.2-1.4,0.6c-0.6,0.5-0.6,1.1-0.6,1.8v6.7h-1.4v-10h1.4V320.5z"/>
			<path class="st1" d="M267.2,322.1c0.1-1.2-0.4-1.7-1.6-1.7c-1,0-1.6,0.5-1.6,1.5c0,1.3,1.1,1.5,2,1.9c1.4,0.6,2.9,1,2.9,2.9
				c0,1.9-1.3,3.1-3.4,3.1c-0.9,0-2-0.3-2.5-1c-0.6-0.8-0.6-1.5-0.6-2.1h1.4c-0.1,1.2,0.4,2,1.7,2c1.2,0,1.9-0.5,1.9-1.7
				c0-1.4-1.4-1.5-2.5-2c-1.5-0.6-2.4-1.1-2.4-2.8c0-1.7,1.2-2.8,2.9-2.8c2,0,3.1,0.9,3.1,3H267.2z"/>
			<path class="st1" d="M274.3,329.7c-2.2,0-3.6-1.3-3.6-5.6c0-3,1.1-4.9,3.6-4.9s3.6,1.9,3.6,4.9
				C277.8,328.4,276.5,329.7,274.3,329.7z M274.3,320.4c-1.5,0-2.1,1.2-2.1,4.2c0,2.4,0.5,4,2.1,4c1.7,0,2.1-1.6,2.1-4
				C276.4,321.5,275.8,320.4,274.3,320.4z"/>
			<path class="st1" d="M281.4,329.5h-1.3v-13.5h1.4v4.5h0c0.6-0.9,1.2-1.3,2.1-1.3c2.5,0,3.2,2.6,3.2,4.6c0,2.8-0.4,5.9-3.1,5.9
				c-0.9,0-1.7-0.3-2.3-1.5h0V329.5z M283.5,328.5c1.5,0,1.9-1.5,1.9-4.2c0-1.3-0.1-3.9-1.9-3.9c-2.1,0-2,2.9-2,4.3
				C281.5,326.2,281.4,328.5,283.5,328.5z"/>
			<path class="st1" d="M290.6,321.1L290.6,321.1c0.6-1.3,1.5-1.9,3-1.7v1.4c-1.8-0.3-2.9,0.8-2.9,2.6v6.1h-1.4v-10h1.4V321.1z"/>
			<path class="st1" d="M300.8,326.1c0.1,2-0.9,3.6-3,3.6c-1.9,0-3.2-1.3-3.2-5.3c0-2.1,0.6-5.3,3.2-5.3c3.2,0,3.1,3.1,3.1,5.4h-4.9
				c0,1.4-0.2,3.9,1.8,3.9c1.4,0,1.7-1.3,1.7-2.4H300.8z M299.4,323.4c-0.1-1.2,0-3-1.6-3s-1.7,1.8-1.7,3H299.4z"/>
			<path class="st1" d="M307.6,329.5v-13.5h1.4v13.5H307.6z"/>
			<path class="st1" d="M317.9,329.5c-0.1,0-0.2,0-0.3,0.1c-1.2,0.1-1.7-0.1-1.8-1.4h0c-0.3,0.9-1.3,1.6-2.2,1.6
				c-2,0-2.6-1.1-2.6-2.9c0-0.4,0.1-1.8,1.4-2.4c0.8-0.4,2.8-1.1,3-1.3c0.3-0.2,0.3-0.6,0.3-1.2c0-1.1-0.4-1.6-1.6-1.6
				c-1.3,0-1.5,0.6-1.5,1.8h-1.3c-0.1-2.1,1-3,3-3c3,0,2.7,2.5,2.7,2.7v5.7c0,0.3,0,0.6,0.3,0.8c0.2,0.1,0.4,0,0.6,0V329.5z
				 M315.5,324.1c-0.7,0.4-1.5,0.7-2.3,1.1c-0.7,0.3-0.9,1-0.9,1.7c0,1,0.3,1.7,1.4,1.7c0.5,0,1.7-0.4,1.7-2V324.1z"/>
			<path class="st1" d="M118.1,346.1L118.1,346.1c-0.5,1-1.4,1.6-2.4,1.6c-1.5,0-2.4-0.8-2.4-2.6v-7.7h1.4v7.8
				c0,0.8,0.3,1.3,1.3,1.3c0.7,0,1.3-0.3,1.7-0.9c0.3-0.5,0.4-1.2,0.4-1.8v-6.4h1.4v10h-1.4V346.1z"/>
			<path class="st1" d="M123.9,337.4h1.7v1.2h-1.7v6.8c0,0.3-0.1,0.8,0.7,0.8h1v1.2H124c-0.8,0-1.5-0.1-1.5-1.6v-7.2h-1.4v-1.2h1.4
				v-2.7h1.4V337.4z"/>
			<path class="st1" d="M127.3,335.7v-1.8h1.4v1.8H127.3z M127.3,347.5v-10h1.4v10H127.3z"/>
			<path class="st1" d="M131.3,347.5v-13.5h1.4v13.5H131.3z"/>
			<path class="st1" d="M135.3,335.7v-1.8h1.4v1.8H135.3z M135.3,347.5v-10h1.4v10H135.3z"/>
			<path class="st1" d="M144.2,333.9h1.4v13.5h-1.4v-1.3h0c-0.6,1.2-1.2,1.6-2.4,1.6c-3.2,0-2.9-4.4-2.9-5.3c-0.1-2.9,0.9-5.3,3-5.3
				c1,0,1.6,0.4,2.3,1.3h0V333.9z M144.2,342.3c0-1.4,0-3.9-1.9-3.9c-1.2,0-2,0.9-2,4c0,2.2,0.1,4.1,2,4.1c1.5,0,1.9-1.9,1.9-3
				V342.3z"/>
			<path class="st1" d="M154.5,347.5c-0.1,0-0.2,0-0.3,0.1c-1.2,0.1-1.7-0.1-1.8-1.4h0c-0.3,0.9-1.3,1.6-2.2,1.6
				c-2,0-2.6-1.1-2.6-2.9c0-0.4,0.1-1.8,1.4-2.4c0.8-0.4,2.8-1.1,3-1.3c0.3-0.2,0.3-0.6,0.3-1.2c0-1.1-0.4-1.6-1.6-1.6
				c-1.3,0-1.5,0.6-1.5,1.8H148c-0.1-2.1,1-3,3-3c3,0,2.7,2.5,2.7,2.7v5.7c0,0.3,0,0.6,0.3,0.8c0.2,0.1,0.4,0,0.6,0V347.5z
				 M152.2,342.1c-0.7,0.4-1.5,0.7-2.3,1.1c-0.7,0.3-0.9,1-0.9,1.7c0,1,0.3,1.7,1.4,1.7c0.5,0,1.7-0.4,1.7-2V342.1z"/>
			<path class="st1" d="M161.3,333.9h1.4v13.5h-1.4v-1.3h0c-0.6,1.2-1.2,1.6-2.4,1.6c-3.2,0-2.9-4.4-2.9-5.3c-0.1-2.9,0.9-5.3,3-5.3
				c1,0,1.6,0.4,2.3,1.3h0V333.9z M161.3,342.3c0-1.4,0-3.9-1.9-3.9c-1.2,0-2,0.9-2,4c0,2.2,0.1,4.1,2,4.1c1.5,0,1.9-1.9,1.9-3
				V342.3z"/>
			<path class="st1" d="M174.8,333.9h1.4v13.5h-1.4v-1.3h0c-0.6,1.2-1.2,1.6-2.4,1.6c-3.2,0-2.9-4.4-2.9-5.3c-0.1-2.9,0.9-5.3,3-5.3
				c1,0,1.6,0.4,2.3,1.3h0V333.9z M174.8,342.3c0-1.4,0-3.9-1.9-3.9c-1.2,0-2,0.9-2,4c0,2.2,0.1,4.1,2,4.1c1.5,0,1.9-1.9,1.9-3
				V342.3z"/>
			<path class="st1" d="M184.6,344.1c0.1,2-0.9,3.6-3,3.6c-1.9,0-3.2-1.3-3.2-5.3c0-2.1,0.6-5.3,3.2-5.3c3.2,0,3.1,3.1,3.1,5.4h-4.9
				c0,1.4-0.2,3.9,1.8,3.9c1.4,0,1.7-1.3,1.7-2.4H184.6z M183.2,341.4c-0.1-1.2,0-3-1.6-3s-1.7,1.8-1.7,3H183.2z"/>
			<path class="st1" d="M186.9,347.5v-13.5h1.4v13.5H186.9z"/>
			<path class="st1" d="M196.4,342.9c0,1.3,0.1,3.6,1.9,3.6c1.5,0,1.7-1.3,1.8-2.6h1.4c-0.1,1.9-0.8,3.8-3,3.8
				c-3.1,0-3.5-2.6-3.5-5.2c0-2.4,0.4-5.4,3.5-5.4c2,0,3,1.6,3,3.4H200c0-1.1-0.3-2.2-1.7-2.2C196.3,338.4,196.4,341.5,196.4,342.9z
				"/>
			<path class="st1" d="M206.6,347.7c-2.2,0-3.6-1.3-3.6-5.6c0-3,1.1-4.9,3.6-4.9s3.6,1.9,3.6,4.9
				C210.2,346.4,208.8,347.7,206.6,347.7z M206.6,338.4c-1.5,0-2.1,1.2-2.1,4.2c0,2.4,0.5,4,2.1,4c1.7,0,2.1-1.6,2.1-4
				C208.8,339.5,208.1,338.4,206.6,338.4z"/>
			<path class="st1" d="M213.9,338.5L213.9,338.5c0.7-0.9,1.5-1.4,2.5-1.4c1.5,0,2.5,0.8,2.5,2.6v7.7h-1.4v-7.3c0-1-0.3-1.7-1.5-1.7
				c-0.5,0-1,0.2-1.4,0.6c-0.6,0.5-0.6,1.1-0.6,1.8v6.7h-1.4v-10h1.4V338.5z"/>
			<path class="st1" d="M224.7,347.7c-2.2,0-3.6-1.3-3.6-5.6c0-3,1.1-4.9,3.6-4.9s3.6,1.9,3.6,4.9
				C228.3,346.4,226.9,347.7,224.7,347.7z M224.7,338.4c-1.5,0-2.1,1.2-2.1,4.2c0,2.4,0.5,4,2.1,4c1.7,0,2.1-1.6,2.1-4
				C226.8,339.5,226.2,338.4,224.7,338.4z"/>
			<path class="st1" d="M231.5,342.9c0,1.3,0.1,3.6,1.9,3.6c1.5,0,1.7-1.3,1.8-2.6h1.4c-0.1,1.9-0.8,3.8-3,3.8
				c-3.1,0-3.5-2.6-3.5-5.2c0-2.4,0.4-5.4,3.5-5.4c2,0,3,1.6,3,3.4h-1.3c0-1.1-0.3-2.2-1.7-2.2C231.4,338.4,231.5,341.5,231.5,342.9
				z"/>
			<path class="st1" d="M238.5,335.7v-1.8h1.4v1.8H238.5z M238.5,347.5v-10h1.4v10H238.5z"/>
			<path class="st1" d="M244,347.5h-1.4v-10h1.4v1.3h0c0.5-0.8,1.3-1.5,2.4-1.5c1.1,0,1.9,0.6,2.4,1.6c0.7-1,1.4-1.6,2.7-1.6
				c0.7,0,1.3,0.2,1.8,0.7c0.6,0.6,0.6,1.7,0.6,2.3v7.2h-1.4v-7.3c0-1.1-0.3-1.7-1.5-1.7c-0.5,0-1,0.2-1.3,0.6
				c-0.6,0.5-0.6,1.1-0.6,1.8v6.7h-1.4v-7.3c0-1-0.3-1.7-1.5-1.7c-0.5,0-1,0.2-1.4,0.6c-0.6,0.5-0.6,1.1-0.6,1.8V347.5z"/>
			<path class="st1" d="M256.5,335.7v-1.8h1.4v1.8H256.5z M256.5,347.5v-10h1.4v10H256.5z"/>
			<path class="st1" d="M266.3,344.1c0.1,2-0.9,3.6-3,3.6c-1.9,0-3.2-1.3-3.2-5.3c0-2.1,0.6-5.3,3.2-5.3c3.2,0,3.1,3.1,3.1,5.4h-4.9
				c0,1.4-0.2,3.9,1.8,3.9c1.4,0,1.7-1.3,1.7-2.4H266.3z M264.9,341.4c-0.1-1.2,0-3-1.6-3s-1.7,1.8-1.7,3H264.9z"/>
			<path class="st1" d="M270,338.5L270,338.5c0.7-0.9,1.5-1.4,2.5-1.4c1.5,0,2.5,0.8,2.5,2.6v7.7h-1.4v-7.3c0-1-0.3-1.7-1.5-1.7
				c-0.5,0-1,0.2-1.4,0.6c-0.6,0.5-0.6,1.1-0.6,1.8v6.7h-1.4v-10h1.4V338.5z"/>
			<path class="st1" d="M279.2,337.4h1.7v1.2h-1.7v6.8c0,0.3-0.1,0.8,0.7,0.8h1v1.2h-1.6c-0.8,0-1.5-0.1-1.5-1.6v-7.2h-1.4v-1.2h1.4
				v-2.7h1.4V337.4z"/>
			<path class="st1" d="M285.8,347.7c-2.2,0-3.6-1.3-3.6-5.6c0-3,1.1-4.9,3.6-4.9s3.6,1.9,3.6,4.9
				C289.4,346.4,288,347.7,285.8,347.7z M285.8,338.4c-1.5,0-2.1,1.2-2.1,4.2c0,2.4,0.5,4,2.1,4c1.7,0,2.1-1.6,2.1-4
				C287.9,339.5,287.3,338.4,285.8,338.4z"/>
		</g>
	</g>
</g>
</svg>
