<?xml version="1.0" encoding="utf-8"?>
<!-- Generator: Adobe Illustrator 25.3.1, SVG Export Plug-In . SVG Version: 6.00 Build 0)  -->
<svg version="1.1" id="Capa_1" xmlns="http://www.w3.org/2000/svg" xmlns:xlink="http://www.w3.org/1999/xlink" x="0px" y="0px"
	 viewBox="0 0 490 469" style="enable-background:new 0 0 490 469;" xml:space="preserve">
<style type="text/css">
	.st0{fill:#7287A5;}
	.st1{fill:#373F56;}
	.st2{opacity:0.32;fill:#7287A5;}
	.st3{fill:#F4D2D9;}
	.st4{fill:#ED5676;}
	.st5{fill:#505050;}
	.st6{fill:#D6DEE5;}
	.st7{fill:none;}
	.st8{fill:#962582;}
	.st9{opacity:0.32;fill:none;stroke:#7287A5;stroke-miterlimit:10;}
	.st10{opacity:0.2;fill:#A16AAC;}
	.st11{opacity:0.2;fill:#7287A5;}
	.st12{fill:#E2E5E8;}
	.st13{fill:#EAE2ED;}
	.st14{fill:#A16AAC;}
	.st15{fill:#782988;}
	.st16{fill:#B667A8;}
	.st17{fill:#CF61A7;}
	.st18{fill:#BB1D81;}
	.st19{fill:#FFFFFF;stroke:#962582;stroke-width:0.75;stroke-miterlimit:10;}
</style>
<g>
	<rect x="209.6" y="18.1" class="st10" width="82" height="82"/>
	<g>
		<path class="st8" d="M269.4,29.5c-2.6,0-4.6,2.1-4.6,4.6c0,0.6,0.4,1,1,1s1-0.4,1-1c0-1.5,1.2-2.6,2.6-2.6c1.5,0,2.6,1.2,2.6,2.6
			c0,1.5-1.2,2.6-2.6,2.6h-0.6c-0.6,0-1,0.4-1,1v3.4c0,0.6,0.4,1,1,1c0.6,0,1-0.4,1-1v-2.4c2.4-0.2,4.3-2.2,4.3-4.6
			C274.1,31.5,272,29.5,269.4,29.5z"/>
		<path class="st8" d="M268.8,43.7c-0.6,0-1,0.4-1,1V45c0,0.6,0.4,1,1,1c0.6,0,1-0.4,1-1v-0.3C269.8,44.1,269.3,43.7,268.8,43.7z"/>
		<path class="st8" d="M255.1,78.2c-1-0.9-3.6-1.9-4.9-2.1c-2.6-0.4-2.8-0.4-3.2-0.5c-0.7-0.3-1.2-1-1.2-1.8c1.2-0.5,2-1.7,2-3
			c0-0.4-0.1-0.7-0.2-1.1c2.4-1.4,5.8-4.1,7.5-8.4h1.9c2.2,0,4-1.8,4-4v-0.9c0-1.2-0.6-2.3-1.4-3.1v-2.6c0.4,0.1,0.7,0.1,1.1,0.1
			h3.1c0.4,0,0.7,0.3,0.7,0.7v2.8c0,0.7,0.4,1.3,1.1,1.5c0.2,0.1,0.4,0.1,0.5,0.1c0.5,0,1-0.2,1.3-0.6l3.3-4.3
			c0.1-0.1,0.3-0.2,0.5-0.2h7c2.4,0,4.4-2,4.4-4.4V28.9c0-2.4-2-4.4-4.4-4.4v0h-17.5c-2.4,0-4.4,2-4.4,4.4v7.9
			c-3.3-4.7-8.8-7.8-14.9-7.8h-4.5c-5.2,0-10.1,2.8-12.8,7.2c-3.7,1.2-6.1,4.6-6,8.5l0.3,8.7c-0.8,0.7-1.3,1.8-1.3,2.9v0.9
			c0,2.2,1.8,4,4,4h2.7c0.7,1.7,1.7,3.3,3,4.7c-0.7,1-4.4,6-4.6,6.3c-0.1,0.1-0.1,0.2-0.2,0.3l-4.6,17.7c-0.2,0.6,0,1.2,0.3,1.7
			c0.4,0.5,0.9,0.8,1.5,0.8h37.2c0.7,0,1.3-0.3,1.8-0.8c0.5-0.5,0.7-1.1,0.6-1.8l-0.4-5.2c-0.1-1.3-0.3-2.6-1-3.7
			C256.7,80.3,256.1,79,255.1,78.2z M255.6,82.2c0.5,0.9,0.7,1.9,0.8,3l0.4,5.2c0,0.2-0.1,0.3-0.1,0.3c0,0-0.1,0.1-0.3,0.1h-4.6
			v-4.1c0-0.6-0.4-1-1-1c-0.6,0-1,0.4-1,1v4.1h-21.9l2.6-9.8c0,0,0-0.1,0.1-0.1h4.4c0.9,0,1.7-0.2,2.5-0.6c0.6,0.1,1.3,0.2,2,0.2
			c2.8,0,5.5-1.1,7.4-3l0,0c0.2,0,0,0,3,0.5c1.1,0.2,3.4,1.2,3.6,1.3C254.2,79.8,255.2,81.4,255.6,82.2z M219,57.3v-0.9
			c0-1.1,0.9-2,2-2h1.6c-0.1,1.7,0,3.2,0.4,4.9h-2C219.9,59.3,219,58.4,219,57.3z M239.4,78.5c0.5-0.8,0.9-1.8,0.9-2.9V74h3.4
			c0.1,1,0.5,1.9,1.2,2.5C243.4,77.8,241.5,78.5,239.4,78.5z M244.4,72h-4.3c-1,0-1.8,0.8-1.8,1.8v1.8c0,1.8-1.5,3.3-3.3,3.3h-4.4
			c-0.9,0-1.8,0.6-2,1.6l-2.7,10.3h-6.6l4.6-17.5c0.4-0.5,6.8-9.5,7.7-10.6c0.2-0.3,0.5-0.5,0.9-0.5c0.4-0.1,0.7,0,1,0.2l0,0
			c0.3,0.2,0.5,0.6,0.5,1c0,0.3-0.1,0.5-0.2,0.8l-1.9,2.7c-0.3,0.5-0.4,1.1-0.1,1.7c0.3,0.5,0.8,0.9,1.4,0.9h11.3
			c0.3,0,0.7,0.1,0.9,0.4c0.2,0.2,0.4,0.6,0.4,0.9C245.7,71.5,245.1,72,244.4,72z M259,57.3c0,1.1-0.9,2-2,2h-1.2
			c0.3-1.2,0.4-2.4,0.4-3.6c0-0.4,0-0.9,0-1.3h0.8c1.1,0,2,0.9,2,2V57.3z M223.4,49c-0.3,1-0.4,2.2-0.6,3.3H221
			c-0.3,0-0.5,0-0.8,0.1l-0.2-7.8c-0.1-3.1,1.9-5.8,4.9-6.6c0.3-0.1,0.5-0.2,0.6-0.5c2.3-4,6.6-6.6,11.3-6.6h4.5
			c8.9,0,16.2,7.3,16.2,16.2v5.2c-0.2,0-0.4,0-0.6,0v0h-1c-0.1-1.1-0.3-2.2-0.5-3.2c-0.5-2-2.2-3.5-4.3-3.6c0,0-8.3-0.3-11.1-0.7
			c-3.9-0.6-5.8-1.3-6.7-2.1c-0.6-0.6-1.3-1.2-2-2c-0.5-0.6-1.2-0.9-2-0.9h0c-0.7,0-1.4,0.3-1.9,0.9c-1,1.1-1.9,2.3-2.5,3.7
			C224.5,45.6,223.7,47.8,223.4,49z M226.8,45.3c0.5-1.2,1.3-2.3,2.2-3.3c0.2-0.2,0.3-0.2,0.4-0.2c0.1,0,0.3,0,0.5,0.2
			c0.7,0.8,1.5,1.6,2.2,2.2c0.8,0.7,3.8,1.6,5.3,1.9C241,47,251,47.5,251,47.5c1.2,0.1,2.2,0.9,2.5,2.1c0.3,1.2,0.5,2.5,0.6,3.9
			c0.1,0.7,0.1,1.5,0.1,2.2c0,1.5-0.2,2.9-0.7,4.3c-1.5,4.3-4.8,6.8-7.1,8.1c-0.6-0.4-1.2-0.6-2-0.6h-10.6l1.4-2.1
			c0.4-0.6,0.6-1.3,0.6-2c0-1-0.5-1.9-1.3-2.5l0,0c-0.7-0.5-1.6-0.7-2.5-0.6c-0.9,0.1-1.6,0.6-2.2,1.3c-0.4,0.5-1.1,1.5-2,2.8
			c-1.1-1.3-2-2.8-2.5-4.4c-0.8-2.2-0.8-4.2-0.6-6.5c0.1-1.4,0.2-2.7,0.6-4C225.6,48.4,226.3,46.3,226.8,45.3z M280.6,46.5
			c0,1.3-1.1,2.4-2.4,2.4h-7c-0.8,0-1.6,0.4-2.1,1l-2.6,3.4v-1.7c0-1.5-1.2-2.7-2.7-2.7h-3.1c-0.4,0-0.8-0.1-1.1-0.3v-1.4
			c0-2.3-0.4-4.6-1.3-6.6V28.9c0-1.3,1.1-2.4,2.4-2.4h17.5c1.3,0,2.4,1.1,2.4,2.4V46.5z"/>
	</g>
</g>
<g>
	<rect x="355.5" y="120.8" class="st11" width="82" height="82"/>
	<g id="Layer_7_3_">
		<path class="st8" d="M370.3,152.4H408c0.6,0,1-0.5,1-1v-16.8c0-0.6-0.5-1-1-1h-37.7c-0.6,0-1,0.5-1,1v16.8
			C369.3,151.9,369.7,152.4,370.3,152.4z M371.3,135.6H407v14.7h-35.6V135.6z"/>
		<path class="st8" d="M369.3,164.9h6.3c0.6,0,1-0.5,1-1V158l2.8-2.8l-1.5-1.5l-2.8,2.8h-5.9c-0.6,0-1,0.5-1,1v6.3
			C368.2,164.5,368.7,164.9,369.3,164.9z M374.5,162.9h-2.7l2.7-2.7V162.9z M373,158.7l-2.7,2.7v-2.7H373z"/>
		<path class="st8" d="M375.5,177.5h-6.3c-0.6,0-1,0.5-1,1v6.3c0,0.6,0.5,1,1,1h6.3c0.6,0,1-0.5,1-1v-6.3
			C376.6,178,376.1,177.5,375.5,177.5z M374.5,183.8h-4.2v-4.2h4.2V183.8z"/>
		<path class="st8" d="M376.9,165.3l-1.8,1.8h-5.9c-0.6,0-1,0.5-1,1v6.3c0,0.6,0.5,1,1,1h6.3c0.6,0,1-0.5,1-1v-5.9l1.8-1.8
			L376.9,165.3z M373,169.1l-2.7,2.7v-2.7H373z M374.5,173.3h-2.7l2.7-2.7V173.3z"/>
		<path class="st8" d="M378.7,157.6h30.4v2.1h-30.4V157.6z"/>
		<path class="st8" d="M378.7,178.6h13.6v2.1h-13.6V178.6z"/>
		<path class="st8" d="M378.7,182.8h30.4v2.1h-30.4V182.8z"/>
		<path class="st8" d="M428.7,151.6l-4.2-4.2c-0.4-0.4-1.1-0.4-1.5,0c0,0,0,0,0,0l-8.7,8.7v-25.8c0-0.6-0.5-1-1-1h-48.2
			c-0.6,0-1,0.5-1,1v62.9c0,0.6,0.5,1,1,1h48.2c0.6,0,1-0.5,1-1v-25.8l14.4-14.4C429.1,152.7,429.1,152,428.7,151.6
			C428.7,151.6,428.7,151.6,428.7,151.6L428.7,151.6z M399,175.2l2,2l-3.5,1.5L399,175.2z M400.1,173.3l19.5-19.5l2.7,2.7
			l-19.5,19.5L400.1,173.3z M412.2,192.2h-46.1v-60.8h46.1v26.8l-3.6,3.6h-30v2.1h27.9l-4.2,4.2h-23.7v2.1h21.6l-2.1,2.1h-19.5v2.1
			H397l-2.5,5.9c-0.2,0.5,0,1.1,0.6,1.4c0.1,0.1,0.3,0.1,0.4,0.1c0.1,0,0.3,0,0.4-0.1l7.3-3.1c0.1-0.1,0.2-0.1,0.3-0.2l8.7-8.7
			V192.2z M423.8,155.1l-2.7-2.7l2.7-2.7l2.7,2.7L423.8,155.1z"/>
	</g>
</g>
<g>
	<rect x="63.8" y="120.8" class="st10" width="82" height="82"/>
	<g>
		<g>
			<path class="st8" d="M84.7,161.5v-0.9c0-1.1,0.9-2,2-2h1.6c-0.1,1.8,0,3.2,0.4,5h-2C85.6,163.5,84.7,162.6,84.7,161.5z
				 M124.9,161.5c0,1.1-0.9,2-2,2h-1.2c0.3-1.2,0.4-2.4,0.4-3.6c0-0.4,0-0.9,0-1.3h0.8c1.1,0,2,0.9,2,2V161.5z M89,153.2
				c-0.3,1.1-0.4,2.2-0.6,3.4h-1.8c-0.3,0-0.5,0-0.8,0.1l-0.2-7.8c-0.1-3.1,2-5.9,5-6.6c0.3-0.1,0.5-0.2,0.6-0.5
				c2.3-4.1,6.7-6.6,11.4-6.6h4.5c9,0,16.3,7.3,16.3,16.3v5.2c-0.2,0-0.4,0-0.6,0v0h-1c-0.1-1.1-0.3-2.2-0.5-3.3
				c-0.5-2-2.3-3.5-4.3-3.6c0,0-8.4-0.3-11.2-0.7c-3.9-0.6-5.8-1.3-6.8-2.1c-0.6-0.6-1.3-1.2-2-2c-0.5-0.6-1.2-0.9-2-0.9h0
				c-0.7,0-1.5,0.3-2,0.9c-1,1.1-1.9,2.3-2.5,3.7C90.2,149.7,89.4,152,89,153.2z M103.4,173.5c-3.6-0.4-6.5-2.4-6.5-2.4l-3.3-2.6
				c-1.1-1.3-2-2.8-2.5-4.4c-0.8-2.2-0.8-4.2-0.6-6.6c0.1-1.4,0.2-2.7,0.6-4c0.3-1.1,1.1-3.2,1.5-4.2c0.5-1.3,1.4-2.3,2.2-3.3
				c0.2-0.2,0.3-0.2,0.4-0.2c0.1,0,0.3,0,0.5,0.2c0.8,0.9,1.5,1.6,2.2,2.2c0.8,0.7,3.8,1.6,5.3,2c3.7,0.8,13.8,1.3,13.8,1.3
				c1.2,0.1,2.2,0.9,2.5,2.1c0.3,1.2,0.5,2.5,0.6,3.9c0.1,0.7,0.1,1.5,0.1,2.3c0,1.5-0.2,2.9-0.7,4.3c-1.5,4.3-4.9,6.9-7.1,8.2
				C112.3,172.3,107.5,174,103.4,173.5z M97.6,181.4c-0.4,0.2-0.7,0.1-3.2,0.6c-1.4,0.2-3.9,1.2-5,2.1c-1,0.8-1.6,2.1-2.3,3.2
				c-0.7,1.1-0.9,2.4-1,3.8l-0.4,3.3c0,0.7,0.2,1.3,0.6,1.8c0.5,0.5,1.1,0.8,1.8,0.8l34.3,0.3c0.7,0,1.3-0.3,1.8-0.8
				c0.5-0.5,0.7-1.2,0.6-1.8l-0.4-5.2c-0.1-1.3-0.3-2.7-1-3.8c-0.7-1.1-1.3-2.3-2.3-3.2c-1.1-0.9-3.6-1.9-5-2.1
				c-2.6-0.4-2.8-0.4-3.2-0.6c-0.7-0.3-1.2-1-1.2-1.8l-0.2-2.8c0,0,2-1.2,2.1-1.3c2.4-1.4,5.8-4.1,7.6-8.5h1.9c2.2,0,4-1.8,4-4v-0.9
				c0-1.2-0.6-2.3-1.4-3.1v-2.6c0,0,0-1.6,0-2.1c-0.1-2-0.3-6-1.3-8c-0.4-1-1.5-2.8-2-3.8c-3-4.9-8.8-7.9-15.1-7.9h-4.5
				c-5.3,0-10.2,2.8-12.9,7.3c-3.7,1.2-6.2,4.6-6.1,8.5l0.3,8.8c-0.8,0.7-1.3,1.8-1.3,2.9v0.9c0,2.2,1.8,4,4,4h2.7
				c0.7,1.7,1.7,3.3,3,4.7l4.3,3.7l1.8,0.9l1.7,0.5c0,0-0.2,3.4-0.5,4.1c-0.2,0.6-1,1.4-1,1.4L97.6,181.4z M97.6,183.5l0.3-0.1
				l2.9,0.9l2.4,0.4c0.6,0.1,1.3,0.2,2,0.2c2.8,0,5.5-1.1,7.5-3l0,0c0.2,0,0,0,3,0.5c1.1,0.2,3.4,1.2,3.6,1.3
				c0.8,0.4,1.8,2.1,2.2,2.9c0.5,0.9,0.8,1.9,0.8,3l0.4,5.2c0,0.2-0.1,0.3-0.1,0.3s-0.1,0.1-0.3,0.1h-4.6v-4.1c0-0.6-0.5-1-1-1
				c-0.6,0-1,0.5-1,1v4.1L97.2,195l-0.7-0.1v-4.1c0-0.6-0.5-1-1-1c-0.6,0-1,0.5-1,1v4.1l-1.8,0.1H88c-0.2,0-0.3-0.1-0.3-0.1
				c0,0-0.1-0.2-0.1-0.3l0.4-3.3c0.1-1.1,0.3-2.1,0.8-3c0.4-0.8,1.4-2.5,2.2-2.9c0.2-0.1,2.5-1.1,3.6-1.3
				C97.6,183.5,97.5,183.5,97.6,183.5 M100.4,181.3c0.9-0.3,1-3.5,1.1-4.5c0,0,2.1,0.4,2.4,0.5c1,0.2,2.4,0.2,3.4,0
				c0.8-0.2,2.2-0.5,2.2-0.5c0.1,1,0.5,3.8,1.3,4.2c-1.5,1.3-3.3,2-5.5,2c0,0-1.8-0.2-2.5-0.4C102.2,182.3,100.4,181.3,100.4,181.3z
				"/>
			<path class="st8" d="M89.1,165.2c1.8,4.4,5.2,7.1,7.6,8.5"/>
			<path class="st8" d="M97.8,182c2,1.9,4.7,3,7.5,3"/>
		</g>
		<g>
			<g>
				<path class="st13" d="M120.9,133.6c0,1.7-0.6,3.3-1.7,4.6c-1,1.1-1.6,2.5-1.7,3.8h-7.1c-0.2-1.4-0.8-2.7-1.7-3.8
					c-1.5-1.7-2.1-3.9-1.6-6.2c0.6-2.6,2.7-4.8,5.3-5.3"/>
				<path class="st13" d="M112.4,126.7c4.5-0.9,8.5,2.4,8.5,6.8"/>
			</g>
			<g>
				<g>
					<path class="st8" d="M113.9,128c-0.4,0-0.7,0.3-0.7,0.7c0,0.4,0.3,0.7,0.7,0.7c2.3,0,4.2,1.9,4.2,4.2c0,0.4,0.3,0.7,0.7,0.7
						s0.7-0.3,0.7-0.7C119.5,130.5,117,128,113.9,128z"/>
				</g>
			</g>
			<g>
				<g>
					<path class="st8" d="M112.1,125.4c-3.2,0.7-5.7,3.2-6.4,6.4c-0.6,2.7,0.1,5.4,1.9,7.4c0.9,1,1.4,2.3,1.4,3.6v1.4
						c0,0.9,0.6,1.7,1.5,2c0.3,1.6,1.7,3,3.5,3c1.8,0,3.2-1.3,3.5-3c0.8-0.3,1.5-1.1,1.5-2v-1.4c0-1.3,0.5-2.6,1.4-3.6
						c1.3-1.5,2.1-3.5,2.1-5.5C122.3,128.3,117.4,124.2,112.1,125.4z M113.9,147.7c-0.9,0-1.7-0.6-2-1.5h4
						C115.6,147.1,114.8,147.7,113.9,147.7z M117.4,144.1c0,0.4-0.3,0.7-0.7,0.7h-5.6c-0.4,0-0.7-0.3-0.7-0.7v-0.7h7V144.1z
						 M119.2,138.2c-1,1.1-1.6,2.5-1.7,3.8h-7.1c-0.2-1.4-0.8-2.7-1.7-3.8c-1.5-1.7-2.1-3.9-1.6-6.2c0.6-2.6,2.7-4.8,5.3-5.3
						c4.5-0.9,8.5,2.4,8.5,6.8C120.9,135.3,120.3,136.9,119.2,138.2z"/>
				</g>
			</g>
			<g>
				<g>
					<path class="st8" d="M104,133.6h-1.4c-0.4,0-0.7,0.3-0.7,0.7s0.3,0.7,0.7,0.7h1.4c0.4,0,0.7-0.3,0.7-0.7S104.4,133.6,104,133.6
						z"/>
				</g>
			</g>
			<g>
				<g>
					<path class="st8" d="M104.3,130.1l-1-1c-0.3-0.3-0.7-0.3-1,0c-0.3,0.3-0.3,0.7,0,1l1,1c0.3,0.3,0.7,0.3,1,0
						C104.6,130.8,104.6,130.3,104.3,130.1z"/>
				</g>
			</g>
			<g>
				<g>
					<path class="st8" d="M104.3,137.5c-0.3-0.3-0.7-0.3-1,0l-1,1c-0.3,0.3-0.3,0.7,0,1c0.3,0.3,0.7,0.3,1,0l1-1
						C104.6,138.2,104.6,137.8,104.3,137.5z"/>
				</g>
			</g>
			<g>
				<g>
					<path class="st8" d="M125.1,133.6h-1.4c-0.4,0-0.7,0.3-0.7,0.7s0.3,0.7,0.7,0.7h1.4c0.4,0,0.7-0.3,0.7-0.7
						S125.5,133.6,125.1,133.6z"/>
				</g>
			</g>
			<g>
				<g>
					<path class="st8" d="M125.4,129.1c-0.3-0.3-0.7-0.3-1,0l-1,1c-0.3,0.3-0.3,0.7,0,1c0.3,0.3,0.7,0.3,1,0l1-1
						C125.7,129.8,125.7,129.4,125.4,129.1z"/>
				</g>
			</g>
			<g>
				<g>
					<path class="st8" d="M125.4,138.5l-1-1c-0.3-0.3-0.7-0.3-1,0c-0.3,0.3-0.3,0.7,0,1l1,1c0.3,0.3,0.7,0.3,1,0
						C125.7,139.2,125.7,138.8,125.4,138.5z"/>
				</g>
			</g>
		</g>
	</g>
</g>
<path class="st19" d="M317.4,143.9H183.9c-3.2,0-5.7-2.6-5.7-5.7v-32c0-3.2,2.6-5.7,5.7-5.7h133.5c3.2,0,5.7,2.6,5.7,5.7v32
	C323.1,141.4,320.6,143.9,317.4,143.9z"/>
<g>
	<g>
		<path class="st1" d="M197.7,119.6v-12h3.2c0.9,0,2.1,0.1,2.8,0.8c0.7,0.7,1,1.6,1,2.6c0,1.3-0.4,2.6-1.7,3.2
			c-0.8,0.4-2.2,0.4-3.1,0.4H199v5.1H197.7z M199,113.3h1.3c1.8,0,2.9-0.3,2.9-2.3c0-1.9-1.2-2.2-2.8-2.2H199V113.3z"/>
		<path class="st1" d="M206.4,119.6v-12h1.3v12H206.4z"/>
		<path class="st1" d="M215.5,119.6c-0.1,0-0.2,0-0.3,0.1c-1.1,0-1.5,0-1.6-1.3h0c-0.3,0.8-1.1,1.4-2,1.4c-1.8,0-2.3-1-2.3-2.6
			c0-0.3,0-1.6,1.3-2.2c0.7-0.3,2.5-1,2.7-1.1c0.3-0.2,0.2-0.6,0.2-1c0-1-0.4-1.4-1.4-1.4c-1.2,0-1.3,0.5-1.3,1.6h-1.1
			c-0.1-1.8,0.8-2.6,2.6-2.6c2.6,0,2.4,2.2,2.4,2.4v5.1c0,0.2,0,0.5,0.2,0.7c0.2,0,0.4,0,0.5,0V119.6z M213.4,114.8
			c-0.6,0.4-1.3,0.6-2,1c-0.6,0.3-0.8,0.9-0.8,1.5c0,0.9,0.2,1.5,1.2,1.5c0.5,0,1.5-0.4,1.5-1.8V114.8z"/>
		<path class="st1" d="M218.3,111.7L218.3,111.7c0.6-0.8,1.3-1.2,2.3-1.2c1.3,0,2.2,0.7,2.2,2.3v6.9h-1.3v-6.5
			c0-0.9-0.3-1.6-1.3-1.6c-0.5,0-0.9,0.2-1.2,0.5c-0.5,0.5-0.6,1-0.6,1.6v6h-1.3v-8.9h1.2V111.7z"/>
		<path class="st1" d="M226.6,110.7h1.5v1.1h-1.5v6.1c0,0.3-0.1,0.7,0.6,0.7h0.8v1.1h-1.4c-0.8,0-1.3-0.1-1.3-1.5v-6.4h-1.2v-1.1
			h1.2v-2.4h1.2V110.7z"/>
		<path class="st1" d="M234.7,116.7c0.1,1.7-0.8,3.2-2.7,3.2c-1.7,0-2.9-1.1-2.9-4.7c0-1.9,0.5-4.7,2.8-4.7c2.9,0,2.7,2.7,2.8,4.8
			h-4.3c0,1.2-0.2,3.5,1.6,3.5c1.2,0,1.6-1.1,1.5-2.1H234.7z M233.4,114.3c0-1,0-2.7-1.5-2.7c-1.5,0-1.5,1.6-1.6,2.7H233.4z"/>
		<path class="st1" d="M242.2,119.6c-0.1,0-0.2,0-0.3,0.1c-1.1,0-1.5,0-1.6-1.3h0c-0.3,0.8-1.1,1.4-2,1.4c-1.8,0-2.3-1-2.3-2.6
			c0-0.3,0-1.6,1.3-2.2c0.7-0.3,2.5-1,2.7-1.1c0.3-0.2,0.2-0.6,0.2-1c0-1-0.4-1.4-1.4-1.4c-1.2,0-1.3,0.5-1.3,1.6h-1.1
			c-0.1-1.8,0.8-2.6,2.6-2.6c2.6,0,2.4,2.2,2.4,2.4v5.1c0,0.2,0,0.5,0.2,0.7c0.2,0,0.4,0,0.5,0V119.6z M240.1,114.8
			c-0.6,0.4-1.3,0.6-2,1c-0.6,0.3-0.8,0.9-0.8,1.5c0,0.9,0.2,1.5,1.2,1.5c0.5,0,1.5-0.4,1.5-1.8V114.8z"/>
		<path class="st1" d="M245.1,119.6h-1.3v-8.9h1.2v1.1h0c0.4-0.8,1.2-1.4,2.1-1.4c0.9,0,1.7,0.6,2.1,1.4c0.6-0.9,1.3-1.4,2.4-1.4
			c0.6,0,1.2,0.2,1.6,0.6c0.6,0.5,0.5,1.5,0.5,2.1v6.4h-1.3v-6.5c0-1-0.3-1.6-1.4-1.6c-0.4,0-0.9,0.2-1.2,0.5
			c-0.5,0.5-0.6,1-0.6,1.6v6h-1.3v-6.5c0-0.9-0.3-1.6-1.3-1.6c-0.5,0-0.9,0.2-1.2,0.5c-0.5,0.5-0.5,1-0.5,1.6V119.6z"/>
		<path class="st1" d="M256.3,109.2v-1.6h1.3v1.6H256.3z M256.3,119.6v-8.9h1.3v8.9H256.3z"/>
		<path class="st1" d="M264.9,116.7c0.1,1.7-0.8,3.2-2.7,3.2c-1.7,0-2.9-1.1-2.9-4.7c0-1.9,0.5-4.7,2.8-4.7c2.9,0,2.7,2.7,2.8,4.8
			h-4.3c0,1.2-0.2,3.5,1.6,3.5c1.2,0,1.6-1.1,1.5-2.1H264.9z M263.7,114.3c0-1,0-2.7-1.5-2.7c-1.5,0-1.5,1.6-1.6,2.7H263.7z"/>
		<path class="st1" d="M268.2,111.7L268.2,111.7c0.6-0.8,1.3-1.2,2.3-1.2c1.3,0,2.2,0.7,2.2,2.3v6.9h-1.3v-6.5
			c0-0.9-0.3-1.6-1.3-1.6c-0.5,0-0.9,0.2-1.2,0.5c-0.5,0.5-0.6,1-0.6,1.6v6H267v-8.9h1.2V111.7z"/>
		<path class="st1" d="M276.4,110.7h1.5v1.1h-1.5v6.1c0,0.3-0.1,0.7,0.6,0.7h0.8v1.1h-1.4c-0.8,0-1.3-0.1-1.3-1.5v-6.4H274v-1.1h1.2
			v-2.4h1.2V110.7z"/>
		<path class="st1" d="M282.3,119.9c-1.9,0-3.2-1.2-3.2-5c0-2.7,1-4.4,3.2-4.4s3.2,1.7,3.2,4.4C285.5,118.7,284.2,119.9,282.3,119.9
			z M282.3,111.6c-1.3,0-1.9,1-1.9,3.7c0,2.1,0.4,3.5,1.9,3.5c1.5,0,1.9-1.4,1.9-3.5C284.1,112.6,283.6,111.6,282.3,111.6z"/>
		<path class="st1" d="M295.8,107.6h1.3v12h-1.2v-1.2h0c-0.5,1.1-1.1,1.4-2.2,1.4c-2.8,0-2.6-3.9-2.6-4.7c-0.1-2.6,0.8-4.7,2.7-4.7
			c0.9,0,1.5,0.4,2,1.2h0V107.6z M295.8,115c0-1.2,0-3.5-1.7-3.5c-1.1,0-1.7,0.8-1.7,3.6c0,1.9,0.1,3.7,1.8,3.7
			c1.3,0,1.7-1.6,1.7-2.7V115z"/>
		<path class="st1" d="M304.6,116.7c0.1,1.7-0.8,3.2-2.7,3.2c-1.7,0-2.9-1.1-2.9-4.7c0-1.9,0.5-4.7,2.8-4.7c2.9,0,2.7,2.7,2.8,4.8
			h-4.3c0,1.2-0.2,3.5,1.6,3.5c1.2,0,1.6-1.1,1.5-2.1H304.6z M303.3,114.3c0-1,0-2.7-1.5-2.7c-1.5,0-1.5,1.6-1.6,2.7H303.3z"/>
		<path class="st1" d="M306.6,119.6v-12h1.3v12H306.6z"/>
		<path class="st1" d="M225.3,139.6H224v-11.9h1.2v1h0c0.4-0.8,1.1-1.2,1.8-1.2c2.3,0,2.9,2.3,2.9,4.1c0,2.5-0.4,5.3-2.8,5.3
			c-0.9,0-1.4-0.4-1.9-1.2h0V139.6z M226.9,128.6c-1.6,0-1.7,2.3-1.7,3.6c0,1.2,0,3.6,1.7,3.6c1.3,0,1.7-1.4,1.7-3.8
			C228.7,130.9,228.5,128.6,226.9,128.6z"/>
		<path class="st1" d="M233.4,129.2L233.4,129.2c0.6-1.2,1.3-1.7,2.6-1.6v1.2c-1.6-0.3-2.6,0.7-2.6,2.4v5.4h-1.3v-8.9h1.2V129.2z"/>
		<path class="st1" d="M240.2,136.9c-1.9,0-3.2-1.2-3.2-5c0-2.7,1-4.4,3.2-4.4s3.2,1.7,3.2,4.4C243.4,135.7,242.1,136.9,240.2,136.9
			z M240.2,128.6c-1.3,0-1.9,1-1.9,3.7c0,2.1,0.4,3.5,1.9,3.5c1.5,0,1.9-1.4,1.9-3.5C242.1,129.6,241.5,128.6,240.2,128.6z"/>
		<path class="st1" d="M246.6,136.6h-1.2v-12h1.3v4h0c0.5-0.8,1.1-1.2,1.9-1.2c2.3,0,2.8,2.3,2.8,4.1c0,2.5-0.3,5.3-2.7,5.3
			c-0.8,0-1.5-0.3-2-1.3h0V136.6z M248.4,135.8c1.3,0,1.7-1.4,1.7-3.8c0-1.2-0.1-3.5-1.7-3.5c-1.9,0-1.8,2.5-1.8,3.8
			S246.6,135.8,248.4,135.8z"/>
		<path class="st1" d="M253.4,136.6v-12h1.3v12H253.4z"/>
		<path class="st1" d="M262.1,133.7c0.1,1.7-0.8,3.2-2.7,3.2c-1.7,0-2.9-1.1-2.9-4.7c0-1.9,0.5-4.7,2.8-4.7c2.9,0,2.7,2.7,2.8,4.8
			h-4.3c0,1.2-0.2,3.5,1.6,3.5c1.2,0,1.6-1.1,1.5-2.1H262.1z M260.8,131.3c0-1,0-2.7-1.5-2.7c-1.5,0-1.5,1.6-1.6,2.7H260.8z"/>
		<path class="st1" d="M265.4,136.6h-1.3v-8.9h1.2v1.1h0c0.4-0.8,1.2-1.4,2.1-1.4c0.9,0,1.7,0.6,2.1,1.4c0.6-0.9,1.3-1.4,2.4-1.4
			c0.6,0,1.2,0.2,1.6,0.6c0.6,0.5,0.5,1.5,0.5,2.1v6.4h-1.3v-6.5c0-1-0.3-1.6-1.4-1.6c-0.4,0-0.9,0.2-1.2,0.5
			c-0.5,0.5-0.6,1-0.6,1.6v6h-1.3v-6.5c0-0.9-0.3-1.6-1.3-1.6c-0.5,0-0.9,0.2-1.2,0.5c-0.5,0.5-0.5,1-0.5,1.6V136.6z"/>
		<path class="st1" d="M282.1,136.6c-0.1,0-0.2,0-0.3,0.1c-1.1,0-1.5,0-1.6-1.3h0c-0.3,0.8-1.1,1.4-2,1.4c-1.8,0-2.3-1-2.3-2.6
			c0-0.3,0-1.6,1.3-2.2c0.7-0.3,2.5-1,2.7-1.1c0.3-0.2,0.2-0.6,0.2-1c0-1-0.4-1.4-1.4-1.4c-1.2,0-1.3,0.5-1.3,1.6h-1.1
			c-0.1-1.8,0.8-2.6,2.6-2.6c2.6,0,2.4,2.2,2.4,2.4v5.1c0,0.2,0,0.5,0.2,0.7c0.2,0,0.4,0,0.5,0V136.6z M280,131.8
			c-0.6,0.4-1.3,0.6-2,1c-0.6,0.3-0.8,0.9-0.8,1.5c0,0.9,0.2,1.5,1.2,1.5c0.5,0,1.5-0.4,1.5-1.8V131.8z"/>
	</g>
</g>
<path class="st19" d="M463.7,277.9H329.3c-2.9,0-5.3-2.4-5.3-5.3v-64.4c0-2.9,2.4-5.3,5.3-5.3h134.4c2.9,0,5.3,2.4,5.3,5.3v64.4
	C469,275.6,466.6,277.9,463.7,277.9z"/>
<g>
	<g>
		<path class="st1" d="M359.4,220.4v-12h3.2c0.9,0,2.1,0.1,2.8,0.8c0.7,0.7,1,1.6,1,2.6c0,1.3-0.4,2.6-1.7,3.2
			c-0.8,0.4-2.2,0.4-3.1,0.4h-0.8v5.1H359.4z M360.7,214.2h1.3c1.8,0,2.9-0.3,2.9-2.3c0-1.9-1.2-2.2-2.8-2.2h-1.4V214.2z"/>
		<path class="st1" d="M369.4,213L369.4,213c0.6-1.2,1.3-1.7,2.6-1.6v1.2c-1.6-0.3-2.6,0.7-2.6,2.4v5.4h-1.3v-8.9h1.2V213z"/>
		<path class="st1" d="M376.3,220.7c-1.9,0-3.2-1.2-3.2-5c0-2.7,1-4.4,3.2-4.4s3.2,1.7,3.2,4.4C379.4,219.6,378.2,220.7,376.3,220.7
			z M376.3,212.4c-1.3,0-1.9,1-1.9,3.7c0,2.1,0.4,3.5,1.9,3.5c1.5,0,1.9-1.4,1.9-3.5C378.1,213.4,377.6,212.4,376.3,212.4z"/>
		<path class="st1" d="M382.8,220.4h-1.3v-8.9h1.2v1.1h0c0.4-0.8,1.2-1.4,2.1-1.4c0.9,0,1.7,0.6,2.1,1.4c0.6-0.9,1.3-1.4,2.4-1.4
			c0.6,0,1.2,0.2,1.6,0.6c0.6,0.5,0.5,1.5,0.5,2.1v6.4h-1.3v-6.5c0-1-0.3-1.6-1.4-1.6c-0.4,0-0.9,0.2-1.2,0.5
			c-0.5,0.5-0.6,1-0.6,1.6v6h-1.3v-6.5c0-0.9-0.3-1.6-1.3-1.6c-0.5,0-0.9,0.2-1.2,0.5c-0.5,0.5-0.5,1-0.5,1.6V220.4z"/>
		<path class="st1" d="M396.7,220.7c-1.9,0-3.2-1.2-3.2-5c0-2.7,1-4.4,3.2-4.4s3.2,1.7,3.2,4.4C399.9,219.6,398.7,220.7,396.7,220.7
			z M396.7,212.4c-1.3,0-1.9,1-1.9,3.7c0,2.1,0.4,3.5,1.9,3.5c1.5,0,1.9-1.4,1.9-3.5C398.6,213.4,398.1,212.4,396.7,212.4z"/>
		<path class="st1" d="M401,211.5h1.3l2,7.8h0l2-7.8h1.3l-2.7,8.9h-1.4L401,211.5z"/>
		<path class="st1" d="M414.1,217.5c0.1,1.7-0.8,3.2-2.7,3.2c-1.7,0-2.9-1.1-2.9-4.7c0-1.9,0.5-4.7,2.8-4.7c2.9,0,2.7,2.7,2.8,4.8
			h-4.3c0,1.2-0.2,3.5,1.6,3.5c1.2,0,1.6-1.1,1.5-2.1H414.1z M412.9,215.1c0-1,0-2.7-1.5-2.7c-1.5,0-1.5,1.6-1.6,2.7H412.9z"/>
		<path class="st1" d="M417.5,213L417.5,213c0.6-1.2,1.3-1.7,2.6-1.6v1.2c-1.6-0.3-2.6,0.7-2.6,2.4v5.4h-1.3v-8.9h1.2V213z"/>
		<path class="st1" d="M425.5,220.4v-12h1.3v12H425.5z"/>
		<path class="st1" d="M434.6,220.4c-0.1,0-0.2,0-0.3,0.1c-1.1,0-1.5,0-1.6-1.3h0c-0.3,0.8-1.1,1.4-2,1.4c-1.8,0-2.3-1-2.3-2.6
			c0-0.3,0-1.6,1.3-2.2c0.7-0.3,2.5-1,2.7-1.1c0.3-0.2,0.2-0.6,0.2-1c0-1-0.4-1.4-1.4-1.4c-1.2,0-1.3,0.5-1.3,1.6h-1.1
			c-0.1-1.8,0.8-2.6,2.6-2.6c2.6,0,2.4,2.2,2.4,2.4v5.1c0,0.2,0,0.5,0.2,0.7c0.2,0,0.4,0,0.5,0V220.4z M432.5,215.6
			c-0.6,0.4-1.3,0.6-2,1c-0.6,0.3-0.8,0.9-0.8,1.5c0,0.9,0.2,1.5,1.2,1.5c0.5,0,1.5-0.4,1.5-1.8V215.6z"/>
		<path class="st1" d="M337.1,230L337.1,230c0.6-1.2,1.3-1.7,2.6-1.6v1.2c-1.6-0.3-2.6,0.7-2.6,2.4v5.4h-1.3v-8.9h1.2V230z"/>
		<path class="st1" d="M346.2,234.5c0.1,1.7-0.8,3.2-2.7,3.2c-1.7,0-2.9-1.1-2.9-4.7c0-1.9,0.5-4.7,2.8-4.7c2.9,0,2.7,2.7,2.8,4.8
			H342c0,1.2-0.2,3.5,1.6,3.5c1.2,0,1.6-1.1,1.5-2.1H346.2z M345,232.1c0-1,0-2.7-1.5-2.7c-1.5,0-1.5,1.6-1.6,2.7H345z"/>
		<path class="st1" d="M349.1,233.4c0,1.2,0.1,3.2,1.7,3.2c1.4,0,1.5-1.2,1.6-2.3h1.2c0,1.7-0.7,3.3-2.7,3.3c-2.7,0-3.1-2.3-3.1-4.6
			c0-2.2,0.4-4.8,3.1-4.8c1.8,0,2.7,1.4,2.6,3h-1.2c0-1-0.3-2-1.5-2C349,229.4,349.1,232.1,349.1,233.4z"/>
		<path class="st1" d="M359.7,236.3L359.7,236.3c-0.5,0.9-1.3,1.4-2.1,1.4c-1.3,0-2.1-0.7-2.1-2.3v-6.9h1.3v6.9
			c0,0.8,0.2,1.2,1.1,1.2c0.6,0,1.2-0.3,1.5-0.8c0.3-0.4,0.4-1.1,0.4-1.6v-5.7h1.3v8.9h-1.3V236.3z"/>
		<path class="st1" d="M364.6,240.5h-1.3v-11.9h1.2v1h0c0.4-0.8,1.1-1.2,1.8-1.2c2.3,0,2.9,2.3,2.9,4.1c0,2.5-0.4,5.3-2.8,5.3
			c-0.9,0-1.4-0.4-1.9-1.2h0V240.5z M366.3,229.4c-1.6,0-1.7,2.3-1.7,3.6c0,1.2,0,3.6,1.7,3.6c1.3,0,1.7-1.4,1.7-3.8
			C368.1,231.7,367.9,229.4,366.3,229.4z"/>
		<path class="st1" d="M376.5,234.5c0.1,1.7-0.8,3.2-2.7,3.2c-1.7,0-2.9-1.1-2.9-4.7c0-1.9,0.5-4.7,2.8-4.7c2.9,0,2.7,2.7,2.8,4.8
			h-4.3c0,1.2-0.2,3.5,1.6,3.5c1.2,0,1.6-1.1,1.5-2.1H376.5z M375.2,232.1c0-1,0-2.7-1.5-2.7c-1.5,0-1.5,1.6-1.6,2.7H375.2z"/>
		<path class="st1" d="M379.9,230L379.9,230c0.6-1.2,1.3-1.7,2.6-1.6v1.2c-1.6-0.3-2.6,0.7-2.6,2.4v5.4h-1.3v-8.9h1.2V230z"/>
		<path class="st1" d="M389.4,237.4c-0.1,0-0.2,0-0.3,0.1c-1.1,0-1.5,0-1.6-1.3h0c-0.3,0.8-1.1,1.4-2,1.4c-1.8,0-2.3-1-2.3-2.6
			c0-0.3,0-1.6,1.3-2.2c0.7-0.3,2.5-1,2.7-1.1c0.3-0.2,0.2-0.6,0.2-1c0-1-0.4-1.4-1.4-1.4c-1.2,0-1.3,0.5-1.3,1.6h-1.1
			c-0.1-1.8,0.8-2.6,2.6-2.6c2.6,0,2.4,2.2,2.4,2.4v5.1c0,0.2,0,0.5,0.2,0.7c0.2,0,0.4,0,0.5,0V237.4z M387.3,232.6
			c-0.6,0.4-1.3,0.6-2,1c-0.6,0.3-0.8,0.9-0.8,1.5c0,0.9,0.2,1.5,1.2,1.5c0.5,0,1.5-0.4,1.5-1.8V232.6z"/>
		<path class="st1" d="M391.8,233.4c0,1.2,0.1,3.2,1.7,3.2c1.4,0,1.5-1.2,1.6-2.3h1.2c0,1.7-0.7,3.3-2.7,3.3c-2.7,0-3.1-2.3-3.1-4.6
			c0-2.2,0.4-4.8,3.1-4.8c1.8,0,2.7,1.4,2.6,3h-1.2c0-1-0.3-2-1.5-2C391.7,229.4,391.8,232.1,391.8,233.4z"/>
		<path class="st1" d="M398.1,227v-1.6h1.3v1.6H398.1z M398.1,237.4v-8.9h1.3v8.9H398.1z"/>
		<path class="st1" d="M404.5,237.7c-1.9,0-3.2-1.2-3.2-5c0-2.7,1-4.4,3.2-4.4s3.2,1.7,3.2,4.4C407.7,236.6,406.5,237.7,404.5,237.7
			z M404.5,229.4c-1.3,0-1.9,1-1.9,3.7c0,2.1,0.4,3.5,1.9,3.5c1.5,0,1.9-1.4,1.9-3.5C406.4,230.4,405.8,229.4,404.5,229.4z
			 M404.9,225.2h1.7l-2.1,2.3h-1.1L404.9,225.2z"/>
		<path class="st1" d="M410.9,229.5L410.9,229.5c0.6-0.8,1.3-1.2,2.3-1.2c1.3,0,2.2,0.7,2.2,2.3v6.9h-1.3v-6.5
			c0-0.9-0.3-1.6-1.3-1.6c-0.5,0-0.9,0.2-1.2,0.5c-0.5,0.5-0.6,1-0.6,1.6v6h-1.3v-8.9h1.2V229.5z"/>
		<path class="st1" d="M426.1,225.4h1.3v12h-1.2v-1.2h0c-0.5,1.1-1.1,1.4-2.2,1.4c-2.8,0-2.6-3.9-2.6-4.7c-0.1-2.6,0.8-4.7,2.7-4.7
			c0.9,0,1.5,0.4,2,1.2h0V225.4z M426.1,232.9c0-1.2,0-3.5-1.7-3.5c-1.1,0-1.7,0.8-1.7,3.6c0,1.9,0.1,3.7,1.8,3.7
			c1.3,0,1.7-1.6,1.7-2.7V232.9z"/>
		<path class="st1" d="M434.8,234.5c0.1,1.7-0.8,3.2-2.7,3.2c-1.7,0-2.9-1.1-2.9-4.7c0-1.9,0.5-4.7,2.8-4.7c2.9,0,2.7,2.7,2.8,4.8
			h-4.3c0,1.2-0.2,3.5,1.6,3.5c1.2,0,1.6-1.1,1.5-2.1H434.8z M433.6,232.1c0-1,0-2.7-1.5-2.7c-1.5,0-1.5,1.6-1.6,2.7H433.6z"/>
		<path class="st1" d="M440.9,237.4v-12h1.3v12H440.9z"/>
		<path class="st1" d="M447.3,237.7c-1.9,0-3.2-1.2-3.2-5c0-2.7,1-4.4,3.2-4.4s3.2,1.7,3.2,4.4C450.5,236.6,449.2,237.7,447.3,237.7
			z M447.3,229.4c-1.3,0-1.9,1-1.9,3.7c0,2.1,0.4,3.5,1.9,3.5c1.5,0,1.9-1.4,1.9-3.5C449.2,230.4,448.6,229.4,447.3,229.4z"/>
		<path class="st1" d="M456.1,230.9c0-1.1-0.3-1.6-1.4-1.6c-0.9,0-1.4,0.4-1.4,1.3c0,1.2,0.9,1.3,1.8,1.7c1.3,0.6,2.6,0.9,2.6,2.6
			c0,1.7-1.2,2.8-3,2.7c-0.8,0-1.7-0.3-2.2-0.9c-0.5-0.7-0.5-1.3-0.5-1.9h1.2c0,1.1,0.3,1.8,1.5,1.8c1,0,1.7-0.4,1.7-1.5
			c0-1.3-1.3-1.4-2.2-1.8c-1.4-0.5-2.2-1-2.2-2.5c0-1.5,1.1-2.5,2.6-2.5c1.8,0,2.8,0.8,2.8,2.6H456.1z"/>
		<path class="st1" d="M346.7,250.4c0,1.2,0.1,3.2,1.7,3.2c1.4,0,1.5-1.2,1.6-2.3h1.2c0,1.7-0.7,3.3-2.7,3.3c-2.7,0-3.1-2.3-3.1-4.6
			c0-2.2,0.4-4.8,3.1-4.8c1.8,0,2.7,1.4,2.6,3h-1.2c0-1-0.3-2-1.5-2C346.6,246.4,346.7,249.1,346.7,250.4z"/>
		<path class="st1" d="M355.8,254.7c-1.9,0-3.2-1.2-3.2-5c0-2.7,1-4.4,3.2-4.4s3.2,1.7,3.2,4.4C358.9,253.6,357.7,254.7,355.8,254.7
			z M355.8,246.4c-1.3,0-1.9,1-1.9,3.7c0,2.1,0.4,3.5,1.9,3.5c1.5,0,1.9-1.4,1.9-3.5C357.6,247.4,357.1,246.4,355.8,246.4z"/>
		<path class="st1" d="M362.2,246.5L362.2,246.5c0.6-0.8,1.3-1.2,2.3-1.2c1.3,0,2.2,0.7,2.2,2.3v6.9h-1.3v-6.5
			c0-0.9-0.3-1.6-1.3-1.6c-0.5,0-0.9,0.2-1.2,0.5c-0.5,0.5-0.6,1-0.6,1.6v6h-1.3v-8.9h1.2V246.5z"/>
		<path class="st1" d="M371.8,254.7c-1.9,0-3.2-1.2-3.2-5c0-2.7,1-4.4,3.2-4.4s3.2,1.7,3.2,4.4C375,253.6,373.7,254.7,371.8,254.7z
			 M371.8,246.4c-1.3,0-1.9,1-1.9,3.7c0,2.1,0.4,3.5,1.9,3.5c1.5,0,1.9-1.4,1.9-3.5C373.7,247.4,373.1,246.4,371.8,246.4z"/>
		<path class="st1" d="M377.8,250.4c0,1.2,0.1,3.2,1.7,3.2c1.4,0,1.5-1.2,1.6-2.3h1.2c0,1.7-0.7,3.3-2.7,3.3c-2.7,0-3.1-2.3-3.1-4.6
			c0-2.2,0.4-4.8,3.1-4.8c1.8,0,2.7,1.4,2.6,3H381c0-1-0.3-2-1.5-2C377.7,246.4,377.8,249.1,377.8,250.4z"/>
		<path class="st1" d="M384.1,244v-1.6h1.3v1.6H384.1z M384.1,254.4v-8.9h1.3v8.9H384.1z"/>
		<path class="st1" d="M389,254.4h-1.3v-8.9h1.2v1.1h0c0.4-0.8,1.2-1.4,2.1-1.4c0.9,0,1.7,0.6,2.1,1.4c0.6-0.9,1.3-1.4,2.4-1.4
			c0.6,0,1.2,0.2,1.6,0.6c0.6,0.5,0.5,1.5,0.5,2.1v6.4h-1.3v-6.5c0-1-0.3-1.6-1.4-1.6c-0.4,0-0.9,0.2-1.2,0.5
			c-0.5,0.5-0.6,1-0.6,1.6v6h-1.3v-6.5c0-0.9-0.3-1.6-1.3-1.6c-0.5,0-0.9,0.2-1.2,0.5c-0.5,0.5-0.5,1-0.5,1.6V254.4z"/>
		<path class="st1" d="M400.1,244v-1.6h1.3v1.6H400.1z M400.1,254.4v-8.9h1.3v8.9H400.1z"/>
		<path class="st1" d="M408.8,251.5c0.1,1.7-0.8,3.2-2.7,3.2c-1.7,0-2.9-1.1-2.9-4.7c0-1.9,0.5-4.7,2.8-4.7c2.9,0,2.7,2.7,2.8,4.8
			h-4.3c0,1.2-0.2,3.5,1.6,3.5c1.2,0,1.6-1.1,1.5-2.1H408.8z M407.5,249.1c0-1,0-2.7-1.5-2.7c-1.5,0-1.5,1.6-1.6,2.7H407.5z"/>
		<path class="st1" d="M412,246.5L412,246.5c0.6-0.8,1.3-1.2,2.3-1.2c1.3,0,2.2,0.7,2.2,2.3v6.9h-1.3v-6.5c0-0.9-0.3-1.6-1.3-1.6
			c-0.5,0-0.9,0.2-1.2,0.5c-0.5,0.5-0.6,1-0.6,1.6v6h-1.3v-8.9h1.2V246.5z"/>
		<path class="st1" d="M420.3,245.5h1.5v1.1h-1.5v6.1c0,0.3-0.1,0.7,0.6,0.7h0.8v1.1h-1.4c-0.8,0-1.3-0.1-1.3-1.5v-6.4h-1.2v-1.1
			h1.2v-2.4h1.2V245.5z"/>
		<path class="st1" d="M426.1,254.7c-1.9,0-3.2-1.2-3.2-5c0-2.7,1-4.4,3.2-4.4s3.2,1.7,3.2,4.4C429.3,253.6,428.1,254.7,426.1,254.7
			z M426.1,246.4c-1.3,0-1.9,1-1.9,3.7c0,2.1,0.4,3.5,1.9,3.5c1.5,0,1.9-1.4,1.9-3.5C428,247.4,427.5,246.4,426.1,246.4z"/>
		<path class="st1" d="M435,247.9c0-1.1-0.3-1.6-1.4-1.6c-0.9,0-1.4,0.4-1.4,1.3c0,1.2,0.9,1.3,1.8,1.7c1.3,0.6,2.6,0.9,2.6,2.6
			c0,1.7-1.2,2.8-3,2.7c-0.8,0-1.7-0.3-2.2-0.9c-0.5-0.7-0.5-1.3-0.5-1.9h1.2c0,1.1,0.3,1.8,1.5,1.8c1,0,1.7-0.4,1.7-1.5
			c0-1.3-1.3-1.4-2.2-1.8c-1.4-0.5-2.2-1-2.2-2.5c0-1.5,1.1-2.5,2.6-2.5c1.8,0,2.8,0.8,2.8,2.6H435z"/>
		<path class="st1" d="M441.4,245.5h1.3l2,7.7h0l2.1-7.7h1.3l-2.6,8.5c-0.2,0.5-0.6,1.8-0.8,2.3c-0.5,0.8-1.1,1.2-2,1.2
			c-0.3,0-0.6,0-0.9-0.1v-1.1c0.3,0.1,0.6,0.2,0.9,0.2c1.2,0,1.2-0.9,1.6-1.8L441.4,245.5z"/>
		<path class="st1" d="M351.7,264.9c0-1.1-0.3-1.6-1.4-1.6c-0.9,0-1.4,0.4-1.4,1.3c0,1.2,0.9,1.3,1.8,1.7c1.3,0.6,2.6,0.9,2.6,2.6
			c0,1.7-1.2,2.8-3,2.7c-0.8,0-1.7-0.3-2.2-0.9c-0.5-0.7-0.5-1.3-0.5-1.9h1.2c0,1.1,0.3,1.8,1.5,1.8c1,0,1.7-0.4,1.7-1.5
			c0-1.3-1.3-1.4-2.2-1.8c-1.4-0.5-2.2-1-2.2-2.5c0-1.5,1.1-2.5,2.6-2.5c1.8,0,2.8,0.8,2.8,2.6H351.7z"/>
		<path class="st1" d="M360.7,271.4c-0.1,0-0.2,0-0.3,0.1c-1.1,0-1.5,0-1.6-1.3h0c-0.3,0.8-1.1,1.4-2,1.4c-1.8,0-2.3-1-2.3-2.6
			c0-0.3,0-1.6,1.3-2.2c0.7-0.3,2.5-1,2.7-1.1c0.3-0.2,0.2-0.6,0.2-1c0-1-0.4-1.4-1.4-1.4c-1.2,0-1.3,0.5-1.3,1.6h-1.1
			c-0.1-1.8,0.8-2.6,2.6-2.6c2.6,0,2.4,2.2,2.4,2.4v5.1c0,0.2,0,0.5,0.2,0.7c0.2,0,0.4,0,0.5,0V271.4z M358.6,266.6
			c-0.6,0.4-1.3,0.6-2,1c-0.6,0.3-0.8,0.9-0.8,1.5c0,0.9,0.2,1.5,1.2,1.5c0.5,0,1.5-0.4,1.5-1.8V266.6z"/>
		<path class="st1" d="M363.5,271.4h-1.2v-12h1.3v4h0c0.5-0.8,1.1-1.2,1.9-1.2c2.3,0,2.8,2.3,2.8,4.1c0,2.5-0.3,5.3-2.7,5.3
			c-0.8,0-1.5-0.3-2-1.3h0V271.4z M365.3,270.6c1.3,0,1.7-1.4,1.7-3.8c0-1.2-0.1-3.5-1.7-3.5c-1.9,0-1.8,2.5-1.8,3.8
			S363.5,270.6,365.3,270.6z"/>
		<path class="st1" d="M375.4,268.5c0.1,1.7-0.8,3.2-2.7,3.2c-1.7,0-2.9-1.1-2.9-4.7c0-1.9,0.5-4.7,2.8-4.7c2.9,0,2.7,2.7,2.8,4.8
			h-4.3c0,1.2-0.2,3.5,1.6,3.5c1.2,0,1.6-1.1,1.5-2.1H375.4z M374.1,266.1c0-1,0-2.7-1.5-2.7c-1.5,0-1.5,1.6-1.6,2.7H374.1z"/>
		<path class="st1" d="M378.8,264L378.8,264c0.6-1.2,1.3-1.7,2.6-1.6v1.2c-1.6-0.3-2.6,0.7-2.6,2.4v5.4h-1.3v-8.9h1.2V264z"/>
		<path class="st1" d="M387.9,268.5c0.1,1.7-0.8,3.2-2.7,3.2c-1.7,0-2.9-1.1-2.9-4.7c0-1.9,0.5-4.7,2.8-4.7c2.9,0,2.7,2.7,2.8,4.8
			h-4.3c0,1.2-0.2,3.5,1.6,3.5c1.2,0,1.6-1.1,1.5-2.1H387.9z M386.6,266.1c0-1,0-2.7-1.5-2.7c-1.5,0-1.5,1.6-1.6,2.7H386.6z"/>
		<path class="st1" d="M393.6,264.9c0-1.1-0.3-1.6-1.4-1.6c-0.9,0-1.4,0.4-1.4,1.3c0,1.2,0.9,1.3,1.8,1.7c1.3,0.6,2.6,0.9,2.6,2.6
			c0,1.7-1.2,2.8-3,2.7c-0.8,0-1.7-0.3-2.2-0.9c-0.5-0.7-0.5-1.3-0.5-1.9h1.2c0,1.1,0.3,1.8,1.5,1.8c1,0,1.7-0.4,1.7-1.5
			c0-1.3-1.3-1.4-2.2-1.8c-1.4-0.5-2.2-1-2.2-2.5c0-1.5,1.1-2.5,2.6-2.5c1.8,0,2.8,0.8,2.8,2.6H393.6z"/>
		<path class="st1" d="M402.3,274.5H401v-11.9h1.2v1h0c0.4-0.8,1.1-1.2,1.8-1.2c2.3,0,2.9,2.3,2.9,4.1c0,2.5-0.4,5.3-2.8,5.3
			c-0.9,0-1.4-0.4-1.9-1.2h0V274.5z M404,263.4c-1.6,0-1.7,2.3-1.7,3.6c0,1.2,0,3.6,1.7,3.6c1.3,0,1.7-1.4,1.7-3.8
			C405.7,265.7,405.6,263.4,404,263.4z"/>
		<path class="st1" d="M410.4,264L410.4,264c0.6-1.2,1.3-1.7,2.6-1.6v1.2c-1.6-0.3-2.6,0.7-2.6,2.4v5.4h-1.3v-8.9h1.2V264z"/>
		<path class="st1" d="M419.5,268.5c0.1,1.7-0.8,3.2-2.7,3.2c-1.7,0-2.9-1.1-2.9-4.7c0-1.9,0.5-4.7,2.8-4.7c2.9,0,2.7,2.7,2.8,4.8
			h-4.3c0,1.2-0.2,3.5,1.6,3.5c1.2,0,1.6-1.1,1.5-2.1H419.5z M418.2,266.1c0-1,0-2.7-1.5-2.7c-1.5,0-1.5,1.6-1.6,2.7H418.2z"/>
		<path class="st1" d="M420.5,262.5h1.3l2,7.8h0l2-7.8h1.3l-2.7,8.9h-1.4L420.5,262.5z"/>
		<path class="st1" d="M428.6,261v-1.6h1.3v1.6H428.6z M428.6,271.4v-8.9h1.3v8.9H428.6z"/>
		<path class="st1" d="M435,271.7c-1.9,0-3.2-1.2-3.2-5c0-2.7,1-4.4,3.2-4.4s3.2,1.7,3.2,4.4C438.2,270.6,437,271.7,435,271.7z
			 M435,263.4c-1.3,0-1.9,1-1.9,3.7c0,2.1,0.4,3.5,1.9,3.5c1.5,0,1.9-1.4,1.9-3.5C436.9,264.4,436.4,263.4,435,263.4z"/>
		<path class="st1" d="M443.9,264.9c0-1.1-0.3-1.6-1.4-1.6c-0.9,0-1.4,0.4-1.4,1.3c0,1.2,0.9,1.3,1.8,1.7c1.3,0.6,2.6,0.9,2.6,2.6
			c0,1.7-1.2,2.8-3,2.7c-0.8,0-1.7-0.3-2.2-0.9c-0.5-0.7-0.5-1.3-0.5-1.9h1.2c0,1.1,0.3,1.8,1.5,1.8c1,0,1.7-0.4,1.7-1.5
			c0-1.3-1.3-1.4-2.2-1.8c-1.4-0.5-2.2-1-2.2-2.5c0-1.5,1.1-2.5,2.6-2.5c1.8,0,2.8,0.8,2.8,2.6H443.9z"/>
	</g>
</g>
<path class="st19" d="M183.3,277.5h-157c-2.9,0-5.3-2.4-5.3-5.3v-64c0-2.9,2.4-5.3,5.3-5.3h157c2.9,0,5.3,2.4,5.3,5.3v64
	C188.6,275.1,186.3,277.5,183.3,277.5z"/>
<g>
	<g>
		<path class="st1" d="M36.4,219.4v-12h3.2c0.9,0,2.1,0.1,2.8,0.8c0.7,0.7,1,1.6,1,2.6c0,1.3-0.4,2.6-1.7,3.2
			c-0.8,0.4-2.2,0.4-3.1,0.4h-0.8v5.1H36.4z M37.7,213.2H39c1.8,0,2.9-0.3,2.9-2.3c0-1.9-1.2-2.2-2.8-2.2h-1.4V213.2z"/>
		<path class="st1" d="M46.5,212L46.5,212c0.6-1.2,1.3-1.7,2.6-1.6v1.2c-1.6-0.3-2.6,0.7-2.6,2.4v5.4h-1.3v-8.9h1.2V212z"/>
		<path class="st1" d="M53.3,219.7c-1.9,0-3.2-1.2-3.2-5c0-2.7,1-4.4,3.2-4.4s3.2,1.7,3.2,4.4C56.5,218.6,55.2,219.7,53.3,219.7z
			 M53.3,211.4c-1.3,0-1.9,1-1.9,3.7c0,2.1,0.4,3.5,1.9,3.5c1.5,0,1.9-1.4,1.9-3.5C55.2,212.4,54.6,211.4,53.3,211.4z"/>
		<path class="st1" d="M57.5,210.5h1.3l2,7.8h0l2-7.8h1.3l-2.7,8.9h-1.4L57.5,210.5z"/>
		<path class="st1" d="M68.4,219.7c-1.9,0-3.2-1.2-3.2-5c0-2.7,1-4.4,3.2-4.4s3.2,1.7,3.2,4.4C71.6,218.6,70.4,219.7,68.4,219.7z
			 M68.4,211.4c-1.3,0-1.9,1-1.9,3.7c0,2.1,0.4,3.5,1.9,3.5c1.5,0,1.9-1.4,1.9-3.5C70.3,212.4,69.8,211.4,68.4,211.4z"/>
		<path class="st1" d="M74.5,215.4c0,1.2,0.1,3.2,1.7,3.2c1.4,0,1.5-1.2,1.6-2.3h1.2c0,1.7-0.7,3.3-2.7,3.3c-2.7,0-3.1-2.3-3.1-4.6
			c0-2.2,0.4-4.8,3.1-4.8c1.8,0,2.7,1.4,2.6,3h-1.2c0-1-0.3-2-1.5-2C74.4,211.4,74.5,214.1,74.5,215.4z"/>
		<path class="st1" d="M86.2,219.4c-0.1,0-0.2,0-0.3,0.1c-1.1,0-1.5,0-1.6-1.3h0c-0.3,0.8-1.1,1.4-2,1.4c-1.8,0-2.3-1-2.3-2.6
			c0-0.3,0-1.6,1.3-2.2c0.7-0.3,2.5-1,2.7-1.1c0.3-0.2,0.2-0.6,0.2-1c0-1-0.4-1.4-1.4-1.4c-1.2,0-1.3,0.5-1.3,1.6h-1.1
			c-0.1-1.8,0.8-2.6,2.6-2.6c2.6,0,2.4,2.2,2.4,2.4v5.1c0,0.2,0,0.5,0.2,0.7c0.2,0,0.4,0,0.5,0V219.4z M84.2,214.6
			c-0.6,0.4-1.3,0.6-2,1c-0.6,0.3-0.8,0.9-0.8,1.5c0,0.9,0.2,1.5,1.2,1.5c0.5,0,1.5-0.4,1.5-1.8V214.6z"/>
		<path class="st1" d="M89.2,212L89.2,212c0.6-1.2,1.3-1.7,2.6-1.6v1.2c-1.6-0.3-2.6,0.7-2.6,2.4v5.4H88v-8.9h1.2V212z"/>
		<path class="st1" d="M97.2,219.4v-12h1.3v12H97.2z"/>
		<path class="st1" d="M106.3,219.4c-0.1,0-0.2,0-0.3,0.1c-1.1,0-1.5,0-1.6-1.3h0c-0.3,0.8-1.1,1.4-2,1.4c-1.8,0-2.3-1-2.3-2.6
			c0-0.3,0-1.6,1.3-2.2c0.7-0.3,2.5-1,2.7-1.1c0.3-0.2,0.2-0.6,0.2-1c0-1-0.4-1.4-1.4-1.4c-1.2,0-1.3,0.5-1.3,1.6h-1.1
			c-0.1-1.8,0.8-2.6,2.6-2.6c2.6,0,2.4,2.2,2.4,2.4v5.1c0,0.2,0,0.5,0.2,0.7c0.2,0,0.4,0,0.5,0V219.4z M104.2,214.6
			c-0.6,0.4-1.3,0.6-2,1c-0.6,0.3-0.8,0.9-0.8,1.5c0,0.9,0.2,1.5,1.2,1.5c0.5,0,1.5-0.4,1.5-1.8V214.6z"/>
		<path class="st1" d="M117.4,219.4c-0.1,0-0.2,0-0.3,0.1c-1.1,0-1.5,0-1.6-1.3h0c-0.3,0.8-1.1,1.4-2,1.4c-1.8,0-2.3-1-2.3-2.6
			c0-0.3,0-1.6,1.3-2.2c0.7-0.3,2.5-1,2.7-1.1c0.3-0.2,0.2-0.6,0.2-1c0-1-0.4-1.4-1.4-1.4c-1.2,0-1.3,0.5-1.3,1.6h-1.1
			c-0.1-1.8,0.8-2.6,2.6-2.6c2.6,0,2.4,2.2,2.4,2.4v5.1c0,0.2,0,0.5,0.2,0.7c0.2,0,0.4,0,0.5,0V219.4z M115.3,214.6
			c-0.6,0.4-1.3,0.6-2,1c-0.6,0.3-0.8,0.9-0.8,1.5c0,0.9,0.2,1.5,1.2,1.5c0.5,0,1.5-0.4,1.5-1.8V214.6z"/>
		<path class="st1" d="M120.3,222.5H119v-11.9h1.2v1h0c0.4-0.8,1.1-1.2,1.8-1.2c2.3,0,2.9,2.3,2.9,4.1c0,2.5-0.4,5.3-2.8,5.3
			c-0.9,0-1.4-0.4-1.9-1.2h0V222.5z M122,211.4c-1.6,0-1.7,2.3-1.7,3.6c0,1.2,0,3.6,1.7,3.6c1.3,0,1.7-1.4,1.7-3.8
			C123.7,213.7,123.6,211.4,122,211.4z"/>
		<path class="st1" d="M127,219.4v-12h1.3v12H127z"/>
		<path class="st1" d="M130.6,209v-1.6h1.3v1.6H130.6z M130.6,219.4v-8.9h1.3v8.9H130.6z"/>
		<path class="st1" d="M135,215.4c0,1.2,0.1,3.2,1.7,3.2c1.4,0,1.5-1.2,1.6-2.3h1.2c0,1.7-0.7,3.3-2.7,3.3c-2.7,0-3.1-2.3-3.1-4.6
			c0-2.2,0.4-4.8,3.1-4.8c1.8,0,2.7,1.4,2.6,3h-1.2c0-1-0.3-2-1.5-2C134.9,211.4,135,214.1,135,215.4z"/>
		<path class="st1" d="M146.8,219.4c-0.1,0-0.2,0-0.3,0.1c-1.1,0-1.5,0-1.6-1.3h0c-0.3,0.8-1.1,1.4-2,1.4c-1.8,0-2.3-1-2.3-2.6
			c0-0.3,0-1.6,1.3-2.2c0.7-0.3,2.5-1,2.7-1.1c0.3-0.2,0.2-0.6,0.2-1c0-1-0.4-1.4-1.4-1.4c-1.2,0-1.3,0.5-1.3,1.6H141
			c-0.1-1.8,0.8-2.6,2.6-2.6c2.6,0,2.4,2.2,2.4,2.4v5.1c0,0.2,0,0.5,0.2,0.7c0.2,0,0.4,0,0.5,0V219.4z M144.7,214.6
			c-0.6,0.4-1.3,0.6-2,1c-0.6,0.3-0.8,0.9-0.8,1.5c0,0.9,0.2,1.5,1.2,1.5c0.5,0,1.5-0.4,1.5-1.8V214.6z"/>
		<path class="st1" d="M149.3,215.4c0,1.2,0.1,3.2,1.7,3.2c1.4,0,1.5-1.2,1.6-2.3h1.2c0,1.7-0.7,3.3-2.7,3.3c-2.7,0-3.1-2.3-3.1-4.6
			c0-2.2,0.4-4.8,3.1-4.8c1.8,0,2.7,1.4,2.6,3h-1.2c0-1-0.3-2-1.5-2C149.2,211.4,149.3,214.1,149.3,215.4z"/>
		<path class="st1" d="M155.5,209v-1.6h1.3v1.6H155.5z M155.5,219.4v-8.9h1.3v8.9H155.5z"/>
		<path class="st1" d="M161.9,219.7c-1.9,0-3.2-1.2-3.2-5c0-2.7,1-4.4,3.2-4.4s3.2,1.7,3.2,4.4C165.1,218.6,163.9,219.7,161.9,219.7
			z M161.9,211.4c-1.3,0-1.9,1-1.9,3.7c0,2.1,0.4,3.5,1.9,3.5c1.5,0,1.9-1.4,1.9-3.5C163.8,212.4,163.3,211.4,161.9,211.4z
			 M162.3,207.2h1.7l-2.1,2.3h-1.1L162.3,207.2z"/>
		<path class="st1" d="M168.4,211.5L168.4,211.5c0.6-0.8,1.3-1.2,2.3-1.2c1.3,0,2.2,0.7,2.2,2.3v6.9h-1.3v-6.5
			c0-0.9-0.3-1.6-1.3-1.6c-0.5,0-0.9,0.2-1.2,0.5c-0.5,0.5-0.6,1-0.6,1.6v6h-1.3v-8.9h1.2V211.5z"/>
		<path class="st1" d="M34.8,224.4H36v12h-1.2v-1.2h0c-0.5,1.1-1.1,1.4-2.2,1.4c-2.8,0-2.6-3.9-2.6-4.7c-0.1-2.6,0.8-4.7,2.7-4.7
			c0.9,0,1.5,0.4,2,1.2h0V224.4z M34.8,231.9c0-1.2,0-3.5-1.7-3.5c-1.1,0-1.7,0.8-1.7,3.6c0,1.9,0.1,3.7,1.8,3.7
			c1.3,0,1.7-1.6,1.7-2.7V231.9z"/>
		<path class="st1" d="M43.5,233.5c0.1,1.7-0.8,3.2-2.7,3.2c-1.7,0-2.9-1.1-2.9-4.7c0-1.9,0.5-4.7,2.8-4.7c2.9,0,2.7,2.7,2.8,4.8
			h-4.3c0,1.2-0.2,3.5,1.6,3.5c1.2,0,1.6-1.1,1.5-2.1H43.5z M42.3,231.1c0-1,0-2.7-1.5-2.7c-1.5,0-1.5,1.6-1.6,2.7H42.3z"/>
		<path class="st1" d="M45.5,236.4v-12h1.3v12H45.5z"/>
		<path class="st1" d="M54,232.4c0,1.2,0.1,3.2,1.7,3.2c1.4,0,1.5-1.2,1.6-2.3h1.2c0,1.7-0.7,3.3-2.7,3.3c-2.7,0-3.1-2.3-3.1-4.6
			c0-2.2,0.4-4.8,3.1-4.8c1.8,0,2.7,1.4,2.6,3h-1.2c0-1-0.3-2-1.5-2C53.9,228.4,54,231.1,54,232.4z"/>
		<path class="st1" d="M63.1,236.7c-1.9,0-3.2-1.2-3.2-5c0-2.7,1-4.4,3.2-4.4s3.2,1.7,3.2,4.4C66.3,235.6,65,236.7,63.1,236.7z
			 M63.1,228.4c-1.3,0-1.9,1-1.9,3.7c0,2.1,0.4,3.5,1.9,3.5c1.5,0,1.9-1.4,1.9-3.5C65,229.4,64.4,228.4,63.1,228.4z"/>
		<path class="st1" d="M69.5,228.5L69.5,228.5c0.6-0.8,1.3-1.2,2.3-1.2c1.3,0,2.2,0.7,2.2,2.3v6.9h-1.3v-6.5c0-0.9-0.3-1.6-1.3-1.6
			c-0.5,0-0.9,0.2-1.2,0.5c-0.5,0.5-0.6,1-0.6,1.6v6h-1.3v-8.9h1.2V228.5z"/>
		<path class="st1" d="M79.1,236.7c-1.9,0-3.2-1.2-3.2-5c0-2.7,1-4.4,3.2-4.4s3.2,1.7,3.2,4.4C82.3,235.6,81.1,236.7,79.1,236.7z
			 M79.1,228.4c-1.3,0-1.9,1-1.9,3.7c0,2.1,0.4,3.5,1.9,3.5c1.5,0,1.9-1.4,1.9-3.5C81,229.4,80.4,228.4,79.1,228.4z"/>
		<path class="st1" d="M85.1,232.4c0,1.2,0.1,3.2,1.7,3.2c1.4,0,1.5-1.2,1.6-2.3h1.2c0,1.7-0.7,3.3-2.7,3.3c-2.7,0-3.1-2.3-3.1-4.6
			c0-2.2,0.4-4.8,3.1-4.8c1.8,0,2.7,1.4,2.6,3h-1.2c0-1-0.3-2-1.5-2C85.1,228.4,85.1,231.1,85.1,232.4z"/>
		<path class="st1" d="M91.4,226v-1.6h1.3v1.6H91.4z M91.4,236.4v-8.9h1.3v8.9H91.4z"/>
		<path class="st1" d="M96.3,236.4H95v-8.9h1.2v1.1h0c0.4-0.8,1.2-1.4,2.1-1.4c0.9,0,1.7,0.6,2.1,1.4c0.6-0.9,1.3-1.4,2.4-1.4
			c0.6,0,1.2,0.2,1.6,0.6c0.6,0.5,0.5,1.5,0.5,2.1v6.4h-1.3v-6.5c0-1-0.3-1.6-1.4-1.6c-0.4,0-0.9,0.2-1.2,0.5
			c-0.5,0.5-0.6,1-0.6,1.6v6h-1.3v-6.5c0-0.9-0.3-1.6-1.3-1.6c-0.5,0-0.9,0.2-1.2,0.5c-0.5,0.5-0.5,1-0.5,1.6V236.4z"/>
		<path class="st1" d="M107.4,226v-1.6h1.3v1.6H107.4z M107.4,236.4v-8.9h1.3v8.9H107.4z"/>
		<path class="st1" d="M116.1,233.5c0.1,1.7-0.8,3.2-2.7,3.2c-1.7,0-2.9-1.1-2.9-4.7c0-1.9,0.5-4.7,2.8-4.7c2.9,0,2.7,2.7,2.8,4.8
			h-4.3c0,1.2-0.2,3.5,1.6,3.5c1.2,0,1.6-1.1,1.5-2.1H116.1z M114.9,231.1c0-1,0-2.7-1.5-2.7c-1.5,0-1.5,1.6-1.6,2.7H114.9z"/>
		<path class="st1" d="M119.4,228.5L119.4,228.5c0.6-0.8,1.3-1.2,2.3-1.2c1.3,0,2.2,0.7,2.2,2.3v6.9h-1.3v-6.5
			c0-0.9-0.3-1.6-1.3-1.6c-0.5,0-0.9,0.2-1.2,0.5c-0.5,0.5-0.6,1-0.6,1.6v6h-1.3v-8.9h1.2V228.5z"/>
		<path class="st1" d="M127.6,227.5h1.5v1.1h-1.5v6.1c0,0.3-0.1,0.7,0.6,0.7h0.8v1.1h-1.4c-0.8,0-1.3-0.1-1.3-1.5v-6.4h-1.2v-1.1
			h1.2v-2.4h1.2V227.5z"/>
		<path class="st1" d="M133.5,236.7c-1.9,0-3.2-1.2-3.2-5c0-2.7,1-4.4,3.2-4.4s3.2,1.7,3.2,4.4C136.6,235.6,135.4,236.7,133.5,236.7
			z M133.5,228.4c-1.3,0-1.9,1-1.9,3.7c0,2.1,0.4,3.5,1.9,3.5c1.5,0,1.9-1.4,1.9-3.5C135.3,229.4,134.8,228.4,133.5,228.4z"/>
		<path class="st1" d="M143.9,228.5L143.9,228.5c0.6-0.8,1.3-1.2,2.3-1.2c1.3,0,2.2,0.7,2.2,2.3v6.9h-1.3v-6.5
			c0-0.9-0.3-1.6-1.3-1.6c-0.5,0-0.9,0.2-1.2,0.5c-0.5,0.5-0.6,1-0.6,1.6v6h-1.3v-8.9h1.2V228.5z"/>
		<path class="st1" d="M155,235.3L155,235.3c-0.5,0.9-1.3,1.4-2.1,1.4c-1.3,0-2.1-0.7-2.1-2.3v-6.9h1.3v6.9c0,0.8,0.2,1.2,1.1,1.2
			c0.6,0,1.2-0.3,1.5-0.8c0.3-0.4,0.4-1.1,0.4-1.6v-5.7h1.3v8.9H155V235.3z"/>
		<path class="st1" d="M163.8,233.5c0.1,1.7-0.8,3.2-2.7,3.2c-1.7,0-2.9-1.1-2.9-4.7c0-1.9,0.5-4.7,2.8-4.7c2.9,0,2.7,2.7,2.8,4.8
			h-4.3c0,1.2-0.2,3.5,1.6,3.5c1.2,0,1.6-1.1,1.5-2.1H163.8z M162.5,231.1c0-1,0-2.7-1.5-2.7c-1.5,0-1.5,1.6-1.6,2.7H162.5z"/>
		<path class="st1" d="M164.8,227.5h1.3l2,7.8h0l2-7.8h1.3l-2.7,8.9h-1.4L164.8,227.5z"/>
		<path class="st1" d="M175.8,236.7c-1.9,0-3.2-1.2-3.2-5c0-2.7,1-4.4,3.2-4.4s3.2,1.7,3.2,4.4C178.9,235.6,177.7,236.7,175.8,236.7
			z M175.8,228.4c-1.3,0-1.9,1-1.9,3.7c0,2.1,0.4,3.5,1.9,3.5c1.5,0,1.9-1.4,1.9-3.5C177.6,229.4,177.1,228.4,175.8,228.4z"/>
		<path class="st1" d="M65.6,250.5c0.1,1.7-0.8,3.2-2.7,3.2c-1.7,0-2.9-1.1-2.9-4.7c0-1.9,0.5-4.7,2.8-4.7c2.9,0,2.7,2.7,2.8,4.8
			h-4.3c0,1.2-0.2,3.5,1.6,3.5c1.2,0,1.6-1.1,1.5-2.1H65.6z M64.3,248.1c0-1,0-2.7-1.5-2.7c-1.5,0-1.5,1.6-1.6,2.7H64.3z"/>
		<path class="st1" d="M68.8,245.5L68.8,245.5c0.6-0.8,1.3-1.2,2.3-1.2c1.3,0,2.2,0.7,2.2,2.3v6.9H72v-6.5c0-0.9-0.3-1.6-1.3-1.6
			c-0.5,0-0.9,0.2-1.2,0.5c-0.5,0.5-0.6,1-0.6,1.6v6h-1.3v-8.9h1.2V245.5z"/>
		<path class="st1" d="M83.3,246.9c0-1.1-0.3-1.6-1.4-1.6c-0.9,0-1.4,0.4-1.4,1.3c0,1.2,0.9,1.3,1.8,1.7c1.3,0.6,2.6,0.9,2.6,2.6
			c0,1.7-1.2,2.8-3,2.7c-0.8,0-1.7-0.3-2.2-0.9c-0.5-0.7-0.5-1.3-0.5-1.9h1.2c0,1.1,0.3,1.8,1.5,1.8c1,0,1.7-0.4,1.7-1.5
			c0-1.3-1.3-1.4-2.2-1.8c-1.4-0.5-2.2-1-2.2-2.5c0-1.5,1.1-2.5,2.6-2.5c1.8,0,2.8,0.8,2.8,2.6H83.3z"/>
		<path class="st1" d="M86.7,243v-1.6H88v1.6H86.7z M86.7,253.4v-8.9H88v8.9H86.7z"/>
		<path class="st1" d="M91.8,244.5h1.5v1.1h-1.5v6.1c0,0.3-0.1,0.7,0.6,0.7h0.8v1.1h-1.4c-0.8,0-1.3-0.1-1.3-1.5v-6.4h-1.2v-1.1h1.2
			v-2.4h1.2V244.5z"/>
		<path class="st1" d="M99.1,252.3L99.1,252.3c-0.5,0.9-1.3,1.4-2.1,1.4c-1.3,0-2.1-0.7-2.1-2.3v-6.9h1.3v6.9c0,0.8,0.2,1.2,1.1,1.2
			c0.6,0,1.2-0.3,1.5-0.8c0.3-0.4,0.4-1.1,0.4-1.6v-5.7h1.3v8.9h-1.3V252.3z"/>
		<path class="st1" d="M108.3,253.4c-0.1,0-0.2,0-0.3,0.1c-1.1,0-1.5,0-1.6-1.3h0c-0.3,0.8-1.1,1.4-2,1.4c-1.8,0-2.3-1-2.3-2.6
			c0-0.3,0-1.6,1.3-2.2c0.7-0.3,2.5-1,2.7-1.1c0.3-0.2,0.2-0.6,0.2-1c0-1-0.4-1.4-1.4-1.4c-1.2,0-1.3,0.5-1.3,1.6h-1.1
			c-0.1-1.8,0.8-2.6,2.6-2.6c2.6,0,2.4,2.2,2.4,2.4v5.1c0,0.2,0,0.5,0.2,0.7c0.2,0,0.4,0,0.5,0V253.4z M106.2,248.6
			c-0.6,0.4-1.3,0.6-2,1c-0.6,0.3-0.8,0.9-0.8,1.5c0,0.9,0.2,1.5,1.2,1.5c0.5,0,1.5-0.4,1.5-1.8V248.6z"/>
		<path class="st1" d="M110.8,249.4c0,1.2,0.1,3.2,1.7,3.2c1.4,0,1.5-1.2,1.6-2.3h1.2c0,1.7-0.7,3.3-2.7,3.3c-2.7,0-3.1-2.3-3.1-4.6
			c0-2.2,0.4-4.8,3.1-4.8c1.8,0,2.7,1.4,2.6,3H114c0-1-0.3-2-1.5-2C110.7,245.4,110.8,248.1,110.8,249.4z"/>
		<path class="st1" d="M117,243v-1.6h1.3v1.6H117z M117,253.4v-8.9h1.3v8.9H117z"/>
		<path class="st1" d="M123.4,253.7c-1.9,0-3.2-1.2-3.2-5c0-2.7,1-4.4,3.2-4.4s3.2,1.7,3.2,4.4C126.6,252.6,125.4,253.7,123.4,253.7
			z M123.4,245.4c-1.3,0-1.9,1-1.9,3.7c0,2.1,0.4,3.5,1.9,3.5c1.5,0,1.9-1.4,1.9-3.5C125.3,246.4,124.8,245.4,123.4,245.4z"/>
		<path class="st1" d="M129.9,245.5L129.9,245.5c0.6-0.8,1.3-1.2,2.3-1.2c1.3,0,2.2,0.7,2.2,2.3v6.9H133v-6.5c0-0.9-0.3-1.6-1.3-1.6
			c-0.5,0-0.9,0.2-1.2,0.5c-0.5,0.5-0.6,1-0.6,1.6v6h-1.3v-8.9h1.2V245.5z"/>
		<path class="st1" d="M141.7,250.5c0.1,1.7-0.8,3.2-2.7,3.2c-1.7,0-2.9-1.1-2.9-4.7c0-1.9,0.5-4.7,2.8-4.7c2.9,0,2.7,2.7,2.8,4.8
			h-4.3c0,1.2-0.2,3.5,1.6,3.5c1.2,0,1.6-1.1,1.5-2.1H141.7z M140.5,248.1c0-1,0-2.7-1.5-2.7c-1.5,0-1.5,1.6-1.6,2.7H140.5z"/>
		<path class="st1" d="M147.4,246.9c0-1.1-0.3-1.6-1.4-1.6c-0.9,0-1.4,0.4-1.4,1.3c0,1.2,0.9,1.3,1.8,1.7c1.3,0.6,2.6,0.9,2.6,2.6
			c0,1.7-1.2,2.8-3,2.7c-0.8,0-1.7-0.3-2.2-0.9c-0.5-0.7-0.5-1.3-0.5-1.9h1.2c0,1.1,0.3,1.8,1.5,1.8c1,0,1.7-0.4,1.7-1.5
			c0-1.3-1.3-1.4-2.2-1.8c-1.4-0.5-2.2-1-2.2-2.5c0-1.5,1.1-2.5,2.6-2.5c1.8,0,2.8,0.8,2.8,2.6H147.4z"/>
		<path class="st1" d="M30.6,273.5h-1.3v-11.9h1.2v1h0c0.4-0.8,1.1-1.2,1.8-1.2c2.3,0,2.9,2.3,2.9,4.1c0,2.5-0.4,5.3-2.8,5.3
			c-0.9,0-1.4-0.4-1.9-1.2h0V273.5z M32.2,262.4c-1.6,0-1.7,2.3-1.7,3.6c0,1.2,0,3.6,1.7,3.6c1.3,0,1.7-1.4,1.7-3.8
			C34,264.7,33.8,262.4,32.2,262.4z"/>
		<path class="st1" d="M38.7,263L38.7,263c0.6-1.2,1.3-1.7,2.6-1.6v1.2c-1.6-0.3-2.6,0.7-2.6,2.4v5.4h-1.3v-8.9h1.2V263z"/>
		<path class="st1" d="M45.5,270.7c-1.9,0-3.2-1.2-3.2-5c0-2.7,1-4.4,3.2-4.4s3.2,1.7,3.2,4.4C48.7,269.6,47.4,270.7,45.5,270.7z
			 M45.5,262.4c-1.3,0-1.9,1-1.9,3.7c0,2.1,0.4,3.5,1.9,3.5c1.5,0,1.9-1.4,1.9-3.5C47.4,263.4,46.8,262.4,45.5,262.4z"/>
		<path class="st1" d="M51,262.6h-1.3v-1.1H51v-0.8c0-0.5,0-1.3,0.3-1.7c0.4-0.6,1.2-0.8,2.4-0.6v1.1c-1-0.1-1.4,0-1.4,1.1v0.9h1.4
			v1.1h-1.4v7.8H51V262.6z"/>
		<path class="st1" d="M60.2,267.5c0.1,1.7-0.8,3.2-2.7,3.2c-1.7,0-2.9-1.1-2.9-4.7c0-1.9,0.5-4.7,2.8-4.7c2.9,0,2.7,2.7,2.8,4.8H56
			c0,1.2-0.2,3.5,1.6,3.5c1.2,0,1.6-1.1,1.5-2.1H60.2z M59,265.1c0-1,0-2.7-1.5-2.7c-1.5,0-1.5,1.6-1.6,2.7H59z"/>
		<path class="st1" d="M65.9,263.9c0-1.1-0.3-1.6-1.4-1.6c-0.9,0-1.4,0.4-1.4,1.3c0,1.2,0.9,1.3,1.8,1.7c1.3,0.6,2.6,0.9,2.6,2.6
			c0,1.7-1.2,2.8-3,2.7c-0.8,0-1.7-0.3-2.2-0.9c-0.5-0.7-0.5-1.3-0.5-1.9H63c0,1.1,0.3,1.8,1.5,1.8c1,0,1.7-0.4,1.7-1.5
			c0-1.3-1.3-1.4-2.2-1.8c-1.4-0.5-2.2-1-2.2-2.5c0-1.5,1.1-2.5,2.6-2.5c1.8,0,2.8,0.8,2.8,2.6H65.9z"/>
		<path class="st1" d="M69.4,260v-1.6h1.3v1.6H69.4z M69.4,270.4v-8.9h1.3v8.9H69.4z"/>
		<path class="st1" d="M75.8,270.7c-1.9,0-3.2-1.2-3.2-5c0-2.7,1-4.4,3.2-4.4s3.2,1.7,3.2,4.4C79,269.6,77.7,270.7,75.8,270.7z
			 M75.8,262.4c-1.3,0-1.9,1-1.9,3.7c0,2.1,0.4,3.5,1.9,3.5c1.5,0,1.9-1.4,1.9-3.5C77.7,263.4,77.1,262.4,75.8,262.4z"/>
		<path class="st1" d="M82.2,262.5L82.2,262.5c0.6-0.8,1.3-1.2,2.3-1.2c1.3,0,2.2,0.7,2.2,2.3v6.9h-1.3v-6.5c0-0.9-0.3-1.6-1.3-1.6
			c-0.5,0-0.9,0.2-1.2,0.5c-0.5,0.5-0.6,1-0.6,1.6v6H81v-8.9h1.2V262.5z"/>
		<path class="st1" d="M94.5,270.4c-0.1,0-0.2,0-0.3,0.1c-1.1,0-1.5,0-1.6-1.3h0c-0.3,0.8-1.1,1.4-2,1.4c-1.8,0-2.3-1-2.3-2.6
			c0-0.3,0-1.6,1.3-2.2c0.7-0.3,2.5-1,2.7-1.1c0.3-0.2,0.2-0.6,0.2-1c0-1-0.4-1.4-1.4-1.4c-1.2,0-1.3,0.5-1.3,1.6h-1.1
			c-0.1-1.8,0.8-2.6,2.6-2.6c2.6,0,2.4,2.2,2.4,2.4v5.1c0,0.2,0,0.5,0.2,0.7c0.2,0,0.4,0,0.5,0V270.4z M92.4,265.6
			c-0.6,0.4-1.3,0.6-2,1c-0.6,0.3-0.8,0.9-0.8,1.5c0,0.9,0.2,1.5,1.2,1.5c0.5,0,1.5-0.4,1.5-1.8V265.6z"/>
		<path class="st1" d="M96.1,270.4v-12h1.3v12H96.1z"/>
		<path class="st1" d="M104.8,267.5c0.1,1.7-0.8,3.2-2.7,3.2c-1.7,0-2.9-1.1-2.9-4.7c0-1.9,0.5-4.7,2.8-4.7c2.9,0,2.7,2.7,2.8,4.8
			h-4.3c0,1.2-0.2,3.5,1.6,3.5c1.2,0,1.6-1.1,1.5-2.1H104.8z M103.5,265.1c0-1,0-2.7-1.5-2.7c-1.5,0-1.5,1.6-1.6,2.7H103.5z"/>
		<path class="st1" d="M110.5,263.9c0-1.1-0.3-1.6-1.4-1.6c-0.9,0-1.4,0.4-1.4,1.3c0,1.2,0.9,1.3,1.8,1.7c1.3,0.6,2.6,0.9,2.6,2.6
			c0,1.7-1.2,2.8-3,2.7c-0.8,0-1.7-0.3-2.2-0.9c-0.5-0.7-0.5-1.3-0.5-1.9h1.2c0,1.1,0.3,1.8,1.5,1.8c1,0,1.7-0.4,1.7-1.5
			c0-1.3-1.3-1.4-2.2-1.8c-1.4-0.5-2.2-1-2.2-2.5c0-1.5,1.1-2.5,2.6-2.5c1.8,0,2.8,0.8,2.8,2.6H110.5z"/>
		<path class="st1" d="M118.8,266.4c0,1.2,0.1,3.2,1.7,3.2c1.4,0,1.5-1.2,1.6-2.3h1.2c0,1.7-0.7,3.3-2.7,3.3c-2.7,0-3.1-2.3-3.1-4.6
			c0-2.2,0.4-4.8,3.1-4.8c1.8,0,2.7,1.4,2.6,3H122c0-1-0.3-2-1.5-2C118.7,262.4,118.8,265.1,118.8,266.4z"/>
		<path class="st1" d="M127.9,270.7c-1.9,0-3.2-1.2-3.2-5c0-2.7,1-4.4,3.2-4.4s3.2,1.7,3.2,4.4C131.1,269.6,129.8,270.7,127.9,270.7
			z M127.9,262.4c-1.3,0-1.9,1-1.9,3.7c0,2.1,0.4,3.5,1.9,3.5c1.5,0,1.9-1.4,1.9-3.5C129.7,263.4,129.2,262.4,127.9,262.4z"/>
		<path class="st1" d="M134.5,261.5h1.5v1.1h-1.5v6.1c0,0.3-0.1,0.7,0.6,0.7h0.8v1.1h-1.4c-0.8,0-1.3-0.1-1.3-1.5v-6.4H132v-1.1h1.2
			v-2.4h1.2V261.5z"/>
		<path class="st1" d="M137.5,260v-1.6h1.3v1.6H137.5z M137.5,270.4v-8.9h1.3v8.9H137.5z"/>
		<path class="st1" d="M145.4,258.4h1.3v12h-1.2v-1.2h0c-0.5,1.1-1.1,1.4-2.2,1.4c-2.8,0-2.6-3.9-2.6-4.7c-0.1-2.6,0.8-4.7,2.7-4.7
			c0.9,0,1.5,0.4,2,1.2h0V258.4z M145.4,265.9c0-1.2,0-3.5-1.7-3.5c-1.1,0-1.7,0.8-1.7,3.6c0,1.9,0.1,3.7,1.8,3.7
			c1.3,0,1.7-1.6,1.7-2.7V265.9z"/>
		<path class="st1" d="M149.1,260v-1.6h1.3v1.6H149.1z M149.1,270.4v-8.9h1.3v8.9H149.1z"/>
		<path class="st1" d="M158.2,270.4c-0.1,0-0.2,0-0.3,0.1c-1.1,0-1.5,0-1.6-1.3h0c-0.3,0.8-1.1,1.4-2,1.4c-1.8,0-2.3-1-2.3-2.6
			c0-0.3,0-1.6,1.3-2.2c0.7-0.3,2.5-1,2.7-1.1c0.3-0.2,0.2-0.6,0.2-1c0-1-0.4-1.4-1.4-1.4c-1.2,0-1.3,0.5-1.3,1.6h-1.1
			c-0.1-1.8,0.8-2.6,2.6-2.6c2.6,0,2.4,2.2,2.4,2.4v5.1c0,0.2,0,0.5,0.2,0.7c0.2,0,0.4,0,0.5,0V270.4z M156.1,265.6
			c-0.6,0.4-1.3,0.6-2,1c-0.6,0.3-0.8,0.9-0.8,1.5c0,0.9,0.2,1.5,1.2,1.5c0.5,0,1.5-0.4,1.5-1.8V265.6z"/>
		<path class="st1" d="M161,262.5L161,262.5c0.6-0.8,1.3-1.2,2.3-1.2c1.3,0,2.2,0.7,2.2,2.3v6.9h-1.3v-6.5c0-0.9-0.3-1.6-1.3-1.6
			c-0.5,0-0.9,0.2-1.2,0.5c-0.5,0.5-0.6,1-0.6,1.6v6h-1.3v-8.9h1.2V262.5z"/>
		<path class="st1" d="M173.3,270.4c-0.1,0-0.2,0-0.3,0.1c-1.1,0-1.5,0-1.6-1.3h0c-0.3,0.8-1.1,1.4-2,1.4c-1.8,0-2.3-1-2.3-2.6
			c0-0.3,0-1.6,1.3-2.2c0.7-0.3,2.5-1,2.7-1.1c0.3-0.2,0.2-0.6,0.2-1c0-1-0.4-1.4-1.4-1.4c-1.2,0-1.3,0.5-1.3,1.6h-1.1
			c-0.1-1.8,0.8-2.6,2.6-2.6c2.6,0,2.4,2.2,2.4,2.4v5.1c0,0.2,0,0.5,0.2,0.7c0.2,0,0.4,0,0.5,0V270.4z M171.2,265.6
			c-0.6,0.4-1.3,0.6-2,1c-0.6,0.3-0.8,0.9-0.8,1.5c0,0.9,0.2,1.5,1.2,1.5c0.5,0,1.5-0.4,1.5-1.8V265.6z"/>
		<path class="st1" d="M178.6,263.9c0-1.1-0.3-1.6-1.4-1.6c-0.9,0-1.4,0.4-1.4,1.3c0,1.2,0.9,1.3,1.8,1.7c1.3,0.6,2.6,0.9,2.6,2.6
			c0,1.7-1.2,2.8-3,2.7c-0.8,0-1.7-0.3-2.2-0.9c-0.5-0.7-0.5-1.3-0.5-1.9h1.2c0,1.1,0.3,1.8,1.5,1.8c1,0,1.7-0.4,1.7-1.5
			c0-1.3-1.3-1.4-2.2-1.8c-1.4-0.5-2.2-1-2.2-2.5c0-1.5,1.1-2.5,2.6-2.5c1.8,0,2.8,0.8,2.8,2.6H178.6z"/>
	</g>
</g>
<g>
	<rect x="301.2" y="308.6" class="st10" width="82" height="82"/>
	<g>
		<g>
			<path class="st8" d="M347.8,349.4c0.3-0.4,1-1,1.5-1.4h-32c-0.9,0-1.7,0.6-1.7,1.2s0.8,1.2,1.7,1.2l29.5-0.1
				C347.2,349.9,347.8,349.4,347.8,349.4z"/>
			<path class="st8" d="M363.5,333.4h-46.1c-0.9,0-1.7,0.6-1.7,1.2s0.8,1.2,1.7,1.2h46.1c0.9,0,1.7-0.6,1.7-1.2
				C365.2,333.9,364.4,333.4,363.5,333.4z"/>
			<path class="st8" d="M365.2,341.8c0-0.7-0.8-1.2-1.7-1.2h-46.1c-0.9,0-1.7,0.6-1.7,1.2s0.8,1.2,1.7,1.2h46.1
				C364.4,343.1,365.2,342.5,365.2,341.8z"/>
			<path class="st8" d="M315.6,356.9c0,0.7,0.8,1.2,1.7,1.2H343c0-0.4,0.1-0.8,0.2-1.2c0.1-0.4,0.2-0.8,0.4-1.2h-26.2
				C316.4,355.6,315.6,356.2,315.6,356.9z"/>
			<path class="st8" d="M350.5,373.5h-1h-0.8h-0.8h-14.6h-0.8h-0.8h-1c-0.7,0-1.3,0.6-1.3,1.3v-0.1c0,0.7,0.6,1.3,1.3,1.3h19.8
				c0.7,0,1.3-0.6,1.3-1.3v0.1C351.8,374.1,351.2,373.5,350.5,373.5z"/>
			<path class="st8" d="M332.1,365h0.8h0.8l-0.3,6.8h14.4l-0.1-1.6c-1.3-1.2-2.3-2.6-3.1-4.2c-0.5-1.1-0.9-2.2-1.2-3.4c0,0,0,0,0,0
				h-10.3h-0.8h-19.1c-0.3,0-0.6-0.3-0.6-0.6v-32.7c0-0.3,0.3-0.6,0.6-0.6H368c0.3,0,0.6,0.3,0.6,0.6v19.5c1.4,1.3,1.5,1.8,2.4,3.4
				v-23c0-2.2-0.8-3-3-3h-54.7c-2.2,0-3,0.8-3,3V362c0,2.2,0.8,3,3,3H332.1L332.1,365z"/>
			<path class="st8" d="M373.5,372.8c-1.7-1.4-3.7-3.8-3.7-3.8l-0.6-0.6l-0.4-0.4c-0.1-0.1-0.1-0.1-0.2-0.2c0.4-0.6,1.7-2.2,2.1-2.8
				c0.8-1.8,1.3-3.7,1.3-5.8c0-3.4-1.3-6.5-3.4-8.9c-2.5-2.9-6.2-4.7-10.3-4.7c-2.6,0-5,0.7-7.1,2c-0.8,0.5-1.5,1.1-2.2,1.7
				c-0.6,0.5-1.1,1.1-1.5,1.7c-1,1.3-1.7,2.7-2.2,4.2c-0.2,0.6-0.3,1.1-0.4,1.7c-0.1,0.6-0.2,1.1-0.2,1.7c0,0.2,0,0.4,0,0.6
				c0,0.6,0,1.3,0.1,1.9c0,0.3,0.1,0.5,0.1,0.8c0.1,0.3,0.1,0.5,0.2,0.8c0,0,0,0,0,0c0.3,1.2,0.8,2.3,1.4,3.4c0.3,0.5,0.6,1,1,1.5
				c0.3,0.3,0.6,0.7,0.9,1c0.3,0.3,0.6,0.6,0.8,0.8c2.4,2.1,5.6,3.5,9.1,3.5c2.8,0,6.5-1.9,8.7-3.4c0,0.1,0.1,0.1,0.1,0.2l0.4,0.5
				l0.6,0.6l3.7,3.7c0.1,0.1,0.1,0.1,0.2,0.2c0.9,0.5,1.9-0.4,1.6-1.4C373.6,373,373.6,372.8,373.5,372.8z M368.1,362.9
				c-0.6,1.4-1.4,2.7-2.5,3.7c-1.9,1.8-4.5,3-7.3,3c-2.8,0-5.4-1.1-7.3-3c-1.1-1-1.9-2.3-2.5-3.7c-0.5-1.2-0.7-2.5-0.7-3.8
				c0-0.2,0-0.4,0-0.6c0-0.6,0.1-1.3,0.3-1.9c0.2-0.7,0.4-1.3,0.7-1.9c0.9-1.9,2.4-3.6,4.2-4.7c1.6-0.9,3.4-1.5,5.4-1.5
				s3.8,0.5,5.4,1.5c3.1,1.8,5.1,5.2,5.1,9C368.8,360.5,368.6,361.7,368.1,362.9z"/>
		</g>
	</g>
</g>
<g>
	<path class="st19" d="M409.4,450.9H275c-2.9,0-5.3-2.4-5.3-5.3v-49.4c0-2.9,2.4-5.3,5.3-5.3h134.4c2.9,0,5.3,2.4,5.3,5.3v49.4
		C414.7,448.6,412.3,450.9,409.4,450.9z"/>
	<g>
		<g>
			<path class="st1" d="M275,409.4v-12h3.2c0.9,0,2.1,0.1,2.8,0.8c0.7,0.7,1,1.6,1,2.6c0,1.3-0.4,2.6-1.7,3.2
				c-0.8,0.4-2.2,0.4-3.1,0.4h-0.8v5.1H275z M276.3,403.2h1.3c1.8,0,2.9-0.3,2.9-2.3c0-1.9-1.2-2.2-2.8-2.2h-1.4V403.2z"/>
			<path class="st1" d="M285.1,402L285.1,402c0.6-1.2,1.3-1.7,2.6-1.6v1.2c-1.6-0.3-2.6,0.7-2.6,2.4v5.4h-1.3v-8.9h1.2V402z"/>
			<path class="st1" d="M291.9,409.7c-1.9,0-3.2-1.2-3.2-5c0-2.7,1-4.4,3.2-4.4s3.2,1.7,3.2,4.4
				C295.1,408.6,293.8,409.7,291.9,409.7z M291.9,401.4c-1.3,0-1.9,1-1.9,3.7c0,2.1,0.4,3.5,1.9,3.5c1.5,0,1.9-1.4,1.9-3.5
				C293.8,402.4,293.2,401.4,291.9,401.4z"/>
			<path class="st1" d="M298.3,412.5h-1.3v-11.9h1.2v1h0c0.4-0.8,1.1-1.2,1.8-1.2c2.3,0,2.9,2.3,2.9,4.1c0,2.5-0.4,5.3-2.8,5.3
				c-0.9,0-1.4-0.4-1.9-1.2h0V412.5z M300,401.4c-1.6,0-1.7,2.3-1.7,3.6c0,1.2,0,3.6,1.7,3.6c1.3,0,1.7-1.4,1.7-3.8
				C301.7,403.7,301.6,401.4,300,401.4z"/>
			<path class="st1" d="M305.1,399v-1.6h1.3v1.6H305.1z M305.1,409.4v-8.9h1.3v8.9H305.1z"/>
			<path class="st1" d="M309.5,405.4c0,1.2,0.1,3.2,1.7,3.2c1.4,0,1.5-1.2,1.6-2.3h1.2c0,1.7-0.7,3.3-2.7,3.3
				c-2.7,0-3.1-2.3-3.1-4.6c0-2.2,0.4-4.8,3.1-4.8c1.8,0,2.7,1.4,2.6,3h-1.2c0-1-0.3-2-1.5-2C309.4,401.4,309.5,404.1,309.5,405.4z"
				/>
			<path class="st1" d="M315.8,399v-1.6h1.3v1.6H315.8z M315.8,409.4v-8.9h1.3v8.9H315.8z"/>
			<path class="st1" d="M324.9,409.4c-0.1,0-0.2,0-0.3,0.1c-1.1,0-1.5,0-1.6-1.3h0c-0.3,0.8-1.1,1.4-2,1.4c-1.8,0-2.3-1-2.3-2.6
				c0-0.3,0-1.6,1.3-2.2c0.7-0.3,2.5-1,2.7-1.1c0.3-0.2,0.2-0.6,0.2-1c0-1-0.4-1.4-1.4-1.4c-1.2,0-1.3,0.5-1.3,1.6H319
				c-0.1-1.8,0.8-2.6,2.6-2.6c2.6,0,2.4,2.2,2.4,2.4v5.1c0,0.2,0,0.5,0.2,0.7c0.2,0,0.4,0,0.5,0V409.4z M322.8,404.6
				c-0.6,0.4-1.3,0.6-2,1c-0.6,0.3-0.8,0.9-0.8,1.5c0,0.9,0.2,1.5,1.2,1.5c0.5,0,1.5-0.4,1.5-1.8V404.6z"/>
			<path class="st1" d="M327.8,402L327.8,402c0.6-1.2,1.3-1.7,2.6-1.6v1.2c-1.6-0.3-2.6,0.7-2.6,2.4v5.4h-1.3v-8.9h1.2V402z"/>
			<path class="st1" d="M335.8,409.4v-12h1.3v12H335.8z"/>
			<path class="st1" d="M344.9,409.4c-0.1,0-0.2,0-0.3,0.1c-1.1,0-1.5,0-1.6-1.3h0c-0.3,0.8-1.1,1.4-2,1.4c-1.8,0-2.3-1-2.3-2.6
				c0-0.3,0-1.6,1.3-2.2c0.7-0.3,2.5-1,2.7-1.1c0.3-0.2,0.2-0.6,0.2-1c0-1-0.4-1.4-1.4-1.4c-1.2,0-1.3,0.5-1.3,1.6h-1.1
				c-0.1-1.8,0.8-2.6,2.6-2.6c2.6,0,2.4,2.2,2.4,2.4v5.1c0,0.2,0,0.5,0.2,0.7c0.2,0,0.4,0,0.5,0V409.4z M342.8,404.6
				c-0.6,0.4-1.3,0.6-2,1c-0.6,0.3-0.8,0.9-0.8,1.5c0,0.9,0.2,1.5,1.2,1.5c0.5,0,1.5-0.4,1.5-1.8V404.6z"/>
			<path class="st1" d="M351.7,409.4h-1.2v-12h1.3v4h0c0.5-0.8,1.1-1.2,1.9-1.2c2.3,0,2.8,2.3,2.8,4.1c0,2.5-0.3,5.3-2.7,5.3
				c-0.8,0-1.5-0.3-2-1.3h0V409.4z M353.5,408.6c1.3,0,1.7-1.4,1.7-3.8c0-1.2-0.1-3.5-1.7-3.5c-1.9,0-1.8,2.5-1.8,3.8
				S351.7,408.6,353.5,408.6z"/>
			<path class="st1" d="M362.9,408.3L362.9,408.3c-0.5,0.9-1.3,1.4-2.1,1.4c-1.3,0-2.1-0.7-2.1-2.3v-6.9h1.3v6.9
				c0,0.8,0.2,1.2,1.1,1.2c0.6,0,1.2-0.3,1.5-0.8c0.3-0.4,0.4-1.1,0.4-1.6v-5.7h1.3v8.9h-1.3V408.3z M361.7,397.2h1.7l-2.1,2.3h-1.1
				L361.7,397.2z"/>
			<path class="st1" d="M370.2,402.9c0-1.1-0.3-1.6-1.4-1.6c-0.9,0-1.4,0.4-1.4,1.3c0,1.2,0.9,1.3,1.8,1.7c1.3,0.6,2.6,0.9,2.6,2.6
				c0,1.7-1.2,2.8-3,2.7c-0.8,0-1.7-0.3-2.2-0.9c-0.5-0.7-0.5-1.3-0.5-1.9h1.2c0,1.1,0.3,1.8,1.5,1.8c1,0,1.7-0.4,1.7-1.5
				c0-1.3-1.3-1.4-2.2-1.8c-1.4-0.5-2.2-1-2.2-2.5c0-1.5,1.1-2.5,2.6-2.5c1.8,0,2.8,0.8,2.8,2.6H370.2z"/>
			<path class="st1" d="M378.1,400.5h1.2v11.8h-1.3v-3.9h0c-0.6,0.8-1.1,1.2-1.9,1.2c-1.9,0-2.6-1.4-2.8-4.6c-0.1-2,0.5-4.8,2.6-4.8
				c0.8,0,1.5,0.3,2,1.2h0V400.5z M376.4,408.6c1.7,0,1.7-2.4,1.7-3.6c0-1.2,0-3.6-1.6-3.6c-1.7,0-1.8,2.3-1.7,4
				S375,408.6,376.4,408.6z"/>
			<path class="st1" d="M386.1,408.3L386.1,408.3c-0.5,0.9-1.3,1.4-2.1,1.4c-1.3,0-2.1-0.7-2.1-2.3v-6.9h1.3v6.9
				c0,0.8,0.2,1.2,1.1,1.2c0.6,0,1.2-0.3,1.5-0.8c0.3-0.4,0.4-1.1,0.4-1.6v-5.7h1.3v8.9h-1.3V408.3z"/>
			<path class="st1" d="M394.8,406.5c0.1,1.7-0.8,3.2-2.7,3.2c-1.7,0-2.9-1.1-2.9-4.7c0-1.9,0.5-4.7,2.8-4.7c2.9,0,2.7,2.7,2.8,4.8
				h-4.3c0,1.2-0.2,3.5,1.6,3.5c1.2,0,1.6-1.1,1.5-2.1H394.8z M393.6,404.1c0-1,0-2.7-1.5-2.7c-1.5,0-1.5,1.6-1.6,2.7H393.6z"/>
			<path class="st1" d="M401.2,397.4h1.3v12h-1.2v-1.2h0c-0.5,1.1-1.1,1.4-2.2,1.4c-2.8,0-2.6-3.9-2.6-4.7c-0.1-2.6,0.8-4.7,2.7-4.7
				c0.9,0,1.5,0.4,2,1.2h0V397.4z M401.2,404.9c0-1.2,0-3.5-1.7-3.5c-1.1,0-1.7,0.8-1.7,3.6c0,1.9,0.1,3.7,1.8,3.7
				c1.3,0,1.7-1.6,1.7-2.7V404.9z"/>
			<path class="st1" d="M410.4,409.4c-0.1,0-0.2,0-0.3,0.1c-1.1,0-1.5,0-1.6-1.3h0c-0.3,0.8-1.1,1.4-2,1.4c-1.8,0-2.3-1-2.3-2.6
				c0-0.3,0-1.6,1.3-2.2c0.7-0.3,2.5-1,2.7-1.1c0.3-0.2,0.2-0.6,0.2-1c0-1-0.4-1.4-1.4-1.4c-1.2,0-1.3,0.5-1.3,1.6h-1.1
				c-0.1-1.8,0.8-2.6,2.6-2.6c2.6,0,2.4,2.2,2.4,2.4v5.1c0,0.2,0,0.5,0.2,0.7c0.2,0,0.4,0,0.5,0V409.4z M408.3,404.6
				c-0.6,0.4-1.3,0.6-2,1c-0.6,0.3-0.8,0.9-0.8,1.5c0,0.9,0.2,1.5,1.2,1.5c0.5,0,1.5-0.4,1.5-1.8V404.6z"/>
			<path class="st1" d="M289.1,417.5h1.3l2,7.7h0l2.1-7.7h1.3l-2.6,8.5c-0.2,0.5-0.6,1.8-0.8,2.3c-0.5,0.8-1.1,1.2-2,1.2
				c-0.3,0-0.6,0-0.9-0.1v-1.1c0.3,0.1,0.6,0.2,0.9,0.2c1.2,0,1.2-0.9,1.6-1.8L289.1,417.5z"/>
			<path class="st1" d="M302.7,419L302.7,419c0.6-1.2,1.3-1.7,2.6-1.6v1.2c-1.6-0.3-2.6,0.7-2.6,2.4v5.4h-1.3v-8.9h1.2V419z"/>
			<path class="st1" d="M311.7,423.5c0.1,1.7-0.8,3.2-2.7,3.2c-1.7,0-2.9-1.1-2.9-4.7c0-1.9,0.5-4.7,2.8-4.7c2.9,0,2.7,2.7,2.8,4.8
				h-4.3c0,1.2-0.2,3.5,1.6,3.5c1.2,0,1.6-1.1,1.5-2.1H311.7z M310.5,421.1c0-1,0-2.7-1.5-2.7c-1.5,0-1.5,1.6-1.6,2.7H310.5z"/>
			<path class="st1" d="M314.6,422.4c0,1.2,0.1,3.2,1.7,3.2c1.4,0,1.5-1.2,1.6-2.3h1.2c0,1.7-0.7,3.3-2.7,3.3
				c-2.7,0-3.1-2.3-3.1-4.6c0-2.2,0.4-4.8,3.1-4.8c1.8,0,2.7,1.4,2.6,3h-1.2c0-1-0.3-2-1.5-2C314.5,418.4,314.6,421.1,314.6,422.4z"
				/>
			<path class="st1" d="M326,423.5c0.1,1.7-0.8,3.2-2.7,3.2c-1.7,0-2.9-1.1-2.9-4.7c0-1.9,0.5-4.7,2.8-4.7c2.9,0,2.7,2.7,2.8,4.8
				h-4.3c0,1.2-0.2,3.5,1.6,3.5c1.2,0,1.6-1.1,1.5-2.1H326z M324.7,421.1c0-1,0-2.7-1.5-2.7c-1.5,0-1.5,1.6-1.6,2.7H324.7z"/>
			<path class="st1" d="M329.3,429.5H328v-11.9h1.2v1h0c0.4-0.8,1.1-1.2,1.8-1.2c2.3,0,2.9,2.3,2.9,4.1c0,2.5-0.4,5.3-2.8,5.3
				c-0.9,0-1.4-0.4-1.9-1.2h0V429.5z M330.9,418.4c-1.6,0-1.7,2.3-1.7,3.6c0,1.2,0,3.6,1.7,3.6c1.3,0,1.7-1.4,1.7-3.8
				C332.7,420.7,332.6,418.4,330.9,418.4z"/>
			<path class="st1" d="M336.9,422.4c0,1.2,0.1,3.2,1.7,3.2c1.4,0,1.5-1.2,1.6-2.3h1.2c0,1.7-0.7,3.3-2.7,3.3
				c-2.7,0-3.1-2.3-3.1-4.6c0-2.2,0.4-4.8,3.1-4.8c1.8,0,2.7,1.4,2.6,3h-1.2c0-1-0.3-2-1.5-2C336.8,418.4,336.9,421.1,336.9,422.4z"
				/>
			<path class="st1" d="M343.1,416v-1.6h1.3v1.6H343.1z M343.1,426.4v-8.9h1.3v8.9H343.1z"/>
			<path class="st1" d="M349.5,426.7c-1.9,0-3.2-1.2-3.2-5c0-2.7,1-4.4,3.2-4.4s3.2,1.7,3.2,4.4
				C352.7,425.6,351.5,426.7,349.5,426.7z M349.5,418.4c-1.3,0-1.9,1-1.9,3.7c0,2.1,0.4,3.5,1.9,3.5c1.5,0,1.9-1.4,1.9-3.5
				C351.4,419.4,350.9,418.4,349.5,418.4z M349.9,414.2h1.7l-2.1,2.3h-1.1L349.9,414.2z"/>
			<path class="st1" d="M356,418.5L356,418.5c0.6-0.8,1.3-1.2,2.3-1.2c1.3,0,2.2,0.7,2.2,2.3v6.9h-1.3v-6.5c0-0.9-0.3-1.6-1.3-1.6
				c-0.5,0-0.9,0.2-1.2,0.5c-0.5,0.5-0.6,1-0.6,1.6v6h-1.3v-8.9h1.2V418.5z"/>
			<path class="st1" d="M371.1,414.4h1.3v12h-1.2v-1.2h0c-0.5,1.1-1.1,1.4-2.2,1.4c-2.8,0-2.6-3.9-2.6-4.7c-0.1-2.6,0.8-4.7,2.7-4.7
				c0.9,0,1.5,0.4,2,1.2h0V414.4z M371.1,421.9c0-1.2,0-3.5-1.7-3.5c-1.1,0-1.7,0.8-1.7,3.6c0,1.9,0.1,3.7,1.8,3.7
				c1.3,0,1.7-1.6,1.7-2.7V421.9z"/>
			<path class="st1" d="M379.9,423.5c0.1,1.7-0.8,3.2-2.7,3.2c-1.7,0-2.9-1.1-2.9-4.7c0-1.9,0.5-4.7,2.8-4.7c2.9,0,2.7,2.7,2.8,4.8
				h-4.3c0,1.2-0.2,3.5,1.6,3.5c1.2,0,1.6-1.1,1.5-2.1H379.9z M378.6,421.1c0-1,0-2.7-1.5-2.7c-1.5,0-1.5,1.6-1.6,2.7H378.6z"/>
			<path class="st1" d="M385.9,426.4v-12h1.3v12H385.9z"/>
			<path class="st1" d="M395,426.4c-0.1,0-0.2,0-0.3,0.1c-1.1,0-1.5,0-1.6-1.3h0c-0.3,0.8-1.1,1.4-2,1.4c-1.8,0-2.3-1-2.3-2.6
				c0-0.3,0-1.6,1.3-2.2c0.7-0.3,2.5-1,2.7-1.1c0.3-0.2,0.2-0.6,0.2-1c0-1-0.4-1.4-1.4-1.4c-1.2,0-1.3,0.5-1.3,1.6h-1.1
				c-0.1-1.8,0.8-2.6,2.6-2.6c2.6,0,2.4,2.2,2.4,2.4v5.1c0,0.2,0,0.5,0.2,0.7c0.2,0,0.4,0,0.5,0V426.4z M392.9,421.6
				c-0.6,0.4-1.3,0.6-2,1c-0.6,0.3-0.8,0.9-0.8,1.5c0,0.9,0.2,1.5,1.2,1.5c0.5,0,1.5-0.4,1.5-1.8V421.6z"/>
			<path class="st1" d="M305.5,433v-1.6h1.3v1.6H305.5z M305.5,443.4v-8.9h1.3v8.9H305.5z"/>
			<path class="st1" d="M310.3,435.5L310.3,435.5c0.6-0.8,1.3-1.2,2.3-1.2c1.3,0,2.2,0.7,2.2,2.3v6.9h-1.3v-6.5
				c0-0.9-0.3-1.6-1.3-1.6c-0.5,0-0.9,0.2-1.2,0.5c-0.5,0.5-0.6,1-0.6,1.6v6h-1.3v-8.9h1.2V435.5z"/>
			<path class="st1" d="M317.4,435.6h-1.3v-1.1h1.3v-0.8c0-0.5,0-1.3,0.3-1.7c0.4-0.6,1.2-0.8,2.4-0.6v1.1c-1-0.1-1.4,0-1.4,1.1v0.9
				h1.4v1.1h-1.4v7.8h-1.3V435.6z"/>
			<path class="st1" d="M324.4,443.7c-1.9,0-3.2-1.2-3.2-5c0-2.7,1-4.4,3.2-4.4s3.2,1.7,3.2,4.4
				C327.6,442.6,326.4,443.7,324.4,443.7z M324.4,435.4c-1.3,0-1.9,1-1.9,3.7c0,2.1,0.4,3.5,1.9,3.5c1.5,0,1.9-1.4,1.9-3.5
				C326.3,436.4,325.7,435.4,324.4,435.4z"/>
			<path class="st1" d="M330.9,436L330.9,436c0.6-1.2,1.3-1.7,2.6-1.6v1.2c-1.6-0.3-2.6,0.7-2.6,2.4v5.4h-1.3v-8.9h1.2V436z"/>
			<path class="st1" d="M336.3,443.4H335v-8.9h1.2v1.1h0c0.4-0.8,1.2-1.4,2.1-1.4c0.9,0,1.7,0.6,2.1,1.4c0.6-0.9,1.3-1.4,2.4-1.4
				c0.6,0,1.2,0.2,1.6,0.6c0.6,0.5,0.5,1.5,0.5,2.1v6.4h-1.3v-6.5c0-1-0.3-1.6-1.4-1.6c-0.4,0-0.9,0.2-1.2,0.5
				c-0.5,0.5-0.6,1-0.6,1.6v6h-1.3v-6.5c0-0.9-0.3-1.6-1.3-1.6c-0.5,0-0.9,0.2-1.2,0.5c-0.5,0.5-0.5,1-0.5,1.6V443.4z"/>
			<path class="st1" d="M352.9,443.4c-0.1,0-0.2,0-0.3,0.1c-1.1,0-1.5,0-1.6-1.3h0c-0.3,0.8-1.1,1.4-2,1.4c-1.8,0-2.3-1-2.3-2.6
				c0-0.3,0-1.6,1.3-2.2c0.7-0.3,2.5-1,2.7-1.1c0.3-0.2,0.2-0.6,0.2-1c0-1-0.4-1.4-1.4-1.4c-1.2,0-1.3,0.5-1.3,1.6h-1.1
				c-0.1-1.8,0.8-2.6,2.6-2.6c2.6,0,2.4,2.2,2.4,2.4v5.1c0,0.2,0,0.5,0.2,0.7c0.2,0,0.4,0,0.5,0V443.4z M350.8,438.6
				c-0.6,0.4-1.3,0.6-2,1c-0.6,0.3-0.8,0.9-0.8,1.5c0,0.9,0.2,1.5,1.2,1.5c0.5,0,1.5-0.4,1.5-1.8V438.6z"/>
			<path class="st1" d="M355.4,439.4c0,1.2,0.1,3.2,1.7,3.2c1.4,0,1.5-1.2,1.6-2.3h1.2c0,1.7-0.7,3.3-2.7,3.3
				c-2.7,0-3.1-2.3-3.1-4.6c0-2.2,0.4-4.8,3.1-4.8c1.8,0,2.7,1.4,2.6,3h-1.2c0-1-0.3-2-1.5-2C355.3,435.4,355.4,438.1,355.4,439.4z"
				/>
			<path class="st1" d="M361.6,433v-1.6h1.3v1.6H361.6z M361.6,443.4v-8.9h1.3v8.9H361.6z"/>
			<path class="st1" d="M368,443.7c-1.9,0-3.2-1.2-3.2-5c0-2.7,1-4.4,3.2-4.4s3.2,1.7,3.2,4.4C371.2,442.6,370,443.7,368,443.7z
				 M368,435.4c-1.3,0-1.9,1-1.9,3.7c0,2.1,0.4,3.5,1.9,3.5c1.5,0,1.9-1.4,1.9-3.5C369.9,436.4,369.4,435.4,368,435.4z M368.4,431.2
				h1.7l-2.1,2.3H367L368.4,431.2z"/>
			<path class="st1" d="M374.5,435.5L374.5,435.5c0.6-0.8,1.3-1.2,2.3-1.2c1.3,0,2.2,0.7,2.2,2.3v6.9h-1.3v-6.5
				c0-0.9-0.3-1.6-1.3-1.6c-0.5,0-0.9,0.2-1.2,0.5c-0.5,0.5-0.6,1-0.6,1.6v6h-1.3v-8.9h1.2V435.5z"/>
		</g>
	</g>
</g>
<g>
	<rect x="118.5" y="308.6" class="st11" width="82" height="82"/>
	<g>
		<g>
			<path class="st8" d="M176.1,375.6c0.5,0.9,0.7,1.9,0.8,3l0.4,5.2c0,0.2-0.1,0.3-0.1,0.3c0,0-0.1,0.1-0.3,0.1h-4.6v-4.1
				c0-0.6-0.4-1-1-1c-0.6,0-1,0.4-1,1v4.1h-21.8l2.5-9.8c0,0,0-0.1,0.1-0.1h4.4c0.9,0,1.7-0.2,2.5-0.6c0.6,0.1,1.3,0.2,2,0.2
				c2.8,0,5.5-1.1,7.4-2.9l0,0c0.2,0,0,0,3,0.5c1.1,0.2,3.4,1.2,3.6,1.3C174.7,373.2,175.7,374.8,176.1,375.6z M139.6,350.8v-0.9
				c0-1.1,0.9-2,2-2h1.6c-0.1,1.7,0,3.2,0.4,4.9h-2C140.5,352.8,139.6,351.9,139.6,350.8z M160,371.9c0.5-0.8,0.9-1.8,0.9-2.9v-1.6
				h3.4c0.1,1,0.5,1.9,1.2,2.5C163.9,371.2,162,371.9,160,371.9z M164.9,365.5h-4.3c-1,0-1.8,0.8-1.8,1.8v1.8c0,1.8-1.5,3.3-3.3,3.3
				h-4.4c-0.9,0-1.8,0.6-2,1.5l-2.7,10.3h-6.5l4.5-17.4c0.4-0.5,6.8-9.4,7.6-10.6c0.2-0.3,0.5-0.5,0.9-0.5c0.4-0.1,0.7,0,1,0.2l0,0
				c0.3,0.2,0.5,0.6,0.5,1c0,0.3-0.1,0.5-0.2,0.8l-1.9,2.7c-0.3,0.5-0.4,1.1-0.1,1.7c0.3,0.5,0.8,0.9,1.4,0.9H165
				c0.3,0,0.7,0.1,0.9,0.4c0.2,0.2,0.4,0.6,0.4,0.9C166.3,364.9,165.6,365.5,164.9,365.5z M179.4,350.8c0,1.1-0.9,2-2,2h-1.2
				c0.3-1.2,0.4-2.4,0.4-3.6c0-0.4,0-0.9,0-1.3h0.8c1.1,0,2,0.9,2,2V350.8z M144,342.5c-0.3,1-0.4,2.2-0.6,3.3h-1.8
				c-0.3,0-0.5,0-0.8,0.1l-0.2-7.7c-0.1-3.1,1.9-5.8,4.9-6.6c0.3-0.1,0.5-0.2,0.6-0.5c2.3-4,6.6-6.5,11.2-6.5h4.5
				c8.9,0,16.1,7.2,16.1,16.1v5.1c-0.2,0-0.4,0-0.6,0l0,0h-1c-0.1-1.1-0.3-2.2-0.5-3.2c-0.5-2-2.2-3.5-4.3-3.6c0,0-8.3-0.3-11-0.7
				c-3.9-0.6-5.8-1.3-6.7-2.1c-0.6-0.6-1.3-1.2-2-2c-0.5-0.6-1.2-0.9-1.9-0.9h0c-0.7,0-1.4,0.3-1.9,0.9c-1,1.1-1.9,2.3-2.5,3.7
				C145.1,339.1,144.3,341.4,144,342.5z M147.4,338.9c0.5-1.2,1.3-2.3,2.2-3.3c0.2-0.2,0.3-0.2,0.4-0.2c0.1,0,0.3,0,0.5,0.2
				c0.7,0.8,1.5,1.5,2.2,2.2c0.8,0.7,3.7,1.6,5.3,1.9c3.7,0.8,13.7,1.3,13.7,1.3c1.2,0.1,2.2,0.9,2.5,2.1c0.3,1.2,0.5,2.5,0.6,3.9
				c0.1,0.7,0.1,1.5,0.1,2.2c0,1.5-0.2,2.9-0.7,4.3c-1.5,4.3-4.8,6.8-7,8.1c-0.6-0.4-1.2-0.6-2-0.6h-10.5l1.4-2
				c0.4-0.6,0.6-1.3,0.6-2c0-1-0.5-1.9-1.3-2.5l0,0c-0.7-0.5-1.6-0.7-2.5-0.6c-0.9,0.1-1.6,0.6-2.2,1.3c-0.4,0.5-1.1,1.5-2,2.7
				c-1.1-1.3-2-2.8-2.5-4.3c-0.8-2.2-0.8-4.2-0.6-6.5c0.1-1.4,0.2-2.7,0.6-3.9C146.2,341.9,146.9,339.9,147.4,338.9z M180,342.1
				c-0.1-2-0.3-6-1.2-8c-0.4-1-1.4-2.8-2-3.7c-3-4.9-8.7-7.8-14.9-7.8h-4.5c-5.2,0-10.1,2.7-12.8,7.2c-3.7,1.1-6.1,4.6-6,8.4
				l0.3,8.7c-0.8,0.7-1.3,1.8-1.3,2.9v0.9c0,2.2,1.8,4,4,4h2.7c0.7,1.7,1.7,3.2,3,4.7c-0.7,1-4.3,6-4.6,6.3
				c-0.1,0.1-0.1,0.2-0.2,0.3l-4.6,17.7c-0.2,0.6,0,1.2,0.3,1.7c0.4,0.5,0.9,0.8,1.5,0.8h37.1c0.7,0,1.3-0.3,1.8-0.8
				c0.5-0.5,0.7-1.1,0.6-1.8l-0.4-5.2c-0.1-1.3-0.3-2.6-1-3.7c-0.7-1.1-1.3-2.3-2.3-3.1c-1-0.9-3.6-1.9-4.9-2.1
				c-2.6-0.4-2.8-0.4-3.2-0.5c-0.7-0.3-1.2-1-1.2-1.8c1.2-0.5,2-1.7,2-3c0-0.4-0.1-0.7-0.2-1.1c2.4-1.4,5.7-4,7.5-8.4h1.9
				c2.2,0,4-1.8,4-4v-0.9c0-1.2-0.6-2.3-1.4-3v-2.6C180,344.2,180,342.6,180,342.1z"/>
		</g>
		<g>
			<path class="st12" d="M148.9,322.1c0.3-0.2,1.5-0.1,1.5-0.1c0.2,0,0.4-0.1,0.4-0.4c0.4-1.8,1.3-3.5,2.8-4.7
				c0.2-0.1,0.2-0.4,0.1-0.6l-0.6-1c-0.2-0.3,0.2-0.9,0.9-1.4c0.6-0.4,1.5-0.4,1.6-0.1l0.6,1c0.1,0.2,0.3,0.3,0.5,0.2
				c1.8-0.6,3.8-0.6,5.5,0c0.2,0.1,0.4,0,0.5-0.2l0.6-1c0.2-0.3,1-0.3,1.6,0.1c0.7,0.4,1.1,1.1,0.9,1.4l-0.6,1
				c-0.1,0.2-0.1,0.4,0.1,0.6c1.4,1.3,2.4,2.9,2.8,4.7c0,0.2,0.2,0.4,0.4,0.4h1.2c0.2,0,0.3,0.1,0.5,0.3c0.2,0.3,0.3,0.7,0.3,1.1
				c0,0.8-0.4,1.4-0.8,1.4h-1.2c-0.2,0-0.4,0.1-0.4,0.4c-0.4,1.8-1.3,3.5-2.8,4.7c-0.2,0.1-0.2,0.4-0.1,0.6l0.6,1
				c0.2,0.3-0.2,0.9-0.9,1.4c-0.6,0.4-1.4,0.4-1.6,0.1l-0.6-1c-0.1-0.1-0.2-0.2-0.4-0.2c0,0-0.1,0-0.1,0c-1.8,0.6-3.7,0.6-5.5,0
				c-0.2-0.1-0.4,0-0.5,0.2l-0.6,1c-0.2,0.3-1,0.3-1.6-0.1c-0.7-0.4-1.1-1.1-0.9-1.4l0.6-1c0.1-0.2,0.1-0.4-0.1-0.6
				c-1.4-1.3-2.4-2.9-2.8-4.7c0-0.2-0.2-0.4-0.4-0.4h-1.2c-0.4,0-0.8-0.6-0.8-1.4C148.4,323.4,148.6,322.3,148.9,322.1z"/>
			<g>
				<g>
					<path class="st8" d="M159.5,318.1c-2.9,0-5.2,2.4-5.2,5.2c0,2.9,2.4,5.2,5.2,5.2c2.9,0,5.2-2.4,5.2-5.2
						C164.7,320.4,162.4,318.1,159.5,318.1z M159.5,327.7c-2.4,0-4.4-2-4.4-4.4c0-2.4,2-4.4,4.4-4.4c2.4,0,4.4,2,4.4,4.4
						C163.9,325.7,161.9,327.7,159.5,327.7z"/>
					<path class="st8" d="M169.2,321.1h-0.8c-0.4-1.7-1.3-3.2-2.5-4.4l0.4-0.7c0.4-0.8-0.1-1.8-1.1-2.5c-0.4-0.3-0.9-0.4-1.4-0.4
						c-0.6,0-1.1,0.2-1.3,0.6l-0.4,0.7c-1.6-0.5-3.4-0.5-5,0l-0.4-0.7c-0.2-0.4-0.7-0.6-1.3-0.6c-0.5,0-0.9,0.1-1.4,0.4
						c-1.1,0.6-1.6,1.7-1.1,2.5l0.4,0.7c-1.2,1.2-2.1,2.7-2.5,4.4h-0.8c-0.9,0-1.6,1-1.6,2.2s0.7,2.2,1.6,2.2h0.8
						c0.4,1.7,1.3,3.2,2.5,4.4l-0.4,0.7c-0.4,0.8,0.1,1.8,1.1,2.5c0.4,0.3,0.9,0.4,1.4,0.4c0.6,0,1.1-0.2,1.3-0.6l0.4-0.7
						c1.6,0.5,3.4,0.5,5,0l0.4,0.7c0.2,0.4,0.7,0.6,1.3,0.6c0.5,0,0.9-0.1,1.4-0.4c1.1-0.6,1.6-1.7,1.1-2.5l-0.4-0.7
						c1.2-1.2,2.1-2.7,2.5-4.4h0.8c0.9,0,1.6-1,1.6-2.2c0-0.6-0.1-1.1-0.4-1.5C170,321.4,169.6,321.1,169.2,321.1z M169.2,324.7H168
						c-0.2,0-0.4,0.1-0.4,0.3c-0.4,1.7-1.3,3.3-2.6,4.5c-0.1,0.1-0.2,0.4-0.1,0.5l0.6,1c0.2,0.3-0.1,0.9-0.8,1.3
						c-0.6,0.4-1.4,0.4-1.5,0.1l-0.6-1c-0.1-0.1-0.2-0.2-0.4-0.2c0,0-0.1,0-0.1,0c-1.7,0.6-3.5,0.6-5.2,0c-0.2-0.1-0.4,0-0.5,0.2
						l-0.6,1c-0.2,0.3-0.9,0.3-1.5-0.1c-0.7-0.4-1-1-0.8-1.3l0.6-1c0.1-0.2,0.1-0.4-0.1-0.5c-1.3-1.2-2.2-2.7-2.6-4.5
						c0-0.2-0.2-0.3-0.4-0.3h-1.1c-0.3,0-0.7-0.6-0.7-1.4c0-0.8,0.4-1.4,0.7-1.4h1.1c0.2,0,0.4-0.1,0.4-0.3c0.4-1.7,1.3-3.3,2.6-4.5
						c0.1-0.1,0.2-0.4,0.1-0.5l-0.6-1c-0.2-0.3,0.1-0.9,0.8-1.3c0.6-0.4,1.4-0.4,1.5-0.1l0.6,1c0.1,0.2,0.3,0.3,0.5,0.2
						c1.7-0.6,3.5-0.6,5.2,0c0.2,0.1,0.4,0,0.5-0.2l0.6-1c0.2-0.3,0.9-0.3,1.5,0.1c0.7,0.4,1,1,0.8,1.3l-0.6,1
						c-0.1,0.2-0.1,0.4,0.1,0.5c1.3,1.2,2.2,2.7,2.6,4.5c0,0.2,0.2,0.3,0.4,0.3h1.1c0.2,0,0.3,0.1,0.4,0.3c0.2,0.3,0.3,0.6,0.3,1
						C169.9,324.1,169.5,324.7,169.2,324.7z"/>
				</g>
			</g>
		</g>
		<g>
			<path class="st12" d="M168.7,334.2c0-0.2,0.7-0.7,0.7-0.7c0.1-0.1,0.1-0.2,0.1-0.4c-0.6-1-0.8-2.2-0.7-3.4c0-0.1-0.1-0.3-0.2-0.3
				l-0.7-0.2c-0.2-0.1-0.3-0.5-0.2-1c0.2-0.4,0.5-0.8,0.7-0.7l0.7,0.2c0.1,0,0.3,0,0.3-0.1c0.6-1,1.5-1.8,2.6-2.3
				c0.1-0.1,0.2-0.2,0.2-0.3l-0.1-0.7c0-0.2,0.3-0.6,0.8-0.7c0.5-0.1,0.9,0.1,1,0.3l0.1,0.7c0,0.1,0.1,0.2,0.3,0.2
				c1.2,0,2.3,0.4,3.3,1.1c0.1,0.1,0.3,0.1,0.4,0l0.6-0.5c0.1-0.1,0.2-0.1,0.4,0c0.2,0.1,0.4,0.2,0.6,0.4c0.3,0.4,0.4,0.8,0.2,1
				l-0.6,0.5c-0.1,0.1-0.1,0.2-0.1,0.4c0.6,1,0.8,2.2,0.7,3.4c0,0.1,0.1,0.3,0.2,0.3l0.7,0.2c0.2,0.1,0.3,0.5,0.2,1
				c-0.2,0.4-0.5,0.8-0.7,0.7l-0.7-0.2c-0.1,0-0.2,0-0.3,0.1c0,0,0,0-0.1,0.1c-0.6,1-1.5,1.8-2.6,2.3c-0.1,0.1-0.2,0.2-0.2,0.3
				l0.1,0.7c0,0.2-0.3,0.6-0.8,0.7c-0.5,0.1-0.9-0.1-1-0.3l-0.1-0.7c0-0.1-0.1-0.2-0.3-0.2c-1.2,0-2.3-0.4-3.3-1.1
				c-0.1-0.1-0.3-0.1-0.4,0l-0.6,0.5c-0.2,0.2-0.6,0-1-0.4C169,335,168.7,334.4,168.7,334.2z"/>
			<g>
				<g>
					<path class="st8" d="M172.1,327.9c-1.4,1.2-1.5,3.3-0.3,4.7c1.2,1.4,3.3,1.5,4.7,0.3s1.5-3.3,0.3-4.7
						C175.5,326.8,173.4,326.7,172.1,327.9z M176.1,332.4c-1.1,1-2.9,0.9-3.9-0.2c-1-1.1-0.9-2.9,0.2-3.9c1.1-1,2.9-0.9,3.9,0.2
						C177.4,329.7,177.3,331.4,176.1,332.4z"/>
					<path class="st8" d="M177.9,325.2l-0.4,0.3c-0.9-0.6-1.9-1-3-1l-0.1-0.5c-0.1-0.5-0.8-0.8-1.6-0.7c-0.3,0.1-0.6,0.2-0.8,0.4
						c-0.3,0.2-0.4,0.6-0.3,0.8l0.1,0.5c-1,0.5-1.8,1.2-2.4,2.1l-0.5-0.2c-0.3-0.1-0.6,0-0.9,0.2c-0.2,0.2-0.4,0.5-0.5,0.8
						c-0.2,0.7,0,1.5,0.5,1.6l0.5,0.2c-0.1,1.1,0.1,2.2,0.6,3.1l-0.4,0.3c-0.4,0.4-0.3,1.1,0.2,1.7c0.5,0.6,1.3,0.8,1.7,0.4l0.4-0.3
						c0.9,0.6,1.9,1,3,1l0.1,0.5c0.1,0.5,0.8,0.8,1.6,0.7c0.3-0.1,0.6-0.2,0.8-0.4c0.3-0.2,0.4-0.6,0.3-0.8l-0.1-0.5
						c1-0.5,1.8-1.2,2.4-2.1l0.5,0.2c0.3,0.1,0.6,0,0.9-0.2c0.2-0.2,0.4-0.5,0.5-0.8c0.2-0.7,0-1.5-0.5-1.6l-0.5-0.2
						c0.1-1.1-0.1-2.2-0.6-3.1l0.4-0.3c0.4-0.4,0.3-1.1-0.2-1.7c-0.2-0.3-0.5-0.5-0.8-0.5C178.4,325,178.1,325.1,177.9,325.2z
						 M179.4,326.9l-0.5,0.5c-0.1,0.1-0.1,0.2-0.1,0.3c0.6,1,0.8,2.1,0.7,3.2c0,0.1,0.1,0.2,0.2,0.3l0.7,0.2c0.2,0.1,0.3,0.5,0.2,1
						c-0.1,0.4-0.5,0.7-0.7,0.7l-0.7-0.2c-0.1,0-0.2,0-0.3,0.1c0,0,0,0-0.1,0.1c-0.6,1-1.4,1.7-2.5,2.2c-0.1,0.1-0.2,0.2-0.2,0.3
						l0.1,0.7c0,0.2-0.3,0.5-0.8,0.6c-0.5,0.1-0.9-0.1-0.9-0.3l-0.1-0.7c0-0.1-0.1-0.2-0.3-0.2c-1.1,0-2.2-0.4-3.1-1
						c-0.1-0.1-0.2-0.1-0.3,0l-0.5,0.5c-0.2,0.1-0.6,0-0.9-0.3c-0.3-0.4-0.4-0.8-0.2-0.9l0.5-0.5c0.1-0.1,0.1-0.2,0.1-0.3
						c-0.6-1-0.8-2.1-0.7-3.2c0-0.1-0.1-0.2-0.2-0.3l-0.7-0.2c-0.2-0.1-0.3-0.5-0.2-1c0.1-0.4,0.5-0.7,0.7-0.7l0.7,0.2
						c0.1,0,0.3,0,0.3-0.1c0.6-1,1.4-1.7,2.5-2.2c0.1-0.1,0.2-0.2,0.2-0.3l-0.1-0.7c0-0.2,0.3-0.5,0.8-0.6c0.5-0.1,0.9,0.1,0.9,0.3
						l0.1,0.7c0,0.1,0.1,0.2,0.3,0.2c1.1,0,2.2,0.4,3.1,1c0.1,0.1,0.2,0.1,0.3,0l0.5-0.5c0.1-0.1,0.2-0.1,0.3,0
						c0.2,0.1,0.4,0.2,0.6,0.4C179.5,326.4,179.6,326.8,179.4,326.9z"/>
				</g>
			</g>
		</g>
	</g>
</g>
<g>
	<path class="st19" d="M226.7,450.9H92.3c-2.9,0-5.3-2.4-5.3-5.3v-49.4c0-2.9,2.4-5.3,5.3-5.3h134.4c2.9,0,5.3,2.4,5.3,5.3v49.4
		C232,448.6,229.7,450.9,226.7,450.9z"/>
	<g>
		<g>
			<path class="st1" d="M96.5,408.4v-12h1.3v12H96.5z"/>
			<path class="st1" d="M101.9,408.4h-1.3v-8.9h1.2v1.1h0c0.4-0.8,1.2-1.4,2.1-1.4c0.9,0,1.7,0.6,2.1,1.4c0.6-0.9,1.3-1.4,2.4-1.4
				c0.6,0,1.2,0.2,1.6,0.6c0.6,0.5,0.5,1.5,0.5,2.1v6.4h-1.3v-6.5c0-1-0.3-1.6-1.4-1.6c-0.4,0-0.9,0.2-1.2,0.5
				c-0.5,0.5-0.6,1-0.6,1.6v6H105v-6.5c0-0.9-0.3-1.6-1.3-1.6c-0.5,0-0.9,0.2-1.2,0.5c-0.5,0.5-0.5,1-0.5,1.6V408.4z"/>
			<path class="st1" d="M114.3,411.5h-1.3v-11.9h1.2v1h0c0.4-0.8,1.1-1.2,1.8-1.2c2.3,0,2.9,2.3,2.9,4.1c0,2.5-0.4,5.3-2.8,5.3
				c-0.9,0-1.4-0.4-1.9-1.2h0V411.5z M116,400.4c-1.6,0-1.7,2.3-1.7,3.6c0,1.2,0,3.6,1.7,3.6c1.3,0,1.7-1.4,1.7-3.8
				C117.7,402.7,117.6,400.4,116,400.4z"/>
			<path class="st1" d="M125.4,407.3L125.4,407.3c-0.5,0.9-1.3,1.4-2.1,1.4c-1.3,0-2.1-0.7-2.1-2.3v-6.9h1.3v6.9
				c0,0.8,0.2,1.2,1.1,1.2c0.6,0,1.2-0.3,1.5-0.8c0.3-0.4,0.4-1.1,0.4-1.6v-5.7h1.3v8.9h-1.3V407.3z"/>
			<path class="st1" d="M129.1,408.4v-12h1.3v12H129.1z"/>
			<path class="st1" d="M136.4,401.9c0-1.1-0.3-1.6-1.4-1.6c-0.9,0-1.4,0.4-1.4,1.3c0,1.2,0.9,1.3,1.8,1.7c1.3,0.6,2.6,0.9,2.6,2.6
				c0,1.7-1.2,2.8-3,2.7c-0.8,0-1.7-0.3-2.2-0.9c-0.5-0.7-0.5-1.3-0.5-1.9h1.2c0,1.1,0.3,1.8,1.5,1.8c1,0,1.7-0.4,1.7-1.5
				c0-1.3-1.3-1.4-2.2-1.8c-1.4-0.5-2.2-1-2.2-2.5c0-1.5,1.1-2.5,2.6-2.5c1.8,0,2.8,0.8,2.8,2.6H136.4z"/>
			<path class="st1" d="M145.3,408.4c-0.1,0-0.2,0-0.3,0.1c-1.1,0-1.5,0-1.6-1.3h0c-0.3,0.8-1.1,1.4-2,1.4c-1.8,0-2.3-1-2.3-2.6
				c0-0.3,0-1.6,1.3-2.2c0.7-0.3,2.5-1,2.7-1.1c0.3-0.2,0.2-0.6,0.2-1c0-1-0.4-1.4-1.4-1.4c-1.2,0-1.3,0.5-1.3,1.6h-1.1
				c-0.1-1.8,0.8-2.6,2.6-2.6c2.6,0,2.4,2.2,2.4,2.4v5.1c0,0.2,0,0.5,0.2,0.7c0.2,0,0.4,0,0.5,0V408.4z M143.2,403.6
				c-0.6,0.4-1.3,0.6-2,1c-0.6,0.3-0.8,0.9-0.8,1.5c0,0.9,0.2,1.5,1.2,1.5c0.5,0,1.5-0.4,1.5-1.8V403.6z"/>
			<path class="st1" d="M148.3,401L148.3,401c0.6-1.2,1.3-1.7,2.6-1.6v1.2c-1.6-0.3-2.6,0.7-2.6,2.4v5.4H147v-8.9h1.2V401z"/>
			<path class="st1" d="M156.3,408.4v-12h1.3v12H156.3z"/>
			<path class="st1" d="M165.3,408.4c-0.1,0-0.2,0-0.3,0.1c-1.1,0-1.5,0-1.6-1.3h0c-0.3,0.8-1.1,1.4-2,1.4c-1.8,0-2.3-1-2.3-2.6
				c0-0.3,0-1.6,1.3-2.2c0.7-0.3,2.5-1,2.7-1.1c0.3-0.2,0.2-0.6,0.2-1c0-1-0.4-1.4-1.4-1.4c-1.2,0-1.3,0.5-1.3,1.6h-1.1
				c-0.1-1.8,0.8-2.6,2.6-2.6c2.6,0,2.4,2.2,2.4,2.4v5.1c0,0.2,0,0.5,0.2,0.7c0.2,0,0.4,0,0.5,0V408.4z M163.3,403.6
				c-0.6,0.4-1.3,0.6-2,1c-0.6,0.3-0.8,0.9-0.8,1.5c0,0.9,0.2,1.5,1.2,1.5c0.5,0,1.5-0.4,1.5-1.8V403.6z"/>
			<path class="st1" d="M172.3,401L172.3,401c0.6-1.2,1.3-1.7,2.6-1.6v1.2c-1.6-0.3-2.6,0.7-2.6,2.4v5.4h-1.3v-8.9h1.2V401z"/>
			<path class="st1" d="M181.4,405.5c0.1,1.7-0.8,3.2-2.7,3.2c-1.7,0-2.9-1.1-2.9-4.7c0-1.9,0.5-4.7,2.8-4.7c2.9,0,2.7,2.7,2.8,4.8
				h-4.3c0,1.2-0.2,3.5,1.6,3.5c1.2,0,1.6-1.1,1.5-2.1H181.4z M180.2,403.1c0-1,0-2.7-1.5-2.7c-1.5,0-1.5,1.6-1.6,2.7H180.2z"/>
			<path class="st1" d="M183.8,400.6h-1.3v-1.1h1.3v-0.8c0-0.5,0-1.3,0.3-1.7c0.4-0.6,1.2-0.8,2.4-0.6v1.1c-1-0.1-1.4,0-1.4,1.1v0.9
				h1.4v1.1H185v7.8h-1.3V400.6z M187.8,408.4v-12h1.3v12H187.8z"/>
			<path class="st1" d="M196.5,405.5c0.1,1.7-0.8,3.2-2.7,3.2c-1.7,0-2.9-1.1-2.9-4.7c0-1.9,0.5-4.7,2.8-4.7c2.9,0,2.7,2.7,2.8,4.8
				h-4.3c0,1.2-0.2,3.5,1.6,3.5c1.2,0,1.6-1.1,1.5-2.1H196.5z M195.3,403.1c0-1,0-2.7-1.5-2.7c-1.5,0-1.5,1.6-1.6,2.7H195.3z"/>
			<path class="st1" d="M197.7,399.5h1.3l2,3.2l2-3.2h1.3l-2.6,4.3l2.7,4.6h-1.3l-2.1-3.6l-2.1,3.6h-1.3l2.7-4.6L197.7,399.5z"/>
			<path class="st1" d="M205.7,398v-1.6h1.3v1.6H205.7z M205.7,408.4v-8.9h1.3v8.9H205.7z"/>
			<path class="st1" d="M212.1,408.7c-1.9,0-3.2-1.2-3.2-5c0-2.7,1-4.4,3.2-4.4s3.2,1.7,3.2,4.4C215.3,407.6,214,408.7,212.1,408.7z
				 M212.1,400.4c-1.3,0-1.9,1-1.9,3.7c0,2.1,0.4,3.5,1.9,3.5c1.5,0,1.9-1.4,1.9-3.5C214,401.4,213.4,400.4,212.1,400.4z
				 M212.5,396.2h1.7l-2.1,2.3H211L212.5,396.2z"/>
			<path class="st1" d="M218.5,400.5L218.5,400.5c0.6-0.8,1.3-1.2,2.3-1.2c1.3,0,2.2,0.7,2.2,2.3v6.9h-1.3v-6.5
				c0-0.9-0.3-1.6-1.3-1.6c-0.5,0-0.9,0.2-1.2,0.5c-0.5,0.5-0.6,1-0.6,1.6v6h-1.3v-8.9h1.2V400.5z"/>
			<path class="st1" d="M102.7,418.9c0-1.1-0.3-1.6-1.4-1.6c-0.9,0-1.4,0.4-1.4,1.3c0,1.2,0.9,1.3,1.8,1.7c1.3,0.6,2.6,0.9,2.6,2.6
				c0,1.7-1.2,2.8-3,2.7c-0.8,0-1.7-0.3-2.2-0.9c-0.5-0.7-0.5-1.3-0.5-1.9h1.2c0,1.1,0.3,1.8,1.5,1.8c1,0,1.7-0.4,1.7-1.5
				c0-1.3-1.3-1.4-2.2-1.8c-1.4-0.5-2.2-1-2.2-2.5c0-1.5,1.1-2.5,2.6-2.5c1.8,0,2.8,0.8,2.8,2.6H102.7z"/>
			<path class="st1" d="M109,425.7c-1.9,0-3.2-1.2-3.2-5c0-2.7,1-4.4,3.2-4.4s3.2,1.7,3.2,4.4C112.2,424.6,110.9,425.7,109,425.7z
				 M109,417.4c-1.3,0-1.9,1-1.9,3.7c0,2.1,0.4,3.5,1.9,3.5c1.5,0,1.9-1.4,1.9-3.5C110.9,418.4,110.3,417.4,109,417.4z"/>
			<path class="st1" d="M115.3,425.4h-1.2v-12h1.3v4h0c0.5-0.8,1.1-1.2,1.9-1.2c2.3,0,2.8,2.3,2.8,4.1c0,2.5-0.3,5.3-2.7,5.3
				c-0.8,0-1.5-0.3-2-1.3h0V425.4z M117.2,424.6c1.3,0,1.7-1.4,1.7-3.8c0-1.2-0.1-3.5-1.7-3.5c-1.9,0-1.8,2.5-1.8,3.8
				S115.4,424.6,117.2,424.6z"/>
			<path class="st1" d="M123.5,418L123.5,418c0.6-1.2,1.3-1.7,2.6-1.6v1.2c-1.6-0.3-2.6,0.7-2.6,2.4v5.4h-1.3v-8.9h1.2V418z"/>
			<path class="st1" d="M132.6,422.5c0.1,1.7-0.8,3.2-2.7,3.2c-1.7,0-2.9-1.1-2.9-4.7c0-1.9,0.5-4.7,2.8-4.7c2.9,0,2.7,2.7,2.8,4.8
				h-4.3c0,1.2-0.2,3.5,1.6,3.5c1.2,0,1.6-1.1,1.5-2.1H132.6z M131.4,420.1c0-1,0-2.7-1.5-2.7c-1.5,0-1.5,1.6-1.6,2.7H131.4z"/>
			<path class="st1" d="M138.6,425.4v-12h1.3v12H138.6z"/>
			<path class="st1" d="M147.7,425.4c-0.1,0-0.2,0-0.3,0.1c-1.1,0-1.5,0-1.6-1.3h0c-0.3,0.8-1.1,1.4-2,1.4c-1.8,0-2.3-1-2.3-2.6
				c0-0.3,0-1.6,1.3-2.2c0.7-0.3,2.5-1,2.7-1.1c0.3-0.2,0.2-0.6,0.2-1c0-1-0.4-1.4-1.4-1.4c-1.2,0-1.3,0.5-1.3,1.6h-1.1
				c-0.1-1.8,0.8-2.6,2.6-2.6c2.6,0,2.4,2.2,2.4,2.4v5.1c0,0.2,0,0.5,0.2,0.7c0.2,0,0.4,0,0.5,0V425.4z M145.6,420.6
				c-0.6,0.4-1.3,0.6-2,1c-0.6,0.3-0.8,0.9-0.8,1.5c0,0.9,0.2,1.5,1.2,1.5c0.5,0,1.5-0.4,1.5-1.8V420.6z"/>
			<path class="st1" d="M157.7,424.3L157.7,424.3c-0.5,0.9-1.3,1.4-2.1,1.4c-1.3,0-2.1-0.7-2.1-2.3v-6.9h1.3v6.9
				c0,0.8,0.2,1.2,1.1,1.2c0.6,0,1.2-0.3,1.5-0.8c0.3-0.4,0.4-1.1,0.4-1.6v-5.7h1.3v8.9h-1.3V424.3z"/>
			<path class="st1" d="M162.8,416.5h1.5v1.1h-1.5v6.1c0,0.3-0.1,0.7,0.6,0.7h0.8v1.1h-1.4c-0.8,0-1.3-0.1-1.3-1.5v-6.4h-1.2v-1.1
				h1.2v-2.4h1.2V416.5z"/>
			<path class="st1" d="M165.8,415v-1.6h1.3v1.6H165.8z M165.8,425.4v-8.9h1.3v8.9H165.8z"/>
			<path class="st1" d="M169.4,425.4v-12h1.3v12H169.4z"/>
			<path class="st1" d="M173,415v-1.6h1.3v1.6H173z M173,425.4v-8.9h1.3v8.9H173z"/>
			<path class="st1" d="M180.9,413.4h1.3v12h-1.2v-1.2h0c-0.5,1.1-1.1,1.4-2.2,1.4c-2.8,0-2.6-3.9-2.6-4.7c-0.1-2.6,0.8-4.7,2.7-4.7
				c0.9,0,1.5,0.4,2,1.2h0V413.4z M180.9,420.9c0-1.2,0-3.5-1.7-3.5c-1.1,0-1.7,0.8-1.7,3.6c0,1.9,0.1,3.7,1.8,3.7
				c1.3,0,1.7-1.6,1.7-2.7V420.9z"/>
			<path class="st1" d="M190.1,425.4c-0.1,0-0.2,0-0.3,0.1c-1.1,0-1.5,0-1.6-1.3h0c-0.3,0.8-1.1,1.4-2,1.4c-1.8,0-2.3-1-2.3-2.6
				c0-0.3,0-1.6,1.3-2.2c0.7-0.3,2.5-1,2.7-1.1c0.3-0.2,0.2-0.6,0.2-1c0-1-0.4-1.4-1.4-1.4c-1.2,0-1.3,0.5-1.3,1.6h-1.1
				c-0.1-1.8,0.8-2.6,2.6-2.6c2.6,0,2.4,2.2,2.4,2.4v5.1c0,0.2,0,0.5,0.2,0.7c0.2,0,0.4,0,0.5,0V425.4z M188,420.6
				c-0.6,0.4-1.3,0.6-2,1c-0.6,0.3-0.8,0.9-0.8,1.5c0,0.9,0.2,1.5,1.2,1.5c0.5,0,1.5-0.4,1.5-1.8V420.6z"/>
			<path class="st1" d="M196,413.4h1.3v12h-1.2v-1.2h0c-0.5,1.1-1.1,1.4-2.2,1.4c-2.8,0-2.6-3.9-2.6-4.7c-0.1-2.6,0.8-4.7,2.7-4.7
				c0.9,0,1.5,0.4,2,1.2h0V413.4z M196,420.9c0-1.2,0-3.5-1.7-3.5c-1.1,0-1.7,0.8-1.7,3.6c0,1.9,0.1,3.7,1.8,3.7
				c1.3,0,1.7-1.6,1.7-2.7V420.9z"/>
			<path class="st1" d="M208.1,413.4h1.3v12h-1.2v-1.2h0c-0.5,1.1-1.1,1.4-2.2,1.4c-2.8,0-2.6-3.9-2.6-4.7c-0.1-2.6,0.8-4.7,2.7-4.7
				c0.9,0,1.5,0.4,2,1.2h0V413.4z M208.1,420.9c0-1.2,0-3.5-1.7-3.5c-1.1,0-1.7,0.8-1.7,3.6c0,1.9,0.1,3.7,1.8,3.7
				c1.3,0,1.7-1.6,1.7-2.7V420.9z"/>
			<path class="st1" d="M216.8,422.5c0.1,1.7-0.8,3.2-2.7,3.2c-1.7,0-2.9-1.1-2.9-4.7c0-1.9,0.5-4.7,2.8-4.7c2.9,0,2.7,2.7,2.8,4.8
				h-4.3c0,1.2-0.2,3.5,1.6,3.5c1.2,0,1.6-1.1,1.5-2.1H216.8z M215.6,420.1c0-1,0-2.7-1.5-2.7c-1.5,0-1.5,1.6-1.6,2.7H215.6z"/>
			<path class="st1" d="M218.8,425.4v-12h1.3v12H218.8z"/>
			<path class="st1" d="M118.8,438.4c0,1.2,0.1,3.2,1.7,3.2c1.4,0,1.5-1.2,1.6-2.3h1.2c0,1.7-0.7,3.3-2.7,3.3
				c-2.7,0-3.1-2.3-3.1-4.6c0-2.2,0.4-4.8,3.1-4.8c1.8,0,2.7,1.4,2.6,3H122c0-1-0.3-2-1.5-2C118.7,434.4,118.8,437.1,118.8,438.4z"
				/>
			<path class="st1" d="M127.9,442.7c-1.9,0-3.2-1.2-3.2-5c0-2.7,1-4.4,3.2-4.4s3.2,1.7,3.2,4.4
				C131.1,441.6,129.9,442.7,127.9,442.7z M127.9,434.4c-1.3,0-1.9,1-1.9,3.7c0,2.1,0.4,3.5,1.9,3.5c1.5,0,1.9-1.4,1.9-3.5
				C129.8,435.4,129.2,434.4,127.9,434.4z"/>
			<path class="st1" d="M134.3,434.5L134.3,434.5c0.6-0.8,1.3-1.2,2.3-1.2c1.3,0,2.2,0.7,2.2,2.3v6.9h-1.3v-6.5
				c0-0.9-0.3-1.6-1.3-1.6c-0.5,0-0.9,0.2-1.2,0.5c-0.5,0.5-0.6,1-0.6,1.6v6h-1.3v-8.9h1.2V434.5z"/>
			<path class="st1" d="M144,442.7c-1.9,0-3.2-1.2-3.2-5c0-2.7,1-4.4,3.2-4.4s3.2,1.7,3.2,4.4C147.1,441.6,145.9,442.7,144,442.7z
				 M144,434.4c-1.3,0-1.9,1-1.9,3.7c0,2.1,0.4,3.5,1.9,3.5c1.5,0,1.9-1.4,1.9-3.5C145.8,435.4,145.3,434.4,144,434.4z"/>
			<path class="st1" d="M150,438.4c0,1.2,0.1,3.2,1.7,3.2c1.4,0,1.5-1.2,1.6-2.3h1.2c0,1.7-0.7,3.3-2.7,3.3c-2.7,0-3.1-2.3-3.1-4.6
				c0-2.2,0.4-4.8,3.1-4.8c1.8,0,2.7,1.4,2.6,3h-1.2c0-1-0.3-2-1.5-2C149.9,434.4,150,437.1,150,438.4z"/>
			<path class="st1" d="M156.2,432v-1.6h1.3v1.6H156.2z M156.2,442.4v-8.9h1.3v8.9H156.2z"/>
			<path class="st1" d="M161.1,442.4h-1.3v-8.9h1.2v1.1h0c0.4-0.8,1.2-1.4,2.1-1.4c0.9,0,1.7,0.6,2.1,1.4c0.6-0.9,1.3-1.4,2.4-1.4
				c0.6,0,1.2,0.2,1.6,0.6c0.6,0.5,0.5,1.5,0.5,2.1v6.4h-1.3v-6.5c0-1-0.3-1.6-1.4-1.6c-0.4,0-0.9,0.2-1.2,0.5
				c-0.5,0.5-0.6,1-0.6,1.6v6h-1.3v-6.5c0-0.9-0.3-1.6-1.3-1.6c-0.5,0-0.9,0.2-1.2,0.5c-0.5,0.5-0.5,1-0.5,1.6V442.4z"/>
			<path class="st1" d="M172.3,432v-1.6h1.3v1.6H172.3z M172.3,442.4v-8.9h1.3v8.9H172.3z"/>
			<path class="st1" d="M180.9,439.5c0.1,1.7-0.8,3.2-2.7,3.2c-1.7,0-2.9-1.1-2.9-4.7c0-1.9,0.5-4.7,2.8-4.7c2.9,0,2.7,2.7,2.8,4.8
				h-4.3c0,1.2-0.2,3.5,1.6,3.5c1.2,0,1.6-1.1,1.5-2.1H180.9z M179.7,437.1c0-1,0-2.7-1.5-2.7c-1.5,0-1.5,1.6-1.6,2.7H179.7z"/>
			<path class="st1" d="M184.2,434.5L184.2,434.5c0.6-0.8,1.3-1.2,2.3-1.2c1.3,0,2.2,0.7,2.2,2.3v6.9h-1.3v-6.5
				c0-0.9-0.3-1.6-1.3-1.6c-0.5,0-0.9,0.2-1.2,0.5c-0.5,0.5-0.6,1-0.6,1.6v6H183v-8.9h1.2V434.5z"/>
			<path class="st1" d="M192.4,433.5h1.5v1.1h-1.5v6.1c0,0.3-0.1,0.7,0.6,0.7h0.8v1.1h-1.4c-0.8,0-1.3-0.1-1.3-1.5v-6.4H190v-1.1
				h1.2v-2.4h1.2V433.5z"/>
			<path class="st1" d="M198.3,442.7c-1.9,0-3.2-1.2-3.2-5c0-2.7,1-4.4,3.2-4.4s3.2,1.7,3.2,4.4
				C201.5,441.6,200.2,442.7,198.3,442.7z M198.3,434.4c-1.3,0-1.9,1-1.9,3.7c0,2.1,0.4,3.5,1.9,3.5c1.5,0,1.9-1.4,1.9-3.5
				C200.2,435.4,199.6,434.4,198.3,434.4z"/>
		</g>
	</g>
</g>
<polygon class="st8" points="285.9,359.8 285.9,349.1 229.5,349.1 229.5,343.6 215.8,354.6 229.1,365 229.1,359.8 "/>
<path class="st8" d="M109,102c0-25.9,21-47,47-47v6.7l14.7-11.9L156,39v6.6c-31.1,0-56.4,25.2-56.4,56.4H109z"/>
<path class="st8" d="M344.7,48.3c25.9,0,47,21,47,47h-6.7l11.9,14.7l10.8-14.7H401c0-31.1-25.2-56.4-56.4-56.4V48.3z"/>
<path class="st8" d="M455,309.3c0,25.9-21,47-47,47v-6.7l-14.7,11.9l14.7,10.8v-6.6c31.1,0,56.4-25.2,56.4-56.4H455z"/>
<path class="st8" d="M103,363c-25.9,0-47-21-47-47h6.7l-11.9-14.7L40,316h6.6c0,31.1,25.2,56.4,56.4,56.4V363z"/>
</svg>
